<?xml version="1.0" standalone="no"?>
<!DOCTYPE svg PUBLIC "-//W3C//DTD SVG 1.1//EN" "http://www.w3.org/Graphics/SVG/1.1/DTD/svg11.dtd" >
<svg>
<metadata>
Created by FontForge 20090622 at Fri Nov  9 17:00:44 2018
 By ffonts
Copyright (c) 2018 by Amarlettering_Kamaruddin. All rights reserved.
</metadata>
<defs>
<font id="Sallita" horiz-adv-x="304" >
  <font-face 
    font-family="Sallita"
    font-weight="400"
    font-stretch="normal"
    units-per-em="1000"
    panose-1="2 0 5 3 0 0 0 2 0 3"
    ascent="800"
    descent="-200"
    x-height="284"
    cap-height="697"
    bbox="-688 -405 1077 930"
    underline-thickness="50"
    underline-position="-50"
    unicode-range="U+000D-U+F6C0"
  />
<missing-glyph horiz-adv-x="300" 
 />
    <glyph glyph-name="l_l" unicode="ll" horiz-adv-x="376" 
d="M376 187q5 11 15.5 5.5t5.5 -19.5l-28 -65t-29.5 -59.5t-33 -43t-36.5 -16.5q-21 0 -34.5 14t-22.5 37t-13.5 52t-5.5 59q-12 -48 -26.5 -96t-33.5 -89q-16 -35 -35.5 -49.5t-37.5 -10.5t-32.5 25t-20.5 57q-9 52 -11.5 109.5t0 115t7.5 114t11 106.5q5 41 13 82.5
t20 78.5q14 45 35.5 74.5t50.5 29.5q18 0 28.5 -10.5t16.5 -26t7.5 -33t1.5 -30.5q0 -50 -12.5 -95t-31 -83t-39.5 -69.5t-38 -54.5q-9 -92 -11.5 -159t1.5 -125q1 -29 5 -50t10.5 -28.5t16 2.5t23.5 44q15 37 28 82.5t24 90t19 81.5t13 57q1 22 3.5 60.5t8.5 83.5
t15.5 91.5t23.5 84t34 61.5t46 24q18 0 28.5 -10.5t16.5 -26t7.5 -33t1.5 -30.5q0 -50 -12.5 -95t-31 -83t-39.5 -69.5t-38 -54.5l-4 -41q-2 -23 -3 -46t-1 -46q0 -19 1 -44.5t3.5 -49t7.5 -39.5t13 -16q9 0 22.5 20t28 48t27.5 57.5t21 49.5zM334 673q-11 0 -19.5 -18.5
t-16 -47.5t-13.5 -65.5t-10.5 -72.5t-7.5 -68.5t-4 -52.5q14 22 30 50t29 60t21.5 67.5t8.5 74.5t-5.5 56t-12.5 17zM141 675q-13 0 -23.5 -27t-18.5 -68q-6 -29 -10.5 -61.5l-8.5 -64t-6.5 -59t-3.5 -45.5q14 22 30 50t29 60t21.5 67.5t8.5 74.5t-5.5 56t-12.5 17z" />
    <glyph glyph-name="t_t" unicode="tt" horiz-adv-x="388" 
d="M-109 305q-7 -17 -22 -14.5t-18 20.5q1 27 16 42t36.5 22.5t47 10t48.5 2.5q1 17 1 34t2 29q1 10 10 15.5t19.5 6t20.5 -3.5t13 -13l-3 -67h66.5t65.5 -2q1 17 1 34t2 30q1 10 10 15.5t19.5 6t20.5 -3.5t13 -13l-3 -73q44 -4 77 -8t60 -4t44.5 7.5t22.5 18.5t-4.5 22
t-36.5 19q-7 7 -7.5 13.5t3.5 11t11 6.5t16 0q39 -12 51 -35t2 -44.5t-38 -37t-70 -12.5l-132 9l-4 -86.5t-2 -86.5q0 -64 7.5 -105t24.5 -41q23 0 46.5 40t59.5 117q2 5 13 5q7 0 13.5 -4t6.5 -10l-44.5 -83.5t-34.5 -56t-31 -31.5t-34 -10q-26 0 -42.5 18t-26 47.5t-13 66
t-3.5 74.5v2l-22.5 -103.5t-25 -90t-28.5 -64t-33 -24.5q-26 0 -42.5 29.5t-26.5 73t-13.5 91.5t-3.5 86v72t1 79q-16 0 -34 -1.5t-33.5 -6.5t-26.5 -14.5t-13 -26.5zM191 352q-33 2 -65.5 2h-65.5q-2 -44 -3.5 -89t-1.5 -89q0 -32 1.5 -71t5 -73.5t9 -58t14.5 -23.5
q7 0 16 20t19 52.5t20 74t19.5 85t17.5 85.5l14 75v10z" />
    <glyph glyph-name="r_r" unicode="rr" horiz-adv-x="382" 
d="M224 205q6 -7 16.5 -10.5t20 -7.5t17 -11.5t7.5 -21.5q0 -12 -3 -27t-7 -30t-7 -29.5t-3 -26.5q0 -14 6 -14q12 0 24.5 12t25 30.5t24 41l21.5 43.5l16 35q2 4 5.5 4.5t7.5 0.5q7 0 13.5 -4.5t6.5 -9.5q0 -2 -3 -8.5l-7 -15l-8.5 -17.5l-7.5 -15q-11 -23 -23.5 -46
t-27.5 -41.5t-33 -30t-39 -11.5q-22 0 -37 17t-15 64q0 21 3.5 39.5t3.5 34.5q0 2 -14 14l-41 -105.5t-48 -99.5q-14 -26 -29.5 -42t-32.5 -16q-22 0 -37 17t-15 64q0 10 4 35t9 52l9 50t4 31q0 3 -12 13.5t-26.5 26.5t-26.5 37t-12 46q0 29 15 52t42 23q19 0 36 -13t17 -39
t-8.5 -47t-21.5 -44q6 -7 16.5 -10.5t20 -7.5t17 -11.5t7.5 -21.5q0 -12 -6 -41.5t-13.5 -62.5t-13.5 -62t-6 -41q0 -15 5.5 -14t12.5 9t13.5 17.5t7.5 11.5q10 20 22 47t23.5 56.5l23 59t20.5 55.5q-15 16 -27 37t-12 47q0 14 4 33t11.5 36t18 28.5t24.5 11.5
q23 0 33.5 -18t13.5 -40q3 -33 -4.5 -60.5t-20.5 -58.5zM193 267q0 -11 1.5 -21t6.5 -18q8 24 14.5 46.5t7.5 46.5q1 20 -3.5 22.5t-10.5 -6.5t-11 -28t-5 -42zM2 267q0 -11 2 -22t7 -19q7 12 13.5 32.5t6.5 36.5q0 23 -10 23q-8 0 -13.5 -13.5t-5.5 -37.5z" />
    <glyph glyph-name=".notdef" horiz-adv-x="300" 
 />
    <glyph glyph-name="NULL" horiz-adv-x="0" 
 />
    <glyph glyph-name="NULL" horiz-adv-x="0" 
 />
    <glyph glyph-name="nonmarkingreturn" unicode="&#xd;" horiz-adv-x="300" 
 />
    <glyph glyph-name="space" unicode=" " horiz-adv-x="200" 
 />
    <glyph glyph-name="h" unicode="h" horiz-adv-x="324" 
d="M228 143q-2 -7 -4.5 -29.5t-2.5 -42.5v-16.5t2 -6.5q7 0 22.5 22t32 49l30 49t16.5 22q9 0 15 -6.5t4 -14.5q-12 -26 -28 -54t-33.5 -52t-35 -39.5t-33.5 -15.5q-15 0 -24.5 9.5t-15.5 24.5t-8.5 32.5t-2.5 33.5q0 20 1 34t2.5 26l3 24.5t1.5 28.5v8l-3 -3
q-13 -18 -28 -48.5t-28.5 -62t-24 -60t-15.5 -43.5q-8 -10 -27 -10q-11 0 -22 4.5t-13 14.5q-5 43 -8 85t-3 84q0 36 3 73.5t5 72.5q1 20 4.5 54.5t9.5 74t15.5 80.5t22.5 73.5t30.5 53.5t40.5 21q19 0 30.5 -8t18 -20.5t9 -27.5t2.5 -30q0 -50 -12.5 -95.5t-31 -85
t-39.5 -72t-39 -56.5q-3 -34 -4.5 -64.5t-1.5 -65.5v-21.5v-16.5t0.5 -17t0.5 -21l23.5 55t32 64t36 52.5t36.5 21.5q12 0 20 -8.5t12.5 -21.5t6.5 -28.5t2 -30.5q0 -16 -1 -30.5t-2 -22.5zM137 671q-11 0 -19.5 -18.5t-15.5 -47.5t-12.5 -65t-9.5 -71.5t-7 -67t-4 -51.5
q15 22 31.5 52.5t29.5 65.5t21.5 74t8.5 78q0 6 -1 14.5t-4 17t-7.5 14t-10.5 5.5z" />
    <glyph glyph-name="i" unicode="i" horiz-adv-x="151" 
d="M71 281q0 -8 -2.5 -30t-6 -49t-6 -56t-2.5 -51q0 -17 2 -29t5 -12q6 0 20 19.5t28.5 43.5l26.5 45.5t15 26.5q2 3 6 2t7.5 -5t5.5 -9t0 -9q-11 -23 -25 -49t-29 -47.5t-31 -35.5t-31 -14q-19 0 -30 14t-17 37.5t-8 54t-2 62.5q0 26 0.5 48t4.5 37.5t11 24t21 8.5
q13 0 25 -7t12 -20zM27 386q14 8 29 2t20 -25q5 -25 -18 -35q-13 -5 -28 -2t-20 22q-2 11 2 21.5t15 16.5z" />
    <glyph glyph-name="j" unicode="j" horiz-adv-x="158" 
d="M62 250q0 -48 -0.5 -92.5t-2.5 -89.5l24 33.5l30 40t27.5 33.5t17.5 14q7 0 13 -4.5t6 -10.5q0 -2 -2 -6q-11 -20 -25.5 -41t-31 -41.5t-33 -39l-29.5 -33.5q-1 -25 -3 -64t-7 -82.5t-13 -87t-20.5 -78.5t-30.5 -57t-43 -22q-16 0 -28 14.5t-20.5 35t-13 42.5t-4.5 38
q0 34 11 67t28.5 63t38 57l39.5 50l-1 -1q3 56 6 122t3 126q0 7 -0.5 14t-0.5 14v24q0 12 7.5 18t18.5 6q25 0 32 -19t7 -43zM-69 -344q9 0 16 15.5t13 40.5t10.5 55.5t7.5 61t5 57.5t3 44q-12 -17 -26 -39t-26 -47.5t-20 -53.5t-8 -57q0 -3 1 -15.5t3.5 -26t7.5 -24.5
t13 -11zM20 396q13 0 26 -9.5t13 -29.5q0 -11 -6.5 -19.5t-18.5 -8.5q-16 0 -27.5 10t-11.5 30q0 12 7 19.5t18 7.5z" />
    <glyph glyph-name="k" unicode="k" horiz-adv-x="276" 
d="M59 157q0 1 6 21t16.5 43t26 42.5t35.5 19.5q21 0 35.5 -14t14.5 -34q0 -10 -2 -17t-7.5 -13.5t-15 -14.5t-25.5 -20q-12 -10 -21 -16.5t-9 -11.5q1 -9 8 -24.5t17 -30.5t21.5 -26t21.5 -11q19 0 34 21.5t26 48l19.5 48t15.5 21.5q9 0 14.5 -8.5t1.5 -30.5l-19.5 -45.5
t-23.5 -45t-29.5 -34t-38.5 -13.5q-20 0 -36.5 9.5t-30 23.5t-23.5 30l-18 29q0 -10 -0.5 -27.5t-3.5 -35t-10 -30t-21 -12.5q-28 0 -35 24t-7 56q0 58 1 125.5t6 130.5q2 20 6 56t10.5 78t16.5 85.5t24.5 78.5t33 57.5t41.5 22.5q19 0 29.5 -13t16 -31t6.5 -37t1 -31
q0 -43 -8.5 -85t-24 -80t-38.5 -70t-53 -55q-3 -39 -3 -78t-2 -75v-1zM141 689q-11 0 -20 -19.5t-16.5 -50.5t-14 -69t-11.5 -75.5t-8 -70.5t-5 -53q43 48 67.5 114.5t24.5 138.5q0 40 -4.5 62.5t-12.5 22.5zM138 254q-11 0 -24 -20t-21 -43q19 14 32.5 32t13.5 27q0 4 -1 4
z" />
    <glyph glyph-name="l" unicode="l" horiz-adv-x="173" 
d="M173 189q2 6 8 6.5t12 -2t9.5 -8t0.5 -12.5l-13 -31l-20.5 -47.5t-26 -50t-32 -39.5t-36.5 -16q-24 0 -39.5 19.5t-23.5 50t-11 66.5t-3 69q0 29 1.5 54t1.5 42q1 21 3.5 59.5t8.5 83.5t15.5 92t23.5 85t34 62t46 24q18 0 28.5 -10.5t16.5 -26t7.5 -33t1.5 -30.5
q0 -50 -12.5 -95t-31 -83t-39.5 -69.5t-38 -54.5l-4 -41q-2 -23 -3 -46t-1 -46q0 -19 1 -42.5t4 -44.5t8 -35t13 -14q9 0 21 18t24.5 43t23.5 51t17 42zM139 673q-11 0 -19.5 -18.5t-16 -47.5t-13.5 -65.5t-10.5 -72.5t-7.5 -68.5t-4 -52.5q14 22 30 50t29 60t21.5 67.5
t8.5 74.5t-5.5 56t-12.5 17z" />
    <glyph glyph-name="m" unicode="m" horiz-adv-x="438" 
d="M58 261q-1 -12 -1.5 -35.5t-0.5 -49v-49v-36.5l26.5 59t30.5 56t31.5 41.5t28.5 16.5q17 0 28.5 -25t11.5 -77q0 -14 -0.5 -29.5t-1.5 -28.5l20.5 46.5t26.5 52t28.5 42t26.5 17.5q10 0 17 -8.5t11 -21.5t5.5 -30t1.5 -33q0 -26 -1.5 -52t-1.5 -47q0 -17 1 -27.5t5 -10.5
q6 0 14.5 12t18 30t19.5 39.5l19 41.5l16 34q3 5 8.5 5.5t11 -2.5t9 -8t1.5 -11l-11 -25l-21.5 -48t-24.5 -48.5t-28 -37.5t-32 -15q-24 0 -37 19t-18.5 45.5t-6.5 54.5t-1 47v17t2 13q-20 -35 -38.5 -83t-44.5 -97q-9 -11 -26 -11q-22 0 -26.5 12.5t-4.5 50.5q0 15 0.5 31
t0.5 33v73q-14 -20 -28 -49t-26.5 -58.5l-23.5 -53.5t-20 -33q-6 -6 -23 -6q-11 0 -22.5 6t-11.5 25q0 56 1 116t1 124q0 9 7 14t17 5q13 0 24.5 -8.5t11.5 -24.5z" />
    <glyph glyph-name="n" unicode="n" horiz-adv-x="282" 
d="M61 255q-4 -39 -7 -75t-6 -78q9 20 23.5 47.5t30 53t31.5 43.5t30 18q18 0 24 -21.5t6 -48.5q0 -29 -3.5 -64.5t-3.5 -61.5q0 -12 1 -20t4 -8q6 0 17 14.5t23.5 36.5t26 48.5l24.5 49.5q3 6 8.5 6.5t11 -2.5t8.5 -8t2 -11l-17 -34l-24 -47.5t-25 -44.5t-27.5 -33
t-30.5 -13q-18 0 -29 10.5t-17 27t-8.5 36.5t-2.5 40q0 25 2.5 46t2.5 35q-22 -36 -42.5 -83t-47.5 -95q-9 -11 -26 -11q-11 0 -20 5.5t-9 20.5q0 43 2.5 87.5t4.5 88.5l3 57q1 11 9 16t17 5q14 0 24 -8.5t10 -24.5z" />
    <glyph glyph-name="o" unicode="o" horiz-adv-x="290" 
d="M98 257q10 31 28.5 39.5t36 -2t30.5 -38.5t13 -71q0 -25 -2.5 -48.5t-8.5 -43.5q15 4 30 19.5t28.5 32.5l23.5 30.5t13 13.5q7 5 15 0.5t8 -9.5q0 -1 -1 -3l-2 -4q-9 -15 -21.5 -33.5t-27.5 -35t-33 -28t-38 -11.5h-8q-16 -26 -40 -43t-56 -17q-23 0 -39.5 10.5
t-27.5 28.5t-16.5 41t-5.5 47q0 57 26 91t75 34zM151 78q-14 12 -24 29.5t-16.5 38t-10 41t-4.5 37.5q-21 -7 -31.5 -38t-10.5 -67q0 -15 2.5 -29t8.5 -25.5t15.5 -18.5t23.5 -7q14 -1 26.5 11.5t20.5 27.5zM175 192q-2 27 -7.5 46t-12.5 28t-14 6t-12 -20q8 -4 18 -10
t18 -14q3 -5 1.5 -15.5t-6.5 -13.5q-8 8 -19.5 13.5l-13.5 6.5q0 -12 2.5 -28t6.5 -31.5t10.5 -29.5t15.5 -23q7 20 10 41.5t3 43.5z" />
    <glyph glyph-name="p" unicode="p" horiz-adv-x="259" 
d="M57 176q-1 -11 -1 -13.5v-14.5v-76q-1 -22 -3.5 -61t-8 -86t-14.5 -95.5t-22.5 -88t-33 -64.5t-45.5 -25q-17 1 -27.5 11t-16.5 25t-8 32t-2 31q0 33 9 67.5t25 67t36.5 60.5t44.5 49q1 15 1.5 37.5t1.5 48t1.5 53.5t0.5 55q0 26 -0.5 50t-1.5 47q0 7 7 11t18 4
q12 0 19.5 -8t12 -19.5t6.5 -24.5t2 -24q14 29 33 45.5t37 16.5q33 0 55 -31t22 -82q0 -8 -0.5 -18t-1.5 -18q8 3 17.5 11t18 16.5t14 15.5t6.5 8q2 3 5 1.5t6 -5.5t4.5 -9.5t-0.5 -9.5q-14 -35 -36 -49t-44 -21q-16 -40 -39 -58.5t-46 -18.5q-20 0 -34 12t-14 30
q0 15 7 25.5t17.5 17t24 9.5t25.5 5q3 13 5 33t2 40q0 25 -4.5 44t-16.5 19q-6 0 -14.5 -7.5t-18 -18.5t-18 -25t-13.5 -27zM-76 -324q10 0 18.5 16t15.5 42t12 57.5t9 62t6 57t3 41.5q-15 -19 -30.5 -42.5t-28 -49.5t-20 -55t-7.5 -58q0 -40 8.5 -55.5t13.5 -15.5zM91 49
q8 0 18 12.5t15 23.5q-17 -5 -25.5 -14.5t-8.5 -15.5t1 -6z" />
    <glyph glyph-name="q" unicode="q" horiz-adv-x="281" 
d="M67 40q7 0 15.5 7t17 17.5t16.5 23t13 22.5l-1 -1q2 22 5.5 44.5t5.5 43.5l1 -1q-13 20 -23.5 27.5t-18.5 7.5q-17 0 -34.5 -33.5t-17.5 -94.5q0 -26 5 -44t16 -19zM116 -100q0 39 2 77l4 75q-11 -14 -26 -26.5t-34 -12.5q-21 0 -35 10t-22.5 25.5t-12.5 34.5t-4 37
q0 30 6.5 56.5t18 46.5t26.5 32t33 12q19 0 37.5 -10.5t35.5 -27.5l2 12q3 17 7.5 30t21.5 13q13 0 26.5 -8t13.5 -22q0 -4 -2 -8h1q-12 -44 -19.5 -93.5t-9.5 -90.5l12 14l42 50.5t41 62.5q3 6 12 6q6 0 12 -4.5t6 -10.5q0 -2 -2 -6q-14 -27 -33 -53.5l-36 -48.5
q-20 -26 -42 -48q1 -21 12.5 -57.5l25 -81.5t24.5 -96t11 -102q0 -37 -12.5 -64.5t-37.5 -27.5q-17 0 -31.5 13.5t-25.5 33.5t-19 43t-12 42q-11 42 -14 86t-3 87zM198 -96l-6.5 19.5l-4.5 13.5t-3.5 12.5l-3.5 15.5q-3 -45 -3 -89q0 -24 2 -66.5t6.5 -84.5t12.5 -72.5
t20 -30.5q8 0 14.5 18.5t6.5 48.5q0 25 -4.5 55t-10.5 59.5t-13 56t-13 44.5z" />
    <glyph glyph-name="r" unicode="r" horiz-adv-x="191" 
d="M63 296q0 -26 -8.5 -47t-21.5 -44q6 -7 16.5 -10.5t20 -7.5t17 -11.5t7.5 -21.5q0 -12 -3 -27t-7 -30t-7 -29.5t-3 -26.5q0 -14 6 -14q12 0 24.5 12t25 30.5t24 41l21.5 43.5l16 35q2 4 5.5 4.5t7.5 0.5q7 0 13.5 -4.5t6.5 -9.5q0 -2 -3 -8.5l-7 -15l-8.5 -17.5l-7.5 -15
q-11 -23 -23.5 -46t-27.5 -41.5t-33 -30t-39 -11.5q-22 0 -37 17t-15 64q0 21 3.5 39.5t3.5 34.5q0 3 -12 13.5t-26.5 26.5t-26.5 37t-12 46q0 29 15 52t42 23q19 0 36 -13t17 -39zM2 267q0 -11 2 -22t7 -19q7 12 13.5 32.5t6.5 36.5q0 23 -10 23q-8 0 -13.5 -13.5
t-5.5 -37.5z" />
    <glyph glyph-name="s" unicode="s" horiz-adv-x="165" 
d="M68 305q-15 -4 -20.5 -16.5t-5.5 -29.5q0 -24 6 -47.5t14.5 -43.5t16.5 -36t12 -25q23 14 38.5 30.5t35.5 51.5q2 5 12 5q6 0 12 -4t6 -10q0 -2 -2 -6q-14 -22 -25 -37t-21.5 -26t-21.5 -19.5t-26 -16.5q6 -24 6 -50q0 -16 -3.5 -31.5t-12 -28t-22.5 -20.5t-35 -8
q-23 0 -35.5 16.5t-12.5 39.5q0 29 15.5 51.5t39.5 36.5q-1 10 -9.5 28t-18 41t-17.5 49t-8 53q0 32 15 56t55 26q2 0 10.5 -4.5t8.5 -14.5q0 -4 -4 -9zM45 -19q6 16 6 33q0 8 -1 17t-3 17q-16 -12 -25 -29t-9 -31q0 -11 4.5 -17t9.5 -6q10 0 19 16h-1z" />
    <glyph glyph-name="u" unicode="u" horiz-adv-x="295" 
d="M66 254q-1 -8 -4.5 -27.5t-7 -44.5t-6.5 -51t-3 -45q0 -29 5 -29q6 0 14 11.5t17.5 29.5t19.5 40.5t19 45l16.5 42.5t13.5 33v-1q0 12 8 18t18 6q13 0 24 -8t11 -22v2q-4 -31 -7 -60q-2 -25 -4 -53t-2 -48q0 -23 2 -38.5t9 -15.5q13 0 26.5 24t25.5 53.5l22.5 53.5
t18.5 24q6 0 13 -4.5t7 -10.5l-4.5 -13t-12 -31.5t-18.5 -40.5t-24.5 -41t-28 -31.5t-30.5 -12.5q-20 0 -32.5 16t-19 39t-8.5 49.5t-2 46.5v9l-3 -7q-7 -18 -17.5 -41.5t-23.5 -45t-27.5 -36t-29.5 -14.5q-14 0 -22.5 11.5t-13.5 31t-7 44t-2 51.5q0 66 4.5 93.5t29.5 27.5
q15 0 25.5 -7.5t10.5 -22.5z" />
    <glyph glyph-name="v" unicode="v" horiz-adv-x="281" 
d="M58 272q-2 -9 -2.5 -29t-0.5 -46q0 -25 1.5 -52.5t4.5 -50t8.5 -37.5t14.5 -15q14 0 34.5 40.5t37.5 102.5q-13 24 -20 51.5t-7 52.5q0 36 14 55.5t30 19.5t27.5 -15.5t11.5 -47.5q0 -23 -6 -53t-13 -60q0 -1 -1 -3t-1 -4l-1 1q11 -17 22 -24.5t22 -7.5q9 0 16.5 6.5
t14.5 15t13 15t13 6.5t14 -4.5t7 -10.5q0 -12 -9 -22t-21 -18t-24.5 -12.5t-19.5 -4.5q-30 0 -56 27q-7 -20 -16.5 -44.5t-22.5 -47t-29 -37.5t-36 -15q-26 0 -42.5 28.5t-25.5 68.5t-12 84t-3 74q0 22 4 34t26 12q14 0 23.5 -8t9.5 -25zM159 286q0 -14 2.5 -28.5t7.5 -28.5
q5 24 8.5 45.5t3.5 36.5q0 24 -5 24q-4 0 -10.5 -13t-6.5 -36z" />
    <glyph glyph-name="w" unicode="w" horiz-adv-x="435" 
d="M201 230q-1 -4 -1 -17q0 -22 2.5 -53.5t7.5 -60t13.5 -48.5t19.5 -20q10 0 19 14.5t17 36t14.5 45.5l11.5 43l4 16l1 -1q-17 27 -26.5 59.5t-9.5 58.5q0 31 14 47.5t28 16.5q16 0 29.5 -18t13.5 -53q0 -20 -5 -51.5t-13 -60.5q30 -39 51 -39q13 0 20.5 8t12.5 17t8.5 17
t8.5 8q10 0 16 -6t6 -14q-20 -59 -64 -59q-17 0 -33.5 8t-34.5 28l-3 -13q-5 -18 -12.5 -42t-18 -45.5t-24 -36.5t-30.5 -15q-20 0 -35.5 14t-27 36t-19.5 49.5t-12 54.5q0 -2 -0.5 -2.5t-0.5 -2.5q-4 -21 -10 -47t-15 -48t-20.5 -37t-26.5 -15q-25 0 -40.5 22t-24 54.5
t-11.5 70t-3 69.5q0 35 1.5 53t5.5 26t10 9t15 1q14 0 26 -8.5t12 -21.5q0 -6 -1.5 -22t-3 -36.5t-3 -44t-1.5 -45.5q0 -16 1 -33t3.5 -31t6.5 -23t11 -9t13.5 17t12.5 42t11.5 55l10 55t8.5 42t6 17q5 5 9.5 5.5t12.5 0.5q14 0 25 -9t11 -28zM326 280q0 7 1 13.5t1 12.5
q0 32 -8 32q-4 0 -9 -12t-5 -32q0 -15 3.5 -31t8.5 -33z" />
    <glyph glyph-name="x" unicode="x" horiz-adv-x="252" 
d="M-15 285q10 0 21 -10t21 -24.5t18.5 -31t13.5 -30.5q7 7 20 25l27 37t26.5 33t18.5 14t11.5 -5.5t5.5 -11.5q0 -3 -4 -9q-23 -32 -47 -62t-46 -53l10 -32l10.5 -34t11.5 -31t13.5 -23t16.5 -9q12 0 26 13t28.5 33t28.5 44.5t25 47.5l11 22q3 7 14 7q6 0 12 -4t6 -9
q0 -2 -7.5 -16l-12.5 -23q-13 -25 -28.5 -51.5t-33 -48.5t-37.5 -36.5t-41 -14.5q-30 0 -56 31.5t-43 82.5q-18 -20 -31.5 -41.5t-27.5 -52.5q-5 -9 -15 -9q-7 0 -12 4t-5 9q0 3 2 7h-1q15 35 36 64.5t43 54.5q-10 33 -23.5 61.5t-42.5 49.5q-4 2 -7 6t-3 6q0 9 16.5 14.5
t30.5 5.5z" />
    <glyph glyph-name="y" unicode="y" horiz-adv-x="288" 
d="M65 281q0 -8 -2.5 -30.5l-5.5 -50.5t-5.5 -57.5t-2.5 -50.5q0 -35 4 -35t11.5 16t16.5 40t18.5 52.5l17.5 53.5t13 43t5 22q0 7 9.5 11.5t21.5 4.5q10 0 20 -5.5t10 -16.5q0 -56 -2 -108.5t-5 -107.5q10 11 25.5 33l31.5 43.5t29.5 38t19.5 16.5t12 -4.5t6 -10.5
q0 -3 -2 -5q-11 -20 -26.5 -42.5t-32.5 -44l-34 -41.5l-30 -35q0 -21 -2.5 -58t-8 -80t-14.5 -87.5t-23 -80t-32.5 -58.5t-43.5 -23q-15 0 -26.5 9.5t-19 24.5t-11.5 34t-4 38q0 38 13 76t32 72t39.5 62t35.5 46q2 20 2 41t2 43l12 160q-8 -38 -18.5 -73.5t-22.5 -63
t-24.5 -44t-23.5 -16.5q-26 0 -40 22t-14 70q0 22 1 45t2.5 44.5t3 40t1.5 32.5q0 7 10.5 11.5t21.5 4.5q10 0 19 -5t10 -16zM55 -347q9 0 17.5 15.5t15 40.5t12 56t9.5 61.5t6.5 58t3.5 44.5q-13 -17 -28 -40t-27.5 -49.5t-21 -56t-8.5 -59.5q0 -3 1 -14.5t3.5 -24
t6.5 -22.5t10 -10z" />
    <glyph glyph-name="z" unicode="z" horiz-adv-x="284" 
d="M189 231q0 -13 -8 -28t-20.5 -30t-29.5 -28.5t-35 -23.5q13 -2 30 -7t34 -14t32 -22t24 -29q15 18 26 43t19 47t15 37.5t13 15.5t12 -3.5t6 -10.5q0 -3 -1 -7q-5 -16 -12 -35.5t-16 -40t-20.5 -40.5t-27.5 -36q10 -37 10 -78q0 -51 -15.5 -97.5t-41.5 -81.5t-60 -56
t-71 -21q-32 0 -51.5 17t-19.5 46q0 31 17 63.5t42 63t53.5 58t52.5 48.5l26 25l-2 -1q-10 48 -36.5 73t-68.5 25q-8 0 -12.5 1t-4.5 6q0 7 14.5 19.5l31.5 28t31.5 32.5t14.5 32t-11 23t-25 8q-20 0 -36 -14t-28.5 -31.5l-23 -31.5t-17.5 -14q-11 0 -10.5 9.5t8.5 23.5
t21.5 31t29.5 31t33.5 23.5t31.5 9.5q35 0 55.5 -17t20.5 -42zM144 -59l-44.5 -42t-43.5 -48t-33 -51.5t-13 -53.5q0 -17 7 -24.5t17 -7.5q21 0 45 16.5t44.5 49t35 80.5t15.5 111z" />
    <glyph glyph-name="d" unicode="d" horiz-adv-x="292" 
d="M174 577q14 54 38 81.5t47 29t40 -22t17 -72.5t-10.5 -94t-27.5 -83t-39 -67t-44 -47q0 -4 -0.5 -16.5t-1.5 -30.5t-1.5 -40t-0.5 -45q0 -26 1 -50t3 -43.5t5.5 -31t8.5 -11.5q9 0 21.5 25t25 55.5t24.5 55.5t21 25q6 0 12.5 -4.5t6.5 -10.5t-8 -26.5t-20 -46t-26 -50.5
t-26 -40q-6 -8 -15.5 -11.5t-20.5 -3.5q-36 0 -53.5 38t-22.5 98q-13 -28 -28 -47.5t-28.5 -32t-25.5 -18t-19 -5.5q-14 0 -24 9t-16 22t-8.5 28.5t-2.5 28.5q0 28 8 54.5t22 47.5t33 33.5t40 12.5q20 0 31 -12.5t17 -31.5q1 52 6.5 105.5t13 101.5t15 85.5t12.5 57.5z
M200 357q-1 -3 -1 -8q17 20 33 48t28 61t19.5 69t7.5 74q0 40 -7.5 53t-18 5.5t-20.5 -31t-14 -55.5l-8 -59.5l-8 -59.5t-7 -54t-4 -43zM98 176q3 10 3 18q0 17 -6.5 26t-15.5 9q-15 0 -26.5 -15t-19.5 -36t-12.5 -43.5t-4.5 -37.5q0 -28 7 -28q5 0 14.5 11.5t20.5 28
l22 34.5t18 32v1z" />
    <glyph glyph-name="A" unicode="A" horiz-adv-x="583" 
d="M328 683q16 24 39 24q20 0 30.5 -23t15 -58t5 -75.5t0.5 -74.5q0 -42 1.5 -85.5t3.5 -89.5q5 -2 9 -6.5t4 -8.5t-2.5 -5.5t-10.5 -3.5q3 -45 7 -90t10 -81t14.5 -59t20.5 -23q10 0 21.5 12t22.5 30.5t22 40t19.5 40l14.5 30.5t8 12q6 0 13 -4.5t7 -10.5q0 -1 -0.5 -2
t-0.5 -3q-7 -21 -19 -50t-28 -55.5t-35.5 -45t-40.5 -18.5q-27 0 -43 23.5t-25 61.5t-13.5 87.5t-7.5 100.5l-103 -12l-26 -88t-37.5 -91.5t-52.5 -72t-70 -29.5q-25 0 -48.5 15t-42.5 46q-4 5 -4 8q0 10 14 10q10 0 16 -9q14 -22 26 -31t24 -9q22 0 42.5 26.5t37.5 64.5
t30 80t21 72l-11 -2q-8 0 -14.5 5.5t-6.5 12.5q0 5 9.5 7t21.5 3l9 1l31 128.5l28 119.5t24 96t20 59zM379 647q-9 -24 -17.5 -63.5l-18 -87t-21.5 -101t-27 -106.5q24 3 46.5 5t46.5 5l-3 121q-1 37 -2.5 75.5t-2 70t-1 54t-0.5 28.5l-1 -1h1z" />
    <glyph glyph-name="B" unicode="B" horiz-adv-x="586" 
d="M141 570q-3 -6 -11 -6q-6 0 -12.5 5t-6.5 11q0 3 2 5h-1q22 60 43 88t43 28q14 0 26.5 -11.5t22 -30t16.5 -40.5t10 -43q27 60 67.5 86.5t79.5 26.5q30 0 59 -15.5t51 -42.5t35.5 -64.5t13.5 -81.5q0 -80 -46 -133.5t-129 -62.5q29 -17 52.5 -39.5t40 -48.5t25 -53.5
t8.5 -52.5q0 -31 -11.5 -57t-31 -44.5t-46.5 -28.5t-57 -10q-26 0 -49.5 7.5t-41.5 21.5t-28.5 33.5t-10.5 44.5q0 4 0.5 11t2.5 14t5.5 12t8.5 5q6 0 12 -4t6 -10l-3 -17q-2 -10 -2 -15q0 -38 26 -58.5t59 -20.5q18 0 36.5 6.5t33 20.5t23.5 35.5t9 51.5q0 25 -7.5 51.5
t-23 51.5t-40.5 47t-60 37l-2 1q-1 1 -1 0.5t-2 0.5q-13 5 -26.5 12.5t-13.5 15.5t14 8q11 0 22 -1.5t25 -1.5q40 0 69.5 17.5t48.5 45.5t28.5 62t9.5 66q0 78 -29 118.5t-65 40.5q-21 0 -45.5 -18t-46 -45t-36 -59.5t-14.5 -61.5q0 -38 -2.5 -90t-9 -107.5t-19 -110.5
t-32 -98t-48 -70t-67.5 -27q-23 0 -47 15t-41 44q-3 4 -3 8q0 10 13 10q10 0 16 -9q21 -40 45 -40q23 0 41.5 23t32.5 61.5t24 89t16.5 105.5t9.5 110.5t3 103.5q0 33 -1 63.5t-3 53t-5.5 36t-8.5 13.5t-10.5 -7.5t-11 -19t-10.5 -25l-9 -24.5l-7 -19h-1z" />
    <glyph glyph-name="C" unicode="C" horiz-adv-x="383" 
d="M302 666q-4 1 -10 1q-18 0 -34 -12.5t-29.5 -30.5t-23.5 -37.5t-16 -33.5q21 0 46.5 2t47 9t36.5 20t15 35q0 14 -8 28t-22 18zM367 617q0 -31 -20 -49t-49 -27t-61.5 -11t-57.5 -2q-21 -56 -30.5 -122t-9.5 -133q0 -65 9 -113t23 -80t32 -48t36 -16q20 0 41.5 13.5
t41 37t36 55t25.5 67.5q1 4 5 6.5t8 2.5q18 0 18 -17q-11 -46 -30.5 -82t-44.5 -61.5t-53.5 -39t-56.5 -13.5q-44 0 -74 29.5t-48 70.5t-26.5 84.5t-10.5 72.5q-1 10 -1 22v23q0 63 8 123t26 114q-30 -6 -47.5 -24t-19.5 -48q-3 -10 -13 -10q-16 0 -16 13q0 23 9 40t24 29
t34 18.5t39 8.5q10 23 25.5 48.5t37.5 46.5t49 35t60 14q19 0 34.5 -7.5t26 -18.5t16 -25t5.5 -27z" />
    <glyph glyph-name="D" unicode="D" horiz-adv-x="603" 
d="M128 545q-2 -6 -11 -6q-6 0 -12.5 5t-6.5 12q0 12 7.5 31t19 36.5t25 30.5t25.5 13q21 0 34.5 -18.5t22.5 -45t13.5 -56t7.5 -51.5q7 28 18 62.5t27 65t38 51t51 20.5q34 0 61 -24t47.5 -59.5t34 -74.5t19.5 -69q6 -28 8.5 -59.5t2.5 -63.5q0 -67 -13 -135t-41 -122.5
t-72.5 -89t-106.5 -34.5q-64 0 -142 42q-15 -20 -38.5 -35.5t-50.5 -15.5q-23 0 -44.5 12.5t-41.5 44.5q-4 5 -4 8q0 10 13 10q10 0 16 -9q12 -21 23 -30t22 -9q31 0 53 40.5t35 105t19 143t6 155.5q0 30 -1 66t-3.5 68t-6.5 53.5t-10 21.5q-7 0 -13 -12t-11.5 -28
l-10.5 -30.5t-10 -19.5h1zM257 368q-2 -38 -6 -84t-11 -93.5t-17.5 -91t-26.5 -74.5q54 -29 99 -29q50 0 87.5 31t63 81t38.5 114t13 130q0 47 -6 91q-3 21 -13 58t-24.5 73.5t-33 63t-40.5 26.5q-17 0 -32 -19t-28 -48.5t-24 -65t-19 -68t-13 -59z" />
    <glyph glyph-name="E" unicode="E" horiz-adv-x="376" 
d="M36 442q0 -9 -12 -9q-11 0 -14.5 8t-3.5 17q0 42 20.5 62t52.5 29q6 27 21 53.5t37 47.5t49.5 34.5t58.5 13.5q19 0 41.5 -7t41 -20t31 -31.5t12.5 -41.5q0 -35 -32 -52t-104 -17q-19 0 -36.5 1t-37.5 1h-16q0 -29 19.5 -49t71.5 -20h27q20 0 35 -4.5t15 -17.5
q0 -9 -13.5 -22t-34.5 -31.5t-44.5 -42t-44.5 -52.5t-34.5 -64t-13.5 -76q0 -26 7.5 -48.5t20.5 -39t30 -25.5t35 -9q26 0 52 15t47 38.5t36 51.5t20 54q3 8 15 8q8 0 15.5 -5t7.5 -16q-12 -51 -38 -85.5t-56 -55.5t-59 -29.5t-47 -8.5q-32 0 -60.5 13t-49.5 35.5
t-33.5 52.5t-12.5 65q0 45 18.5 83.5t46 71t59.5 59l58 46.5l14 11q-9 0 -24.5 -1.5t-28.5 -1.5q-60 0 -89 27t-33 65q-44 -16 -44 -69v-6q0 -2 0.5 -3t0.5 -3zM271 665q-22 0 -42.5 -11.5t-37 -28t-28.5 -35.5t-16 -35q19 0 40 -1.5t41 -1.5q58 0 84.5 14.5t26.5 37.5
q0 25 -20.5 43t-47.5 18z" />
    <glyph glyph-name="F" unicode="F" horiz-adv-x="415" 
d="M441 658q0 -24 -39.5 -39.5t-128.5 -26.5q-13 -49 -18 -114t-5 -133q17 -1 31.5 -0.5t28.5 0.5q7 0 13 -6.5t6 -12.5q0 -5 -8 -7t-20 -2.5t-25.5 0t-25.5 0.5q0 -14 2 -53t2 -89q0 -43 -3 -88.5t-10.5 -82.5t-21.5 -61t-36 -24q-23 0 -42.5 22t-34.5 51t-23.5 57t-8.5 41
q0 9 11 9q6 0 12 -5t8 -10q5 -24 12 -47.5t15.5 -42t17 -30.5t15.5 -12t11.5 16.5t7 44t3.5 62.5t1 72q0 56 -1.5 103t-2.5 66h-7q-20 -1 -38 -1.5t-34 -0.5q-8 0 -14 6t-6 12q0 8 19.5 9.5t43.5 1.5h36q-1 16 -1 32v32q0 48 4 93.5t15 85.5q-31 -5 -60 -12.5t-52 -23
t-37.5 -41t-15.5 -67.5q0 -10 -5 -13.5t-11 -2.5t-10.5 6t-4.5 11q0 51 17 82.5t45 50t64 27t74 12.5l77 7q67 5 95.5 19t28.5 22q0 17 5.5 23t11.5 3.5t11.5 -11t5.5 -20.5z" />
    <glyph glyph-name="G" unicode="G" horiz-adv-x="517" 
d="M424 193q0 -61 -3 -118q32 20 56 51t40 63q10 10 19 2t9 -17q-16 -38 -49.5 -75t-75.5 -63q-5 -55 -14 -104.5t-24.5 -87t-37 -60t-50.5 -22.5q-19 0 -34.5 8.5t-27 22.5t-17.5 32t-6 38q0 27 11.5 49.5t31.5 43t47 40l58 40.5v202l-14 -42l-22.5 -64.5t-26.5 -59
t-35.5 -43.5t-48.5 -17q-29 0 -51 18.5t-37 44t-24 53t-12 45.5q-5 28 -7.5 58t-2.5 60q0 67 9 129t23 101q-26 -8 -48.5 -27.5t-22.5 -49.5v-4q0 -2 0.5 -3t0.5 -3q0 -9 -14 -9t-16 8t-2 18q0 24 9 41t25 28.5t36.5 18t44.5 9.5q10 21 25 43.5t35 41t44.5 30.5t53.5 12
q25 0 45.5 -7.5t34 -20t21 -28t7.5 -30.5q0 -35 -32.5 -50t-77.5 -15q-22 0 -40.5 1t-44.5 1q-11 -26 -20 -58t-15.5 -67.5t-10.5 -73.5t-4 -75q0 -18 1.5 -53.5t8.5 -70.5t22.5 -61.5t43.5 -26.5q17 1 32 17.5t27.5 42t23 57t20 63l17.5 59t15 45.5v19q0 6 0.5 12.5
t0.5 12.5q0 7 -0.5 13t-0.5 12v16q0 9 8 13.5t19 4.5q29 0 36 -17.5t7 -48.5v-85q0 -20 0.5 -41t0.5 -42zM297 -205q14 9 24 29.5t17 48.5t11 61t7 65q-54 -35 -85 -68t-31 -74q0 -25 11.5 -46.5t30.5 -21.5q6 0 15 6zM304 644q-18 0 -34 -10t-29 -24t-23 -30.5l-17 -28.5
q20 0 38 -1.5t37 -1.5q14 0 28 2t25 7.5t18 14t7 22.5q0 18 -13.5 34t-36.5 16z" />
    <glyph glyph-name="H" unicode="H" horiz-adv-x="598" 
d="M488 36q6 -9 13 -9q10 0 21.5 12.5t21.5 30.5t20 39.5t17 40t12.5 30.5t6.5 12q8 -2 14.5 -4.5t6.5 -10.5q-2 -12 -12 -42t-25.5 -61t-37 -55t-46.5 -24q-26 0 -45 20t-33 51.5t-23 71t-15 78.5t-9 73.5t-4 55.5q-21 -7 -46 -8t-48 -4q-2 -33 -5.5 -73.5t-11 -82.5
t-19 -82t-29 -71.5t-42.5 -50.5t-58 -19q-26 0 -52.5 15.5t-49.5 53.5q-3 4 -3 8q0 9 12 9q4 0 9 -2.5t9 -7.5q16 -26 30.5 -37t27.5 -11q19 0 34.5 18t27.5 47t21 66t15 74.5t10 73t6 61.5q-12 -2 -26 -4t-27 -2q-8 0 -14 6t-6 11q0 3 8.5 6.5t20.5 6.5t25 5t21 2
q3 46 3 90q0 33 -1 65.5t-4 59t-8 43t-12 16.5q-8 0 -23 -27t-40 -87q-3 -5 -11 -5t-14 6.5t-6 11.5q0 13 9.5 35t23.5 43.5t31 37t32 15.5q21 0 36 -16.5t25 -43t15.5 -59.5t8.5 -66t3 -62t-1 -48q11 2 22.5 3t23.5 3l46 5q2 81 7.5 166t19.5 159q2 5 8.5 7.5t14.5 2.5
q15 0 26.5 -6.5t11.5 -17.5q-5 -21 -9.5 -55t-8 -77t-6 -92t-2.5 -99q0 -51 3 -100.5t9.5 -92.5t17 -77.5t26.5 -54.5z" />
    <glyph glyph-name="I" unicode="I" horiz-adv-x="328" 
d="M141 570q-3 -6 -11 -6q-7 0 -13.5 5t-6.5 11q0 10 8.5 29.5t21 39t27.5 34t28 14.5q19 0 31.5 -14t20.5 -33t12.5 -39t6.5 -33q6 -37 9.5 -82.5t3.5 -96.5q0 -67 -8.5 -141t-29 -136.5t-55 -103t-85.5 -40.5q-60 0 -93 59q-3 4 -3 7q0 11 13 11q7 0 15 -8l17 -17.5
t19 -17.5t20 -8q5 0 11 3q29 20 49.5 63t34 99t19.5 121t6 130q0 31 -1 73t-3 80t-5.5 64.5t-8.5 26.5t-12.5 -13t-15 -29.5t-13.5 -31.5l-8 -20h-1z" />
    <glyph glyph-name="J" unicode="J" horiz-adv-x="426" 
d="M132 599q0 -4 -3.5 -6.5t-7.5 -2.5t-11.5 4t-7.5 12q0 28 18 47t45 30.5t57.5 17.5t55.5 10q5 51 23 77t40 26q18 0 36 -18t18 -49q0 -20 -13.5 -33t-33.5 -19q0 -63 2.5 -134.5t2.5 -150.5q0 -83 -5.5 -168.5t-20.5 -159.5t-41.5 -130t-68.5 -81q-7 -4 -16.5 -6.5
t-17.5 -2.5q-22 0 -39 11t-28.5 29t-17.5 40.5t-6 45.5q0 46 18 92t45 87t59.5 74.5t61.5 55.5q2 47 3 96t1 97q0 24 -0.5 48.5t-0.5 49.5v94q-23 -3 -47.5 -8.5t-45.5 -15t-35.5 -24t-18.5 -35.5zM274 206q0 12 0.5 24t1.5 24q-26 -23 -53.5 -53.5t-50 -65t-36.5 -73
t-14 -77.5q0 -17 3 -33.5t9.5 -30t16 -22t21.5 -8.5q7 0 17 7q29 20 45.5 54.5t25 77t11 88.5t3.5 88zM347 728q7 5 12 13t5 19t-3.5 17.5t-5.5 6.5q-8 0 -8 -41v-15z" />
    <glyph glyph-name="K" unicode="K" horiz-adv-x="652" 
d="M532 616q-24 0 -46.5 -16t-43.5 -41t-41 -56l-38 -61q8 -22 16 -59l17.5 -80t20.5 -87t25 -80t30.5 -58.5t37.5 -22.5q25 0 60 30t82 104q5 3 10.5 2.5t9 -4t4.5 -8.5t-3 -10q-53 -72 -96.5 -108t-75.5 -36q-27 0 -47.5 18t-36 48t-27.5 68.5t-22 79l-19.5 80.5t-20.5 73
q-16 -32 -20 -71.5t-10 -84.5q-8 -53 -20.5 -106.5t-32.5 -96t-49 -69.5t-68 -27q-26 0 -51 15.5t-43 53.5q-2 4 -2 6q0 10 13 10q4 0 8.5 -2t6.5 -7q11 -23 25.5 -33.5t29.5 -10.5q33 0 54 32.5t33.5 80t19.5 101.5t12 97l3 26q0 44 7.5 104t7.5 122q0 15 -0.5 36
t-1.5 40.5t-3.5 33.5t-5.5 14q-4 0 -11.5 -11.5t-15.5 -26.5t-15.5 -31l-11.5 -25l-4 -8h1q-2 -6 -11 -6q-6 0 -13 5.5t-7 12.5q0 9 9 30t23 42.5t30.5 38t31.5 16.5q22 0 36 -25t21 -61t9.5 -76t2.5 -70q0 -8 -0.5 -14.5t-0.5 -11.5l12 20l38 61.5t45.5 61.5t53 47t61.5 19
q7 0 22 -3.5t30 -9.5t26.5 -14.5t11.5 -18.5q0 -5 -4 -8.5t-10 -3.5q-7 0 -10 5q-32 25 -59 25z" />
    <glyph glyph-name="L" unicode="L" horiz-adv-x="651" 
d="M160 326q-3 -6 -9.5 -5.5t-12.5 4t-8.5 9t2.5 10.5q20 32 58 58t83 52v17q0 35 2.5 79t11.5 82.5t27.5 64.5t51.5 26q16 0 27 -7t18 -19t10 -27t3 -30q0 -36 -7 -64t-19 -50t-27.5 -39t-31.5 -30q0 -85 -6 -178t-26 -177q21 -4 40 -10l39.5 -12t43 -10.5t50.5 -4.5
q30 0 53.5 7.5t34.5 25.5q3 5 8 5.5t10 -2t8.5 -7t3.5 -9.5q-14 -25 -43.5 -35t-67.5 -10q-30 0 -53.5 4.5t-45 10.5t-42 12.5t-42.5 9.5q-6 -20 -16.5 -41.5t-26 -39t-35.5 -29t-45 -11.5q-30 0 -49 17t-24 40.5t5.5 47t38.5 36.5q8 4 15 7t16 4.5t22 2t34 0.5q7 33 12 71
t9 77.5t6.5 80t4.5 78.5q-30 -17 -61.5 -39t-49.5 -53zM176 -17q12 1 20.5 11t15 25t11 32.5t9.5 33.5q-21 3 -39.5 -1t-35.5 -18q-12 -9 -16.5 -23t-1.5 -27t12.5 -22.5t24.5 -10.5zM380 693q-9 0 -15.5 -20.5t-11.5 -50t-8.5 -62.5t-5.5 -58q24 26 39.5 64t15.5 78
q0 17 -3.5 33t-10.5 16z" />
    <glyph glyph-name="M" unicode="M" horiz-adv-x="814" 
d="M156 571q-2 -6 -11 -6q-6 0 -12.5 5t-6.5 11q0 4 6.5 22.5t17.5 38.5t25.5 36.5t30.5 16.5q24 0 39.5 -23.5t24.5 -59.5t12 -79.5t3 -83.5q0 -26 -1 -48.5t-2 -39.5l40 97l39 94q17 43 34.5 61t36.5 18q21 0 33.5 -19t19.5 -50.5t9.5 -72t2.5 -83.5v-34.5v-20t-0.5 -12.5
t-0.5 -12q15 54 34.5 112t40.5 106t41.5 78.5t37.5 30.5q18 0 28 -11.5t15 -28t6 -35t1 -33.5q0 -19 -3.5 -57.5t-7 -87.5l-7 -103t-3.5 -103q0 -30 2 -59t6 -52.5t10.5 -38t16.5 -14.5q15 0 31.5 24.5t31.5 54t25 54.5t12 26q7 5 15 1.5t8 -8.5q0 -6 -5.5 -22.5t-14.5 -37
t-21.5 -42.5t-27 -40.5t-30 -30.5t-30.5 -12q-27 0 -44.5 22t-28 57t-14.5 79.5t-4 89.5q0 38 2 77t5 74.5t6.5 66.5t6.5 54l4 37q1 10 2 23.5t1 24.5v16l-8 -15q-26 -48 -52 -114.5t-47 -139t-34.5 -143.5t-13.5 -128q0 -11 -8.5 -16.5t-20.5 -5.5q-29 0 -35.5 15.5
t-6.5 41.5q0 20 0.5 48.5t2 62t4 70.5t5.5 75l6 81.5t3 76.5q0 30 -2 51t-8 21t-20 -25.5t-31 -65.5l-36.5 -89.5t-36.5 -97t-30 -89t-18 -64.5q-7 -30 -17.5 -63.5t-27.5 -62.5t-42.5 -48t-61.5 -19q-23 0 -46.5 14t-40.5 44q-3 4 -3 8q0 10 13 10q4 0 8.5 -1.5t7.5 -6.5
q13 -22 24 -31t21 -9q23 0 42 24t33.5 64t25 92t17.5 108t10 112t3 104q0 31 -1 59t-3 49.5t-5 34.5t-8 13q-6 0 -13 -12t-14.5 -27.5t-13 -30.5t-8.5 -22z" />
    <glyph glyph-name="N" unicode="N" horiz-adv-x="658" 
d="M550 8q5 -8 9 -8q8 0 18 12.5t20.5 31.5t20.5 42l18.5 44t14 37.5t7.5 21.5t7 6t10.5 -0.5t9.5 -5t4 -8.5t-5 -22t-14.5 -41t-21.5 -50t-26.5 -48t-30.5 -36.5t-32 -14.5q-29 0 -47 25t-28.5 65t-14.5 90t-4 100q0 47 2 95t5 91.5t5 80.5t2 62q0 47 -5 47q-6 0 -16 -16.5
t-21.5 -43t-24.5 -60l-25.5 -68.5l-23.5 -67.5l-19 -56.5q-21 -65 -45 -131t-57 -132q-8 -17 -22.5 -37t-33 -37.5t-40 -29.5t-42.5 -12q-20 0 -40.5 14.5t-37.5 43.5q-3 4 -3 8q0 11 13 11q11 0 16 -9q11 -21 21.5 -29.5t21.5 -8.5q23 0 42 21.5t33.5 58t25.5 85t18 102.5
t10.5 110.5t3.5 109.5q0 27 -1 58.5t-3 59t-5.5 45.5t-8.5 18q-7 0 -14.5 -16.5t-15 -37t-15 -37t-14.5 -16.5t-13.5 5t-6.5 13l7 19q16 44 33 73.5t50 29.5q21 0 35.5 -18.5t23 -48.5t12 -68t3.5 -77q0 -35 -2 -71t-5.5 -69.5t-7.5 -64t-8 -54.5q19 52 35 105l33 105.5
t37 104.5t48 104q4 7 10 15.5t14 16t17.5 12.5t20.5 5q17 0 28 -11t18 -30.5t9.5 -46.5t2.5 -59q0 -41 -3 -87l-6 -94l-6 -95t-3 -89q0 -48 5 -84.5t18 -57.5z" />
    <glyph glyph-name="O" unicode="O" horiz-adv-x="403" 
d="M38 266q0 73 13.5 141t30.5 116q-9 31 -9 63t11 58t34.5 42.5t61.5 16.5q49 0 83 -27.5t55 -73.5t30.5 -104.5t9.5 -121.5q0 -71 -13.5 -135.5t-38 -114.5t-58.5 -79.5t-75 -29.5q-34 0 -59.5 22.5t-42 58t-25 80t-8.5 88.5zM156 48q35 0 66 49t48 137q-1 -4 -4.5 -5.5
t-6.5 -1.5q-9 0 -14 7q-48 64 -87 127t-57 109q-14 -43 -23 -97.5t-9 -110.5q0 -36 6 -74t17 -69t27.5 -51t36.5 -20zM104 572q8 14 17 26.5t17 12.5q6 0 12.5 -6t6.5 -13q0 -5 -13.5 -26t-26.5 -51q13 -50 52 -118t99 -148q4 -8 4 -10v-1q8 42 12 87.5t4 93.5q0 46 -5 90.5
t-18 80t-34.5 57.5t-54.5 22q-29 0 -50.5 -24t-21.5 -73z" />
    <glyph glyph-name="P" unicode="P" horiz-adv-x="457" 
d="M261 693q11 0 22 -8.5t21 -21t17.5 -26.5t11.5 -24q23 36 54 51t57 15q29 0 53 -13t41.5 -34.5t27.5 -50.5t10 -60q0 -29 -11 -61t-32 -58.5t-53 -44t-74 -17.5q-15 0 -30 1.5t-31 6.5q-4 -69 -13 -135.5t-22 -116.5q-5 -19 -16 -42.5t-27.5 -44.5t-38.5 -35t-48 -14
q-23 0 -46.5 14.5t-41.5 42.5q-3 4 -3 8q0 11 13 11q11 0 16 -9q22 -39 46 -39q21 0 38 20t29.5 54t22 79.5t15 96t8.5 103t3 101.5q0 34 -1 73t-4 72t-7.5 54.5t-11.5 21.5t-14 -16.5t-13.5 -36t-13 -36t-12.5 -16.5q-7 0 -13.5 5t-6.5 11v1q0 2 1 4v-1q3 14 9 33.5
t15 37.5t22 31t31 13zM428 641q-19 0 -45 -23t-41 -57q5 -51 5 -97v-92q19 -6 38 -6q32 0 55 15.5t38 39.5t22 52t7 52t-5.5 45t-16 36.5t-25 25t-32.5 9.5z" />
    <glyph glyph-name="Q" unicode="Q" horiz-adv-x="405" 
d="M354 373q0 -51 -7 -101t-20 -94.5t-32 -81t-44 -60.5q23 -23 49 -43t62 -20q13 0 19.5 -4t6.5 -9.5t-6 -9.5t-19 -4q-39 0 -69 20.5t-62 52.5q-15 -9 -29 -12.5t-28 -3.5q-41 0 -67.5 29.5t-42 71.5t-22 88.5t-6.5 79.5q0 69 13.5 134t33.5 118q-6 25 -7.5 58.5t6 63.5
t26.5 51t55 21q48 0 84 -31t59.5 -80t35 -111t11.5 -123zM169 88q12 0 22 -4t19 -11q16 23 30 64t24 92q-2 -2 -9 -2q-9 0 -13 7q-48 65 -83 122.5t-58 113.5q-15 -49 -24.5 -101t-9.5 -107q0 -31 5.5 -70.5t16.5 -74.5t28.5 -59t41.5 -24q16 0 36 17q-14 9 -20 9
q-11 0 -18 4.5t-8.5 9.5t3.5 9.5t17 4.5zM267 242q8 41 12 85t4 89q0 48 -7.5 96.5t-22.5 87t-38.5 62.5t-54.5 24q-15 0 -25.5 -10.5t-17 -26.5t-9.5 -35.5t-3 -36.5q0 -1 1 -4q8 14 16.5 26t15.5 12t13.5 -6t6.5 -13q0 -5 -12.5 -23t-28.5 -53q24 -72 62.5 -139.5
t83.5 -127.5z" />
    <glyph glyph-name="R" unicode="R" horiz-adv-x="659" 
d="M221 576q-4 -7 -12 -7q-7 0 -12 4.5t-5 11.5q0 16 8 36.5t21 38.5t27.5 30t28.5 12q15 0 35 -23.5t37 -71.5q7 15 21 27.5t31 21.5t35.5 14t35.5 5q54 0 81 -33t27 -84q0 -34 -11 -67.5t-32.5 -60.5t-54 -44t-74.5 -17q-1 0 -1.5 0.5t-2.5 0.5l43.5 -145t42 -114
t52 -74.5t74.5 -26.5q8 0 12.5 -4t4.5 -9q0 -8 -13 -8q-48 1 -82.5 19t-59.5 46.5t-42.5 66t-31 78t-26 82t-26.5 79.5q-4 -39 -9.5 -83t-14.5 -88t-22 -84.5t-32 -71.5t-45 -49.5t-60 -18.5q-24 0 -46 13.5t-39 45.5q-3 4 -3 7q0 11 14 11q3 0 7.5 -2t7.5 -7
q11 -19 22.5 -28.5t22.5 -9.5q13 0 25 9.5t21 22.5q24 34 40.5 83.5t27 106.5t15.5 118t5 120q0 31 -0.5 68t-2.5 69t-6 53.5t-10 21.5q-5 0 -11 -9t-12 -22t-11.5 -27t-9.5 -23l-4 -10h-1zM455 642q-13 0 -29 -8t-30 -20t-25 -27t-15 -28q1 -14 1 -23v-17.5t-0.5 -18
t-0.5 -25.5v-33t-2 -33q10 -4 19.5 -6.5t17.5 -2.5q26 0 47.5 15t36.5 39t23.5 52.5t8.5 55.5q0 32 -12.5 56t-39.5 24z" />
    <glyph glyph-name="S" unicode="S" horiz-adv-x="408" 
d="M345 583q0 -18 -13 -18q-5 -1 -10 2t-7 11q-13 51 -31 67.5t-46 14.5q-27 -2 -48 -30t-18 -79q2 -32 15 -62.5t31 -61.5t39 -62t39.5 -63.5t31.5 -67t15 -70.5q2 -37 -7 -68.5t-25.5 -54.5t-40 -37t-49.5 -15q-31 -2 -59.5 7.5t-50.5 29.5t-36.5 50.5t-16.5 70.5
q-1 8 3.5 12t10.5 4q14 2 17 -15q8 -60 35.5 -93.5t75.5 -30.5q18 1 33 13t25.5 31t16 43t4.5 50q-2 35 -15.5 68.5t-32 65.5t-40 63.5t-40 63.5t-31.5 64t-15 65q-2 31 5.5 57t22.5 44.5t35 29.5t44 13q46 3 81 -21.5t52 -90.5z" />
    <glyph glyph-name="T" unicode="T" horiz-adv-x="448" 
d="M90 556q-3 -8 -14 -8q-9 0 -14 6.5t-5 15.5q9 29 22 53t31.5 40.5t44.5 25.5t61 9q29 0 61 -4.5l64.5 -9.5l62.5 -9.5t54 -4.5q34 0 53 11l-2 -1q2 2 8 2t12 -6.5t6 -13.5q0 -6 -7 -10.5t-17.5 -6.5t-22.5 -3t-22 -1q-38 0 -78.5 7.5t-72.5 11.5q-5 -34 -6.5 -74.5
t-1.5 -85.5v-87q0 -23 0.5 -45.5t0.5 -45.5q0 -66 -4.5 -127.5t-18 -109t-37.5 -76t-63 -28.5q-36 0 -71.5 32t-57.5 98h1q-2 4 -2 7q0 10 11 10q5 0 11.5 -3t8.5 -10q17 -47 39 -75t42 -28q22 0 36.5 27.5t22.5 70.5t11.5 95t3.5 100q0 54 -1.5 109.5t-1.5 111.5q0 38 1 74
t6 67q-69 0 -104 -26.5t-51 -84.5z" />
    <glyph glyph-name="U" unicode="U" horiz-adv-x="498" 
d="M28 674q-15 -9 -29 -26.5t-24.5 -39.5t-17 -47t-6.5 -49q0 -11 1 -16q0 -13 -12 -13q-8 0 -12.5 4t-6.5 10t-2.5 12t-0.5 11q0 36 12 70.5t31.5 61.5t43 43.5t47.5 16.5q23 0 39.5 -12t27.5 -32t16.5 -46t5.5 -54q-5 -82 -13.5 -163t-8.5 -165q0 -26 1.5 -55.5t4 -55
t5.5 -42.5t7 -17q5 0 15 25.5t22 66.5t25 93.5t25 106.5t22 105.5t15 89.5q16 79 29 121t37 42q17 0 30.5 -16t13.5 -33q0 -20 -2.5 -51.5t-5 -76.5t-5 -104.5t-2.5 -134.5q0 -52 2 -100.5t6.5 -85.5t13 -59.5t22.5 -22.5q15 0 31.5 24t30.5 53t23.5 52.5t12.5 23.5
q6 -1 15 -1t9 -5q0 -9 -10.5 -37.5t-28 -60t-41 -56t-48.5 -24.5q-33 0 -54.5 32.5t-34 84t-17 114.5t-4.5 125q0 42 1 81t3 72l-17.5 -86.5l-20 -91.5l-21 -90l-20.5 -83h1q0 -3 -5.5 -24t-15.5 -45t-24.5 -43t-32.5 -19q-22 0 -37.5 19t-25.5 44t-15 50t-6 38
q-2 17 -2 35.5v35.5q0 45 3.5 90t8 89.5t8 89.5t3.5 91q0 11 -1 23t-3.5 21.5t-7.5 16t-12 6.5q-6 0 -17 -7z" />
    <glyph glyph-name="V" unicode="V" horiz-adv-x="390" 
d="M33 675q-21 -20 -37 -56t-16 -74v-6q0 -2 0.5 -3t0.5 -3q0 -7 -4 -9t-9 -2q-14 0 -17.5 8t-3.5 19q0 30 9 59.5t24 53t34.5 38t40.5 14.5q38 0 62 -26.5t37.5 -68t18.5 -92t5 -98.5q0 -58 -2.5 -118t-2.5 -117q0 -164 29 -164q10 0 25.5 23t32.5 63t33.5 94t30 116
t22 128t8.5 131q0 76 -18 135h1q-2 4 -2 7q0 10 14 10q12 0 19.5 -17.5t12 -42t6.5 -52t2 -47.5q0 -66 -10.5 -137.5t-26 -138t-33 -122t-32.5 -90.5q-20 -46 -45 -73t-51 -27q-15 0 -30 12.5t-27.5 39.5t-20.5 70t-8 104q0 59 4 128t4 132q0 36 -3 73t-9.5 67.5t-17 50
t-26.5 19.5q-6 0 -12.5 -3.5t-11.5 -8.5v1z" />
    <glyph glyph-name="W" unicode="W" horiz-adv-x="702" 
d="M179 678q22 -32 29.5 -76t7.5 -90q0 -54 -8.5 -121t-18.5 -137.5t-18.5 -139.5t-8.5 -129q0 -15 0.5 -31t2 -29.5t4 -22t7.5 -8.5t14 10t17 24q10 17 23.5 59t28.5 97t29 116.5l26 118.5t20.5 103t10.5 70q3 14 14 14q8 0 15.5 -6.5t7.5 -14.5q-3 -29 -3.5 -52.5
t-0.5 -43.5q0 -19 1.5 -36t5 -37.5t10 -46t16.5 -60.5q24 -90 49 -135.5t46 -45.5q24 0 44 31t35 83t23.5 120t8.5 141q0 62 -8 125.5t-24.5 121t-43 106.5t-63.5 82q-8 8 -8 14q0 12 12 12q5 0 7 -0.5t4 -2.5q42 -37 71.5 -90t48 -115.5t27 -130t8.5 -134.5q0 -83 -10 -156
t-29.5 -127.5t-47 -86.5t-62.5 -32q-27 0 -49 17t-40 43.5t-32 59.5t-24 64t-16 56.5l-9 38.5l-10 -33q-8 -26 -17.5 -64l-20.5 -79.5t-23.5 -82.5t-26.5 -74t-28.5 -53.5t-29.5 -20.5q-21 0 -36 14t-24 37.5t-13 53.5t-4 62q0 22 2.5 55t6 69.5t8 74.5l8.5 70.5t7.5 56.5
t5.5 33q5 29 10.5 77t5.5 97q0 24 -2 47t-6.5 40t-13.5 27.5t-22 10.5q-18 0 -36 -14t-31.5 -35.5t-22 -49t-8.5 -54.5q0 -8 -4.5 -11.5t-9.5 -3.5q-11 0 -14.5 8t-3.5 21q0 34 12.5 65t32 53.5t43 36t45.5 13.5q20 0 38 -8.5t32 -28.5z" />
    <glyph glyph-name="X" unicode="X" horiz-adv-x="640" 
d="M531 3q-34 0 -64.5 25.5t-57 65.5t-48 89.5t-37.5 96.5q-22 -36 -49.5 -76t-60.5 -77.5t-71 -68.5t-81 -49q-6 -2 -11 -2q-10 0 -15 5.5t-5 11.5q0 12 14 18q43 18 79.5 48.5t68.5 68t60.5 80l55.5 85.5l-32 117t-34.5 112t-34.5 84.5t-32 33.5q-10 0 -20.5 -17.5
t-21.5 -56.5v1q-10 -48 -11.5 -69.5t-13.5 -21.5q-11 0 -14 7t-3 17q0 13 3.5 33.5t8.5 42.5q2 7 7.5 24.5t16 35t25.5 31t35 13.5q27 0 50 -28.5t42.5 -71t35.5 -92.5l29 -93l9 -30q22 42 41.5 85.5t36 85l30.5 80l25 69.5q4 9 17 9q7 0 13 -4.5t6 -12.5q0 -3 -2 -11
l-8 -19l-65 -161.5t-80 -167.5q13 -45 30 -97.5t38 -98.5t45.5 -78.5t51.5 -36.5q23 1 41 25t31 52t21.5 51t13.5 23q8 -1 14.5 -7t6.5 -13q-6 -20 -17 -48t-27 -54.5t-37.5 -45t-48.5 -18.5z" />
    <glyph glyph-name="Y" unicode="Y" horiz-adv-x="483" 
d="M151 -132q0 28 12.5 52t34 46t51 42t63.5 41q10 129 11.5 247t8.5 231q-10 -31 -22 -80l-26 -104.5t-30 -111.5t-34 -101.5t-38.5 -74t-42.5 -28.5q-21 0 -34 16t-20 39t-9.5 49t-2.5 46q0 35 2.5 75t6 80.5t6 80t2.5 75.5q0 24 -1.5 47.5t-5.5 42.5t-10.5 30.5
t-15.5 11.5q-13 0 -27.5 -18.5t-27.5 -43.5t-21.5 -49.5t-9.5 -36.5q-2 -10 -14 -10q-8 0 -13.5 5.5t-5.5 13.5q2 13 11.5 42t26 58t40 51t52.5 22q26 0 43 -21t26.5 -54t13.5 -73.5t4 -79.5q0 -47 -3 -95t-7 -90.5l-7 -76t-3 -52.5q0 -29 3.5 -41t8.5 -12t12 10
q15 21 29.5 56.5t27.5 79t25 91l22.5 93l20.5 85t18 67.5l17.5 57t14.5 39.5t14.5 22.5t17.5 7q14 0 25.5 -12t11.5 -29q-2 -29 -2 -87t-1.5 -132t-6 -157t-13.5 -162q32 20 59 45.5t44 55.5q4 5 10 5t11 -3t7.5 -8.5t0.5 -10.5q-18 -38 -55.5 -67.5t-81.5 -55.5
q-8 -55 -21 -104.5t-31 -87t-41 -60t-51 -22.5q-35 0 -57.5 28t-22.5 65zM235 -192q15 9 26.5 29.5t20.5 48t15 60t11 65.5q-56 -35 -90.5 -70.5t-34.5 -77.5q0 -23 10 -42t27 -19q6 0 15 6z" />
    <glyph glyph-name="Z" unicode="Z" horiz-adv-x="445" 
d="M68 605q-4 -4 -11 -4t-12 5t-5 11q0 4 3 7q35 40 82 59t92 19q29 0 55.5 -7t46 -20t31 -32.5t11.5 -43.5q0 -29 -13.5 -56t-34 -51t-46.5 -44.5t-51 -36.5t-47 -28t-34 -18q25 -8 49.5 -14t50.5 -14q46 -16 78 -39t52 -50.5t29 -58t9 -60.5q0 -52 -21.5 -104t-56 -93.5
t-78 -67.5t-86.5 -26q-39 0 -66 25t-27 78q0 34 14 77.5t38.5 90.5t58.5 94t73 87q-18 9 -49 19l-61 19t-51.5 17t-21.5 13q0 8 9.5 15.5t16.5 12.5l-1 -1l5 4l61 50t61.5 57.5t47.5 60t19 58.5q0 30 -22 44.5t-54 14.5q-35 0 -75 -17.5t-69 -51.5zM333 145q0 36 -13 68.5
t-43 57.5q-41 -38 -74 -82.5t-56 -89.5t-35 -87t-12 -76q0 -33 11 -52t31 -19q29 0 62.5 27t62 68.5t47.5 90.5t19 94z" />
    <glyph glyph-name="zero" unicode="0" horiz-adv-x="413" 
d="M204 566q-38 0 -67.5 -18.5t-46.5 -48.5q-3 -6 -13 -6q-7 0 -13.5 5t-6.5 11q0 2 3 7q19 32 53.5 55.5t77.5 23.5q52 0 91 -27.5t64.5 -72t38.5 -100t13 -112.5q0 -56 -12 -107.5t-35.5 -91t-58.5 -63t-82 -23.5q-48 0 -83.5 23.5t-59 60.5t-35 82.5t-11.5 90.5
q0 88 29 153t92 106q8 4 12 4q7 0 13.5 -5.5t6.5 -10.5q0 -2 -2.5 -5t-4.5 -5q-111 -75 -111 -241q0 -36 8.5 -75t25 -72t41.5 -54.5t58 -21.5q34 0 60.5 23t44.5 62t27 90t9 107q0 48 -7.5 93.5t-23 81t-39 57.5t-56.5 24z" />
    <glyph glyph-name="one" unicode="1" horiz-adv-x="191" 
d="M7 521q-2 -1 -6 -1q-8 0 -13.5 5.5t-5.5 11.5q0 2 12.5 10l30 18.5t37 20.5t34.5 16l7 3q6 2 14.5 4.5t16.5 2.5t15.5 -4t7.5 -16v-27.5v-59.5t-0.5 -82t-0.5 -95.5t-0.5 -99t-0.5 -92.5t-0.5 -76.5t-1.5 -51.5q-2 -11 -25 -11q-11 0 -23.5 5t-12.5 15q0 21 0.5 64t1 97
l1 113.5l1 113.5t0.5 97.5v66.5l-17 -10h1l-37.5 -22t-35.5 -16z" />
    <glyph glyph-name="two" unicode="2" horiz-adv-x="469" 
d="M417 385q0 -47 -13.5 -97t-34 -95.5t-45 -83.5t-46.5 -61q45 -13 83 -13q20 0 40.5 3t47.5 11q10 0 17.5 -5t7.5 -13q0 -6 -14.5 -10.5t-32.5 -7.5t-35.5 -4.5t-23.5 -1.5q-29 0 -55.5 5.5t-56.5 15.5q-17 -14 -44.5 -29t-56.5 -15q-18 0 -32.5 6t-24.5 15.5t-15.5 21
t-5.5 22.5q0 17 13.5 29t40.5 12q19 0 42.5 -6.5t50.5 -16.5h-1q4 -1 5.5 -2t5.5 -2q16 18 36.5 55t38 83.5t29.5 98.5t12 99q0 28 -6 54.5t-19 47t-33.5 32.5t-49.5 12q-21 0 -39.5 -9t-33.5 -24t-25 -33.5t-14 -37.5q-2 -9 -12 -9q-7 0 -15 5.5t-8 13.5q8 54 48 87.5
t100 33.5q40 0 72 -14t54.5 -38.5t35 -59t12.5 -75.5zM200 47l-35.5 10.5t-25.5 4.5q-14 0 -20.5 -6t-6.5 -14q0 -11 10 -20.5t27 -9.5q22 0 36.5 9.5t26.5 19.5l2 2z" />
    <glyph glyph-name="three" unicode="3" horiz-adv-x="350" 
d="M188 345q0 -1 7.5 -6t17.5 -10q30 -15 52.5 -36t37.5 -45.5t22.5 -51.5t7.5 -53q0 -29 -9.5 -55.5t-28 -47t-46 -33t-64.5 -12.5q-33 0 -61 15.5t-49 40t-34.5 56t-17.5 63.5q0 12 15 12q6 0 11.5 -4t7.5 -10q4 -27 15 -52.5t25.5 -45t32.5 -31t38 -11.5q21 0 40 11.5
t34 30.5t23.5 43t8.5 49q0 43 -19.5 72t-43.5 49.5t-43.5 35t-19.5 28.5q0 6 14.5 21.5t32.5 39.5t34.5 55.5t20.5 68.5q0 27 -17.5 39t-38.5 12q-23 0 -46.5 -13.5t-30.5 -33.5q-5 -9 -15 -9q-6 0 -12.5 4.5t-6.5 11.5q0 16 11.5 29t28.5 21.5t36 13t35 4.5q37 0 59.5 -9.5
t34.5 -23t15.5 -28.5t3.5 -25q0 -23 -10 -46t-26 -41l-59 -66q-6 -6 -10.5 -11t-7.5 -9q-4 -4 -7 -8z" />
    <glyph glyph-name="four" unicode="4" horiz-adv-x="485" 
d="M409 602q-8 -27 -13 -63t-8 -75t-4.5 -78.5t-1.5 -73.5h17q20 0 34 -3t14 -16q0 -11 -15 -11h-24t-27 2q-2 -47 -3.5 -92t-2 -84t-1 -69t-0.5 -47q0 -15 -8.5 -22t-18.5 -7q-12 0 -23 9.5t-11 25.5q0 17 0.5 47t1.5 69t2.5 85t3.5 94q-33 5 -66 8t-65 8
q-27 -30 -58.5 -48.5t-64.5 -18.5q-29 0 -43 14.5t-14 31.5q0 27 25.5 43t71.5 16h20.5t18.5 -2q18 23 35.5 54t31.5 65t22.5 69.5t8.5 68.5q0 5 -1 11t-1 12q0 8 7 12.5t18 4.5q41 0 41 -49q0 -33 -8.5 -68.5t-23 -69.5t-32 -65t-35.5 -55l56.5 -8l56.5 -8q1 34 3.5 73.5
t6 79t8 78t9.5 70.5q2 8 8.5 11.5t14.5 3.5q13 0 25 -8t12 -24v-1zM125 318q-3 0 -6.5 0.5t-8.5 0.5q-23 0 -42.5 -7t-19.5 -26q0 -13 11 -13q8 0 18.5 6t21 13.5t18.5 15l11 10.5h-3z" />
    <glyph glyph-name="five" unicode="5" horiz-adv-x="424" 
d="M40 118q-3 4 -3 8q0 11 14 11q13 0 17 -10q9 -17 20.5 -34t25.5 -30.5t30 -22t34 -8.5q26 0 46.5 16t35 42.5t22.5 60.5t8 70q0 28 -7.5 59t-23.5 57t-42.5 43.5t-63.5 17.5q-19 0 -37 -5.5t-35 -13.5l-4 -2q-9 0 -9 24q0 31 1 50.5t2.5 33.5t2.5 26.5t1 31.5
q0 16 -2.5 31t-2.5 29q0 8 4.5 10t12.5 2q10 0 21 -4.5t15 -6.5q26 -17 64.5 -28.5t75.5 -11.5q22 0 40.5 5t30.5 16h-1q4 4 11 4q6 0 12 -5t6 -11q0 -9 -10.5 -16t-25.5 -11.5t-31 -6.5t-28 -2q-35 0 -70.5 8.5t-64.5 22.5q2 -15 2 -30v-30q0 -21 -0.5 -40.5t-1.5 -39.5h13
q51 0 90.5 -21.5t66.5 -55.5t41 -75t14 -80t-11.5 -75t-32 -63.5t-49 -44.5t-62.5 -17q-27 0 -51 10t-44.5 27t-37.5 39t-29 46z" />
    <glyph glyph-name="six" unicode="6" horiz-adv-x="314" 
d="M249 610q8 0 13 -4.5t5 -9.5q0 -10 -16 -12q-42 -3 -73 -31t-52 -68.5t-33 -86t-15 -83.5q17 17 41.5 30.5t47.5 13.5q28 0 51.5 -15t40 -40.5t25.5 -59.5t9 -73q0 -35 -8 -66.5t-23 -56.5t-38 -39.5t-53 -14.5q-47 0 -77.5 25.5t-48 65.5t-24.5 88.5t-7 93.5
q0 54 11 114t38 111t72 84.5t114 33.5zM240 212q-3 16 -9.5 36.5t-17 38.5t-25.5 30t-33 12q-12 0 -26 -8t-26 -19.5t-20 -24.5t-8 -24q0 -25 4 -63.5t15 -74.5t30 -61.5t49 -25.5q20 1 33 17.5t21 39.5t11 50t3 49v15t-1 13z" />
    <glyph glyph-name="seven" unicode="7" horiz-adv-x="410" 
d="M362 596q15 0 15 -12q0 -2 -1.5 -5t-3.5 -6q-63 -77 -107 -138.5t-74.5 -124.5t-50.5 -134.5t-35 -166.5q-2 -10 -13 -15t-23 -5q-17 0 -27 6.5t-10 19.5q16 90 36.5 157.5t50 127.5t70 120l94.5 135q-22 -3 -47.5 -5t-54.5 -2q-28 0 -55.5 3t-50.5 10t-40.5 19t-25.5 30
h1q-2 2 -2 5q0 6 5 10t12 4q11 0 16 -9q4 -12 17 -20.5t31 -13.5t40 -7t45 -2q22 0 46.5 1.5t49.5 4t48.5 6t42.5 7.5h1z" />
    <glyph glyph-name="eight" unicode="8" horiz-adv-x="324" 
d="M292 516q0 -32 -18.5 -67t-61.5 -71q18 -29 35 -60t30.5 -62.5t21.5 -62.5t8 -59q0 -25 -9.5 -50t-26.5 -45.5t-41 -33t-53 -12.5q-30 0 -57.5 15t-49 39.5t-34 56t-12.5 64.5q0 36 10.5 66.5t28.5 56t41.5 46.5t49.5 38q-22 35 -41 75t-19 77q0 21 8.5 38.5t22 30.5
t30.5 20.5t34 7.5q20 0 38.5 -8t33 -22.5t23 -34.5t8.5 -43zM250 128q0 28 -7.5 57.5t-19.5 58.5t-26 56t-26 48q-23 -18 -43.5 -37t-36 -41t-24.5 -47t-9 -55q0 -26 9 -52.5t24.5 -47.5t35.5 -34t42 -13q17 0 32 9t26 24t17 34.5t6 39.5zM154 521q0 -30 12.5 -59.5
t27.5 -55.5q35 31 49.5 60t14.5 54q0 32 -17.5 52t-37.5 20q-15 0 -32 -17t-17 -54z" />
    <glyph glyph-name="nine" unicode="9" horiz-adv-x="313" 
d="M56 -14q-9 0 -13.5 4.5t-4.5 9.5q0 10 15 12q43 4 74.5 34.5t53 72t34 87.5t18.5 82q-22 -20 -46 -33t-43 -13q-27 0 -50 15.5t-39.5 41.5t-26 59t-9.5 68q0 33 8.5 65t25 56.5t39.5 39.5t52 15q38 0 66.5 -20t47 -53.5t28 -77.5t9.5 -92q0 -66 -16 -132.5t-46.5 -120
t-75 -87t-101.5 -33.5zM237 333q0 24 -2.5 64.5t-11.5 80.5t-27 69t-50 29q-19 0 -33 -17.5t-23 -42t-13 -52.5t-4 -49q0 -31 7 -57.5t19 -46t27.5 -31t33.5 -11.5t38 15t40 50z" />
    <glyph glyph-name="colon" unicode=":" horiz-adv-x="176" 
d="M96 290q2 1 10 1q12 0 23 -8.5t11 -22.5q0 -11 -9 -21t-24 -10q-12 0 -23 9t-11 23q0 10 6 18t18 11h-1zM92 58q2 1 9 1q12 0 23 -8.5t11 -22.5q0 -11 -9 -21t-23 -10t-24.5 8.5t-10.5 21.5q0 11 7 19.5t18 11.5h-1z" />
    <glyph glyph-name="exclam" unicode="!" horiz-adv-x="170" 
d="M62 624q1 8 8 12t15 4q14 0 24.5 -7.5t10.5 -19.5l-32 -562q-2 -5 -9 -5q-5 0 -10 2t-5 7zM78 14q14 0 22.5 -9.5t8.5 -22.5q0 -14 -11 -22.5t-24 -8.5t-22 9t-9 20q0 15 10 24.5t25 9.5z" />
    <glyph glyph-name="quotedbl" unicode="&#x22;" horiz-adv-x="185" 
d="M90 455l2 3zM90 455l-8 -14q-15 -19 -26.5 -30t-19.5 -17t-13 -8t-8 -2q-4 0 -4 2q0 8 9 23.5t14 28.5q-4 5 -7.5 10.5t-3.5 11.5q0 13 9.5 22.5t23.5 9.5t24 -9.5t10 -22.5v-5zM157 440q-28 -35 -43 -46.5t-22 -11.5q-6 0 -6 3q0 6 7.5 16.5t15.5 35.5q-11 11 -11 22
q0 13 10 22t24 9q13 0 22.5 -9t9.5 -22v-6z" />
    <glyph glyph-name="percent" unicode="%" horiz-adv-x="425" 
d="M277 -47q-18 7 -26 23.5t-8 37.5q0 23 8 48t22 46t33 34.5t41 13.5q32 0 46.5 -19.5t14.5 -42.5t-10 -48t-26 -46.5t-36 -35.5t-40 -14q-10 0 -19 3zM364 140q-8 4 -17 4q-17 0 -32.5 -13.5t-27.5 -33.5t-19.5 -43.5t-7.5 -43.5q0 -19 7.5 -32.5t24.5 -13.5q16 0 32 14
t28 34.5t19.5 44.5t7.5 44q0 14 -3 24t-12 15zM336 637q4 8 11 12.5t13 4.5q8 0 15.5 -4.5t7.5 -12.5q0 -3 -2 -6h1l-319 -670q-5 -8 -13 -12.5t-11 -4.5q-8 0 -16 4.5t-8 12.5q0 2 4 10h-1zM70 459q-18 7 -26 23.5t-8 37.5q0 23 8 48t22 46t33 34.5t41 13.5q33 0 47 -19
t14 -42t-10 -48.5t-26 -47t-36 -35.5t-40 -14q-10 0 -19 3zM157 646q-8 4 -17 4q-17 0 -32.5 -13.5t-27.5 -33.5t-19.5 -43.5t-7.5 -43.5q0 -19 7.5 -32.5t24.5 -13.5q16 0 32 14t28.5 35t20 45t7.5 44q0 30 -16 38z" />
    <glyph glyph-name="quotesingle" unicode="'" horiz-adv-x="109" 
d="M92 448q-30 -40 -47 -53t-24 -13q-6 0 -6 3q0 5 7.5 17.5t15.5 33.5q-11 11 -11 23q0 13 10 22t24 9t23.5 -9t9.5 -22q0 -5 -2 -11z" />
    <glyph glyph-name="period" unicode="." horiz-adv-x="111" 
d="M49 -3q-14 0 -23.5 9t-9.5 22q0 14 9.5 23t23.5 9t23.5 -9t9.5 -23q0 -13 -9.5 -22t-23.5 -9z" />
    <glyph glyph-name="comma" unicode="," horiz-adv-x="136" 
d="M87 5q-15 -19 -26.5 -30t-19.5 -17t-13 -8t-8 -2q-4 0 -4 2q0 8 9 23.5t14 28.5q-4 5 -7.5 11t-3.5 12q0 13 9.5 22t23.5 9t24 -9t10 -22q0 -4 -0.5 -6t-0.5 -3z" />
    <glyph glyph-name="parenleft" unicode="(" horiz-adv-x="274" 
d="M199 632q-32 -8 -55.5 -40.5t-39 -80.5t-23 -105t-7.5 -113q0 -44 4.5 -90.5t16.5 -90.5t32.5 -84t52.5 -70q0 -2 -7 -2q-47 20 -75.5 58.5t-44.5 86.5t-21 101.5t-5 104.5q0 105 19.5 169.5t45.5 100t52 48t39 12.5q4 0 7.5 -0.5t5.5 -0.5q3 -1 4 -1z" />
    <glyph glyph-name="parenright" unicode=")" horiz-adv-x="275" 
d="M55 -34q35 7 62 44.5t46 91.5t28.5 118.5t9.5 126.5q0 37 -3.5 77.5t-13.5 79.5t-27.5 74t-44.5 63q0 2 8 2q42 -19 67 -52t38.5 -73.5t17.5 -86t4 -89.5q0 -72 -11.5 -140.5t-32.5 -122.5q-18 -39 -37 -62.5t-37 -36t-33 -16.5t-25 -4t-13 1q-3 0 -4 1z" />
    <glyph glyph-name="braceleft" unicode="{" horiz-adv-x="312" 
d="M258 631q-32 -1 -49 -10.5t-24.5 -26t-8 -40t-0.5 -52.5q-1 -22 -4.5 -50t-11.5 -54.5t-22 -48.5t-36 -31q36 -34 47 -58.5t11 -50.5q0 -17 -2 -36.5t-2 -42.5q0 -25 3.5 -51.5t14 -49t28.5 -39t47 -22.5q3 0 7 -2t4 -4q0 -5 -20 -5q-44 0 -70 17.5t-39.5 43.5t-17 56.5
t-3.5 57.5q0 20 2 35t4 27t4 22t2 19q0 15 -7.5 32.5t-30.5 47.5l-1 3q-3 3 -3 4l6 6q29 23 36 51.5t7 61.5q0 8 -0.5 16t-0.5 17v35q0 30 2 54.5t11 42t28 27.5t52 10q20 0 33 -4t13 -6t-9 -2z" />
    <glyph glyph-name="braceright" unicode="}" horiz-adv-x="325" 
d="M84 -30q34 1 50 10t22.5 25.5t7 40t4.5 52.5q1 23 3.5 56t10 65t20.5 58.5t35 35.5q-32 32 -40 55.5t-8 50.5v25q0 7 0.5 15t0.5 17q0 25 -3.5 50.5t-13.5 47.5t-28 37.5t-46 21.5q-3 0 -7 1t-4 3q0 6 17 6q45 0 70.5 -17.5t38.5 -43.5t16.5 -57t3.5 -58q-2 -24 -6 -42
t-4 -34q0 -18 7.5 -35.5t28.5 -46.5q0 -3 -6 -6h1q-28 -22 -35.5 -56t-7.5 -72q0 -11 0.5 -22t0.5 -22v-39q0 -30 -2 -54.5t-11 -42.5t-27.5 -28t-52.5 -10q-19 0 -32 4t-13 6q0 1 1 1t2 1q1 0 2.5 0.5t3.5 0.5z" />
    <glyph glyph-name="asciitilde" unicode="~" horiz-adv-x="379" 
d="M55 191q-4 2 -12 11t-8 10q0 2 4 2q1 0 2 -0.5t2 -0.5q17 -17 37 -22.5t32 -5.5q13 0 29 5t32.5 11t33 11t30.5 5q39 0 78 -36l24 -23q-5 3 -17.5 9l-26 12t-25 10.5t-13.5 4.5q-9 0 -22 -5.5l-29 -12t-34 -12t-37 -5.5q-20 0 -39 7t-41 25zM342 156l-1 1q-1 0 -2 1z" />
    <glyph glyph-name="plus" unicode="+" horiz-adv-x="372" 
d="M165 434q1 7 10 7q5 0 9.5 -2t5.5 -5l-1 -139h153q12 -2 14 -13q2 -6 -1 -10.5t-11 -4.5h-154q1 -38 0 -76t0 -76q-2 -3 -10 -3q-12 0 -16 9l1 146q-35 0 -71.5 0.5t-71.5 0.5q-12 0 -14 11q-2 6 1 11.5t11 5.5l145 -1v139z" />
    <glyph glyph-name="equal" unicode="=" horiz-adv-x="385" 
d="M63 110q-15 0 -15 14q0 7 6 13t15 7l268 3q7 0 11 -4.5t4 -9.5q0 -8 -5.5 -14t-14.5 -6zM69 231q-8 0 -11.5 4.5t-3.5 9.5q0 8 5 14t15 6l268 -1q8 0 11.5 -4.5t3.5 -10.5t-5 -12t-14 -6h-269z" />
    <glyph glyph-name="asterisk" unicode="*" horiz-adv-x="294" 
d="M90 502q-8 0 -12.5 4.5t-4.5 9.5t4.5 9.5t12.5 4.5h49l-38 34v-1q-6 4 -6 10t4.5 10.5t12.5 4.5q5 0 7 -0.5t4 -2.5l38 -35v53q0 7 5 10.5t12 3.5q5 0 10.5 -3.5t5.5 -10.5v-45l27 31q3 5 12 5q8 0 13 -4.5t5 -9.5q0 -3 -4.5 -9t-11 -13.5t-13.5 -14.5t-11 -12h50
q8 0 12.5 -4.5t4.5 -10.5q0 -5 -4.5 -9.5t-12.5 -4.5h-46l36 -31q6 -6 6 -11q0 -14 -17 -14q-6 0 -11 4l-35 30v-48q0 -7 -5.5 -10.5t-10.5 -3.5q-7 0 -12 3.5t-5 10.5v41l-27 -30q-5 -5 -13 -5q-6 0 -12 4.5t-6 9.5q0 3 5 8l36 42h-54z" />
    <glyph glyph-name="slash" unicode="/" horiz-adv-x="406" 
d="M335 674q2 5 7.5 7.5t11.5 2.5q10 0 17 -5t7 -13q0 -3 -2 -7h1l-309 -664q-10 -16 -22 -16q-9 0 -17.5 5.5t-8.5 13.5q0 2 0.5 3.5t2.5 5.5h-1z" />
    <glyph glyph-name="hyphen" unicode="-" horiz-adv-x="331" 
d="M42 232q-8 0 -12.5 5t-4.5 12t4.5 12t13.5 5l252 1q8 0 13 -5t5 -12t-5 -12.5t-14 -5.5h-252z" />
    <glyph glyph-name="less" unicode="&#x3c;" horiz-adv-x="379" 
d="M313 59q0 -4 -5 -7.5t-10 -3.5q-7 0 -8 3q-48 46 -92.5 70.5t-80 36t-57.5 15t-25 9.5q1 4 18 12.5t30 13.5l10 4q41 22 80.5 48.5t69.5 70.5q7 -2 19.5 -4.5t16.5 -2.5l5 1q-16 -23 -38.5 -43.5t-46.5 -38t-47.5 -31t-41.5 -22.5l-13 -6q39 -10 93.5 -36.5t119.5 -85.5z
M252 336q-7 -2 -8 -3t-1 -2l-4 2q0 3 13 3z" />
    <glyph glyph-name="greater" unicode="&#x3e;" horiz-adv-x="359" 
d="M44 37q55 64 106.5 94t89.5 42q-19 7 -45 19t-54 28.5t-55.5 37.5t-48.5 46q0 3 10.5 6.5t18.5 3.5q4 0 6 -1l4 -2q37 -43 79 -67t89 -44q2 -2 11 -5l19.5 -6.5t19 -7t9.5 -7.5q-2 -4 -13.5 -7t-30.5 -8.5t-43.5 -15.5t-51.5 -28q-24 -17 -48.5 -38t-49.5 -50
q-2 -2 -7 -2t-11 3t-6 6q0 1 2 3z" />
    <glyph glyph-name="at" unicode="@" horiz-adv-x="648" 
d="M342 249q-5 28 -5 50v5q-1 -1 -1 -2q0 1 1 2l-1 1q-13 -28 -28 -48t-29 -32.5t-26 -18t-19 -5.5q-14 0 -24 9t-16 22t-8.5 28.5t-2.5 28.5q0 28 8 54.5t22 47.5t33 33.5t40 12.5q23 0 41 -12t23 -35l2 5l-1 -1q1 6 7.5 9.5t15.5 3.5q12 0 24.5 -7t12.5 -21q0 -5 -2 -17
l-4.5 -27t-5 -32t-3.5 -33q-2 -36 9.5 -53.5t30.5 -19t42 10.5t42.5 34.5t33 54.5t13.5 69q0 48 -15.5 94.5t-44.5 83t-70.5 59.5t-94.5 23q-60 0 -106.5 -25.5t-79 -68t-49 -97t-16.5 -111.5q0 -67 21.5 -121.5t57 -93.5t80.5 -60.5t92 -21.5q55 0 105.5 27.5t83.5 77.5
q2 4 10 4q5 0 10 -3.5t5 -8.5q0 -3 -2 -5q-34 -57 -93 -85t-126 -28q-54 0 -107 20t-95.5 60t-69 101t-26.5 142q0 65 21 122.5t60 100.5t93.5 68t121.5 25q61 0 109.5 -24.5t82.5 -64t52 -89.5t18 -102q0 -45 -16.5 -82.5t-42 -63.5t-56 -40t-58.5 -12t-50 22t-30 60z
M322 347q3 10 3 18q0 17 -6.5 26t-15.5 9q-15 0 -26.5 -15t-19.5 -36t-12.5 -43.5t-4.5 -37.5q0 -28 7 -28q5 0 14.5 11.5t20.5 28l22 34.5t18 32v1z" />
    <glyph glyph-name="bracketleft" unicode="[" horiz-adv-x="321" 
d="M230 639q5 0 7.5 -2.5t2.5 -4.5q0 -6 -8 -6l-99 1v-657h47q24 0 44.5 -1.5t20.5 -8.5q0 -6 -9 -6l-146 2q-11 0 -11 7q0 169 2 335.5t3 335.5q2 7 9 7z" />
    <glyph glyph-name="bracketright" unicode="]" horiz-adv-x="323" 
d="M93 -44q-11 0 -11 8q0 6 9 6l100 -1v661h-48q-13 0 -25.5 0.5t-23 1t-17 2t-6.5 4.5q0 6 9 6l147 -1q4 0 8 -2.5t4 -5.5q0 -122 1.5 -245t1.5 -245q0 -26 -0.5 -58.5t-2 -62t-3.5 -49.5t-6 -20z" />
    <glyph glyph-name="caron" unicode="&#x2c7;" horiz-adv-x="178" 
d="M153 557q6 0 7 -1t1 -3q-24 -17 -42 -37t-30 -46l-4 -8l-7 -7q-2 -1 -6 -1q-3 0 -3 1q-5 17 -9 29t-9.5 21t-13 18t-19.5 20l3 -1l4 4.5l8.5 9.5t8 10t3.5 6q19 -20 26.5 -43t11.5 -40q13 22 30 38t37 30h3z" />
    <glyph glyph-name="circumflex" unicode="&#x2c6;" horiz-adv-x="170" 
d="M22 479q-7 0 -7 5q25 17 43 36t28 44l9 12q1 1 5 1q3 0 4 -1q4 -16 8 -27t9.5 -20.5t13 -18t18.5 -18.5q0 -2 -3 -7t-7 -9.5t-7.5 -8t-4.5 -3.5q-9 0 -16 11.5t-12.5 26t-9 27t-3.5 14.5q-12 -21 -28 -36.5t-35 -26.5z" />
    <glyph glyph-name="grave" unicode="`" horiz-adv-x="142" 
d="M115 530q-29 0 -54.5 12t-43.5 50q-2 4 -2 6q0 6 8 9.5t16 3.5q5 0 10 -1t7 -5q14 -29 25.5 -44t35.5 -27z" />
    <glyph glyph-name="acute" unicode="&#xb4;" horiz-adv-x="142" 
d="M11 534q24 12 35.5 27t25.5 44q2 4 6.5 5t10.5 1q8 0 16 -3.5t8 -9.5q0 -2 -2 -6q-18 -37 -43.5 -49.5t-54.5 -12.5z" />
    <glyph glyph-name="asciicircum" unicode="^" horiz-adv-x="295" 
d="M52 425q-2 -2 -4 -2h-4q-11 0 -11 7q0 1 3 4q47 42 70 81t33 69.5t12.5 49t8.5 18.5q4 0 6 -1.5t4 -3.5q21 -37 31 -62.5t20.5 -46.5t25.5 -39.5t46 -40.5q4 -4 4 -9q0 -11 -5 -19t-9 -8q-2 0 -2 1q-24 19 -43.5 42t-33.5 45.5t-24.5 43.5t-16.5 37q-10 -35 -34.5 -76
t-77.5 -90h1z" />
    <glyph glyph-name="ring" unicode="&#x2da;" horiz-adv-x="161" 
d="M127 620q9 -11 13 -24t4 -26q0 -32 -19.5 -52.5t-45.5 -20.5q-12 0 -23.5 6t-20.5 16t-14.5 23t-5.5 28q0 28 19 49.5t46 21.5t47 -21zM112 612q-14 17 -32 17q-19 0 -32.5 -17.5t-13.5 -37.5t14.5 -37t31.5 -17t31.5 15.5t14.5 39.5q0 20 -14 37z" />
    <glyph glyph-name="cedilla" unicode="&#xb8;" horiz-adv-x="155" 
d="M51 11q1 4 5 6t9 2q7 0 12 -5.5t4 -9.5q-9 -26 -12 -38.5t-3 -17.5h14q30 0 44 -14.5t14 -31.5q0 -16 -8 -27t-20.5 -18t-28 -10.5t-29.5 -3.5q-10 0 -23 2t-13 8q0 7 9 7q5 0 12 -1t12 -1q21 0 38.5 11t17.5 36q0 12 -8.5 21.5t-25.5 9.5q-5 0 -10.5 -1t-10.5 -1
q-18 0 -18 12q0 4 3 17.5t16 48.5v-1z" />
    <glyph glyph-name="divide" unicode="&#xf7;" horiz-adv-x="350" 
d="M37 221q-11 0 -16.5 7.5t-5.5 15.5q0 6 4.5 11t13.5 5l279 1q10 0 15.5 -7.5t5.5 -15.5q0 -6 -4.5 -11t-12.5 -5zM177 169q14 0 23 -9t9 -22q0 -14 -11.5 -23t-23.5 -9q-15 0 -23 9t-8 23q0 13 10 22t24 9zM179 374q14 0 23.5 -9t9.5 -23q0 -13 -10 -22t-24 -9t-22.5 9.5
t-8.5 23.5q0 13 9 21.5t23 8.5z" />
    <glyph glyph-name="ellipsis" unicode="&#x2026;" horiz-adv-x="354" 
d="M302 -7q-14 0 -24 9.5t-10 22.5t10 22t24 9t23.5 -9t9.5 -22t-9.5 -22.5t-23.5 -9.5zM174 0q-14 0 -24 9t-10 23q0 13 10 22t24 9q13 0 22.5 -9t9.5 -22q0 -14 -9.5 -23t-22.5 -9zM46 -2q-14 0 -24 9t-10 22q0 14 10 23t24 9t23.5 -9t9.5 -23q0 -13 -9.5 -22t-23.5 -9z
" />
    <glyph glyph-name="multiply" unicode="&#xd7;" horiz-adv-x="292" 
d="M249 423h-1q5 5 12 5q5 0 10 -4t5 -9q0 -3 -5 -8l-111 -108l104 -109q0 -5 -7 -5q-5 0 -8 2l-98 102l-106 -101h1q-4 -4 -12 -4q-6 0 -12 4t-6 9q0 3 4 7l111 107l-104 112q0 5 8 5q4 0 7 -1l100 -108z" />
    <glyph glyph-name="question" unicode="?" horiz-adv-x="385" 
d="M24 482q2 -2 2 -5q0 -7 -12 -7q-7 0 -12 10t-8 22.5t-4.5 25.5t-1.5 19q0 34 14 62t37.5 47.5t55 30.5t66.5 11q41 0 73.5 -15t55 -39t34.5 -55t12 -64q0 -32 -14 -63t-34 -59t-42.5 -52l-39.5 -42l-39.5 -45t-34.5 -50t-24 -59.5t-9 -72.5q0 -14 2 -30t2 -33
q0 -8 -14 -8q-7 0 -11.5 6t-6.5 15.5t-3 20.5t-1 21q0 52 7 89.5t20 66.5t30.5 52t39 46.5l45.5 51t49 65.5q14 21 21.5 47.5t7.5 49.5q0 28 -9.5 53t-26.5 44t-40.5 29.5t-51.5 10.5q-32 0 -58.5 -11t-45.5 -29.5t-30 -44t-11 -54.5q0 -14 2.5 -28.5t8.5 -29.5h-1zM89 -9
q11 0 19 -7.5t8 -17.5t-6.5 -15t-16.5 -5t-19 7t-9 17q0 21 24 21z" />
    <glyph glyph-name="semicolon" unicode=";" horiz-adv-x="196" 
d="M127 12q-14 -34 -27.5 -41.5t-20.5 -7.5h-7q-6 0 -6 2q0 1 6 4.5t9 28.5q-8 4 -13.5 12t-5.5 16q0 12 10.5 21.5t24.5 9.5t22.5 -10.5t8.5 -24.5q0 -2 -0.5 -3t-0.5 -2v-5zM84 292q3 1 11 1q14 0 23.5 -9t9.5 -22q0 -12 -9 -21.5t-23 -9.5t-24.5 9.5t-10.5 23.5
q0 8 7 16.5t17 11.5h-1z" />
    <glyph glyph-name="underscore" unicode="_" horiz-adv-x="371" 
d="M41 -18q-9 0 -13.5 5t-4.5 12t4.5 12t13.5 5l204 1q8 0 12.5 -5t4.5 -11q0 -7 -4.5 -12.5t-13.5 -5.5z" />
    <glyph glyph-name="bar" unicode="|" horiz-adv-x="79" 
d="M16 730q0 9 7 13.5t16 4.5t15 -3.5t6 -11.5l4 -795q-1 -8 -8.5 -13t-17.5 -5q-9 0 -15 4.5t-6 13.5z" />
    <glyph glyph-name="backslash" unicode="\" horiz-adv-x="486" 
d="M32 644h1q-3 4 -3 9q0 8 8.5 13t17.5 5q5 0 11 -3.5t11 -11.5l308 -664h-1q2 -4 2 -7q0 -8 -7 -13t-16 -5q-6 0 -11.5 2.5t-7.5 7.5z" />
    <glyph glyph-name="hungarumlaut" unicode="&#x2dd;" horiz-adv-x="222" 
d="M39 541q16 12 25 24.5t22 37.5q1 1 4 1l5.5 -2t12 -4t12 -4.5t5.5 -3.5q-11 -20 -26 -33.5t-30.5 -21.5t-28 -12t-16.5 -4q-8 0 -8 4l4 -2q1 3 8.5 10.5t10.5 9.5zM119 541q16 12 24.5 24.5t21.5 37.5q1 1 4 1l5.5 -2t12 -4t12 -4.5t5.5 -3.5q-11 -20 -26 -33.5
t-30 -21.5t-27.5 -12t-16.5 -4q-8 0 -8 4l4 -2q1 3 8.5 10.5t10.5 9.5z" />
    <glyph glyph-name="ogonek" unicode="&#x2db;" horiz-adv-x="155" 
d="M104 12q13 -35 16 -48.5t3 -17.5q0 -12 -18 -12q-5 0 -10.5 1t-10.5 1q-18 0 -26 -9.5t-8 -21.5q0 -25 17.5 -36t37.5 -11q5 0 10.5 1t13.5 1q3 0 6 -2t3 -5q0 -6 -12.5 -8t-22.5 -2q-15 0 -30.5 3.5t-28 10.5t-21 18t-8.5 27q0 17 14.5 31.5t44.5 14.5q12 0 16 -1
q0 3 -3 14.5t-14 44.5h1q-1 1 -1 2q0 4 5.5 7.5t10.5 3.5q10 0 14 -7h1z" />
    <glyph glyph-name="breve" unicode="&#x2d8;" horiz-adv-x="161" 
d="M140 577q5 0 5 -2q0 -31 -19.5 -53t-48.5 -22q-19 0 -31 7t-18.5 17.5t-9 24t-2.5 26.5q0 2 5 2h9q5 0 5 -2q1 -23 13 -37.5t32 -14.5t33.5 16t13.5 36q0 2 4 2h9z" />
    <glyph glyph-name="quotesinglbase" unicode="&#x201a;" horiz-adv-x="150" 
d="M107 7q-15 -19 -26.5 -30t-19.5 -17t-13 -8t-8 -2q-4 0 -4 2q0 8 9 23.5t14 28.5q-4 5 -7.5 11t-3.5 12q0 13 9.5 22t23.5 9t24 -9t10 -22q0 -4 -0.5 -6t-0.5 -3z" />
    <glyph glyph-name="quotedblbase" unicode="&#x201e;" horiz-adv-x="181" 
d="M87 9q-29 -36 -44 -46.5t-22 -10.5q-5 0 -5 2q0 8 9 23.5t14 28.5q-4 5 -7.5 11t-3.5 12q0 13 9.5 22t23.5 9t24 -9t10 -22q0 -4 -0.5 -6t-0.5 -3zM157 9q-29 -36 -43.5 -46.5t-21.5 -10.5q-5 0 -5 2q0 8 9 23.5t14 28.5q-4 5 -7.5 11t-3.5 12q0 13 9.5 22t23.5 9
t23.5 -9t9.5 -22q0 -4 -0.5 -6t-0.5 -3z" />
    <glyph glyph-name="bullet" unicode="&#x2022;" horiz-adv-x="161" 
d="M127 384q9 -11 13 -24t4 -26q0 -32 -19 -51.5t-45 -19.5t-45.5 21t-19.5 50q0 28 19 50t46 22q28 0 47 -22z" />
    <glyph glyph-name="tilde" unicode="&#x2dc;" horiz-adv-x="253" 
d="M33 511q-2 1 -5 3.5t-5 4.5q-3 3 -5 6l9 1q0 -5 6 -8t14.5 -5t16 -3.5t10.5 -1.5q9 0 20 3.5t23 8t23.5 8t21.5 3.5q27 0 57 -27v1q6 -5 13 -12.5t6 -7.5q-1 -1 -5 -1q-5 0 -12.5 4.5t-15.5 10t-15.5 10t-13.5 4.5q-8 0 -17 -4l-19.5 -8.5t-23.5 -8.5t-28 -4
q-29 0 -56 23h1z" />
    <glyph glyph-name="endash" unicode="&#x2013;" horiz-adv-x="371" 
d="M33 255q-9 0 -13.5 5t-4.5 11q0 7 5 12t14 5l303 1q8 0 12.5 -5t4.5 -11t-4.5 -11.5t-13.5 -5.5z" />
    <glyph glyph-name="emdash" unicode="&#x2014;" horiz-adv-x="468" 
d="M33 255q-8 0 -12.5 5t-4.5 11q0 7 5 12t13 5l399 1q8 0 12.5 -5t4.5 -11t-4.5 -11.5t-13.5 -5.5z" />
    <glyph glyph-name="quotedblleft" unicode="&#x201c;" horiz-adv-x="194" 
d="M25 482q27 34 42 45t23 11q6 0 6 -2q0 -5 -7 -16.5t-16 -34.5q4 -5 7.5 -11t3.5 -12q0 -12 -9.5 -21t-23.5 -9t-24 9t-10 21q0 7 1 9zM109 482q26 34 41 45t23 11q6 0 6 -2q0 -5 -7 -16.5t-16 -34.5q4 -5 7.5 -11t3.5 -12q0 -12 -9.5 -21t-22.5 -9q-14 0 -24 9t-10 21
q0 7 1 9z" />
    <glyph glyph-name="quotedblright" unicode="&#x201d;" horiz-adv-x="194" 
d="M172 442q-15 -19 -26 -30t-19 -17t-13 -8t-8 -2q-4 0 -4 2q0 8 9 23.5t14 28.5q-4 5 -7.5 10.5t-3.5 11.5q0 13 9.5 22t22.5 9q14 0 24 -9t10 -22q0 -4 -0.5 -6t-0.5 -3zM89 442q-15 -19 -26.5 -30t-19.5 -17t-13 -8t-8 -2q-4 0 -4 2q0 8 9 23.5t14 28.5q-4 5 -7.5 10.5
t-3.5 11.5q0 13 9.5 22t23.5 9t24 -9t10 -22q0 -4 -0.5 -6t-0.5 -3z" />
    <glyph glyph-name="quoteleft" unicode="&#x2018;" horiz-adv-x="110" 
d="M21 465q27 34 42 45t23 11q6 0 6 -2q0 -5 -7 -16.5t-16 -34.5q4 -5 7.5 -11t3.5 -11q0 -13 -9.5 -22t-23.5 -9t-24 9t-10 22q0 6 1 8z" />
    <glyph glyph-name="quoteright" unicode="&#x2019;" horiz-adv-x="110" 
d="M89 442q-15 -19 -26.5 -30t-19.5 -17t-13 -8t-8 -2q-4 0 -4 2q0 8 9 23.5t14 28.5q-4 5 -7.5 10.5t-3.5 11.5q0 13 9.5 22t23.5 9t24 -9t10 -22q0 -4 -0.5 -6t-0.5 -3z" />
    <glyph glyph-name="dieresis" unicode="&#xa8;" horiz-adv-x="225" 
d="M176 494q-14 0 -23.5 9t-9.5 23q0 13 9.5 22t23.5 9t23.5 -9t9.5 -22q0 -14 -9.5 -23t-23.5 -9zM49 492q-14 0 -24 9t-10 22q0 14 10 23t24 9t23.5 -9t9.5 -23q0 -13 -9.5 -22t-23.5 -9z" />
    <glyph glyph-name="guilsinglright" unicode="&#x203a;" horiz-adv-x="376" 
d="M17 63q76 79 145 117t119 52q-21 5 -54.5 20t-70 37t-71.5 49.5t-58 56.5q0 5 14 9t25 4q4 0 6.5 -1t4.5 -2q43 -52 96.5 -83t110.5 -55q4 -1 16 -5.5l25.5 -9.5t24 -10.5t10.5 -8.5q-1 -4 -29.5 -10.5t-73.5 -24.5t-101.5 -52.5t-113.5 -94.5q-3 -3 -9 -3
q-5 0 -11.5 3.5t-6.5 7.5q0 2 2 4z" />
    <glyph glyph-name="guilsinglleft" unicode="&#x2039;" horiz-adv-x="376" 
d="M358 393q-38 -40 -74.5 -68.5t-70.5 -48.5t-64 -32.5t-55 -19.5q23 -12 56.5 -27t68.5 -34.5t69 -44.5t59 -57q0 -5 -13.5 -9t-24.5 -4q-10 0 -11 3q-43 51 -96.5 82t-110.5 56q-4 1 -16 5t-25.5 9.5t-24 10.5t-10.5 8q1 3 14 6.5t35 10t52 17.5t65.5 30t74 48t77.5 71
q3 3 8 3q6 0 12.5 -3.5t6.5 -8.5v-1z" />
    <glyph glyph-name="guillemotleft" unicode="&#xab;" horiz-adv-x="517" 
d="M340 393q-35 -41 -69 -70t-65.5 -48.5t-60 -31.5t-52.5 -19q24 -11 59 -25.5t72.5 -35t74.5 -46t65 -56.5q0 -5 -13 -9t-24 -4q-10 0 -11 3q-48 52 -105.5 82.5t-118.5 56.5l-18.5 6t-25 8.5t-22 9t-10.5 7.5q0 6 27.5 12t70.5 23.5t96 52t104 96.5q3 3 8 3q8 0 13 -5.5
t5 -9.5zM480 394q-35 -41 -68.5 -70t-65 -48.5t-60.5 -31.5t-53 -19q24 -11 59 -25.5t72.5 -35t74.5 -46t65 -56.5q0 -5 -13 -9t-24 -4q-10 0 -11 3q-48 52 -105.5 82.5t-118.5 56.5l-18.5 6t-25 8.5t-22 9t-10.5 7.5q0 4 12.5 7.5l34.5 10t51 17.5t62 30.5t68.5 48
t69.5 70.5q3 3 8 3q8 0 13 -5.5t5 -9.5z" />
    <glyph glyph-name="guillemotright" unicode="&#xbb;" horiz-adv-x="517" 
d="M173 64q35 40 69.5 68.5t66.5 49t60.5 33t52.5 19.5l-20 6q-25 10 -58 25t-67.5 34.5t-67.5 43.5t-58 53q0 5 14 9t24 4q5 0 7 -1l4 -2q45 -51 105 -83.5t117 -55.5l18.5 -6t25.5 -9t22.5 -9.5t10.5 -7.5q-2 -6 -28.5 -11t-68.5 -21.5t-95.5 -50.5t-107.5 -100
q-3 -3 -8 -3q-6 0 -13 3.5t-7 8.5q0 1 2 3zM34 63q34 39 68 67.5t66 49t61 33.5t53 20l-20 6q-25 10 -57.5 25t-67 34.5t-68 43.5t-58.5 53q0 5 13.5 9t23.5 4q5 0 7.5 -1t4.5 -2q45 -51 105 -83.5t117 -55.5l18.5 -6t25.5 -9t22.5 -9.5t10.5 -7.5q-2 -6 -28.5 -11
t-68.5 -21.5t-95.5 -50.5t-108.5 -100q-3 -3 -8 -3q-6 0 -12 3.5t-6 8.5v1z" />
    <glyph glyph-name="fraction" unicode="&#x2044;" horiz-adv-x="441" 
d="M354 674q2 5 7.5 7.5t11.5 2.5q10 0 17 -5t7 -13q0 -3 -2 -7h1l-309 -664q-10 -16 -22 -16q-9 0 -17.5 5.5t-8.5 13.5q0 2 0.5 3.5t2.5 5.5h-1z" />
    <glyph glyph-name="numbersign" unicode="#" horiz-adv-x="672" 
d="M294 573q3 9 18 9q18 0 18 -15l-40 -145h154l42 150q3 10 18 10q17 0 17 -16l-40 -145h75q18 0 35.5 -0.5t31.5 -1t22.5 -2.5t8.5 -5q0 -8 -12 -8h-165l-51 -188h161q11 0 11 -9q0 -8 -11 -8h-166l-48 -174q-3 -10 -19 -10q-17 0 -17 15l47 169h-154l-48 -175
q-2 -5 -7.5 -7.5t-10.5 -2.5q-8 0 -13.5 3.5t-5.5 8.5v1q0 1 1 3l46 169h-165q-11 0 -11 8q0 9 11 9h170l52 189q-41 0 -81.5 0.5t-81.5 0.5q-10 0 -10 8t10 8h167zM285 404l-50 -188h153l51 188h-154z" />
    <glyph glyph-name="ampersand" unicode="&#x26;" horiz-adv-x="723" 
d="M727 -129q-14 -3 -28 -5t-30 -2q-45 0 -98.5 18.5t-114.5 63.5q-30 -30 -73 -47.5t-90 -17.5q-83 0 -130.5 54t-47.5 145q0 33 9 66t23.5 63.5t34 58.5t40.5 52q-17 39 -28 84t-11 89q0 25 6.5 54t20.5 54t37.5 41t56.5 16q34 0 58.5 -28t24.5 -81q0 -32 -9 -61t-24 -56
t-34 -52l-38 -49q17 -41 37.5 -85t44.5 -87t51.5 -83t57.5 -74q25 37 43.5 93.5t18.5 114.5q0 29 -6 58t-17.5 52t-27 37.5t-34.5 14.5q-17 0 -33 -11.5t-29.5 -30t-23.5 -43t-14 -50.5q-2 -8 -11 -8q-5 0 -9.5 3.5t-4.5 9.5q3 30 15 57.5t29 48t37.5 32.5t42.5 12
q24 0 44.5 -15.5t35.5 -41.5t23.5 -59t8.5 -67q0 -30 -6.5 -61.5t-17 -60.5t-24 -55.5t-28.5 -46.5q27 -26 55.5 -44.5t56.5 -31t52.5 -18.5t44.5 -6q8 0 15.5 2t15.5 2q12 0 12 -10q0 -7 -10 -8zM321 -91q33 0 63.5 15t54.5 39q-35 31 -65 70t-55.5 82t-46 86.5t-35.5 83.5
q-32 -38 -51.5 -78.5t-19.5 -93.5q0 -32 9 -68t28 -66t48.5 -50t69.5 -20zM273 367l32 37t28.5 40.5t20.5 47t8 57.5q0 44 -17.5 67.5t-40.5 23.5q-20 0 -33.5 -11t-22 -27.5t-12.5 -36t-4 -36.5q0 -42 12 -85t26 -80z" />
    <glyph glyph-name="scaron" unicode="&#x161;" horiz-adv-x="169" 
d="M84 305q-20 -5 -27 -24t-7 -42q0 -37 8 -67.5t15 -50.5l5 -14q25 14 43.5 32.5t41.5 48.5q3 5 12 5q6 0 11.5 -3.5t5.5 -8.5q0 -4 -3 -8l-29.5 -36t-24 -26t-24.5 -19.5t-29 -17.5q1 -5 1 -11v-11q0 -20 -4.5 -40t-14.5 -37t-27 -27.5t-42 -10.5q-20 0 -30.5 13t-10.5 33
q0 29 20 55t49 42q-1 10 -6 25.5t-10.5 34.5t-10 41t-4.5 45q0 19 4 38.5t14 35t26 25t40 9.5q3 0 10 -4.5t7 -11.5q0 -3 -2 -5.5t-4 -6.5zM16 -19q8 14 9.5 31.5t1.5 35.5q-19 -13 -31.5 -32t-12.5 -33q0 -18 12 -18q9 0 21 16zM148 556q6 0 7 -1t1 -3q-25 -17 -43 -37
t-29 -46l-4 -8l-7 -7q-2 -1 -6 -1q-3 0 -3 1q-5 17 -9 29t-9.5 21t-13 18t-19.5 20l3 -1l4 4t8.5 9.5l8 10t3.5 5.5q19 -20 26.5 -42.5t11.5 -39.5q13 22 29.5 38t37.5 30h3z" />
    <glyph glyph-name="exclamdown" unicode="&#xa1;" horiz-adv-x="295" 
d="M73 -33q-6 -16 -28 -16q-11 0 -20 5.5t-9 15.5q0 4 2 8h-1l195 555q5 11 12 11q5 0 9 -2.5t4 -7.5zM244 578q-14 0 -23.5 9.5t-9.5 22.5q0 14 10.5 22t24.5 8q13 0 22.5 -9t9.5 -21q0 -14 -10 -23t-24 -9z" />
    <glyph glyph-name="cent" unicode="&#xa2;" horiz-adv-x="228" 
d="M60 313q0 8 5 12.5t13 4.5t13 -4t5 -12v-39q0 -2 -3 -2q5 0 16 -0.5t21.5 -2t18.5 -5t8 -9.5q0 -12 -14 -12l-15 3q-8 2 -12 2q-8 0 -20 -5v-183q18 11 39.5 33l42 44.5l36 39.5t21.5 17t11.5 -4t5.5 -9q0 -3 -4 -9q-14 -18 -31.5 -38.5t-37 -40.5t-41 -37.5t-42.5 -29.5
v-39q-1 -8 -6.5 -12.5t-13.5 -4.5q-17 0 -17 18v24q-5 -1 -10.5 -1.5t-10.5 -0.5q-21 0 -35.5 7.5t-22.5 20t-11.5 28t-3.5 31.5q0 25 6.5 50t19 48t30 41.5t39.5 30.5v45zM59 214q-18 -22 -29.5 -53.5t-11.5 -59.5q0 -20 8 -39t25 -19q5 0 8 1v170z" />
    <glyph glyph-name="sterling" unicode="&#xa3;" horiz-adv-x="651" 
d="M336 339q-14 -60 -31.5 -120.5t-42.5 -117.5q17 -3 36 -8l37 -10h-1q32 -10 63.5 -18.5t60.5 -8.5q22 0 40.5 7.5t31.5 24.5q3 4 12 4q6 0 11.5 -4t5.5 -9q0 -3 -2 -7q-17 -23 -41 -31.5t-53 -8.5q-26 0 -53 5.5t-54 12.5t-53 14.5t-50 11.5q-9 -20 -24 -41.5t-33.5 -39
t-41 -28.5t-46.5 -11q-32 0 -53.5 18t-21.5 46q0 27 12.5 44.5t32 28t43 14.5t46.5 4h28q20 50 37 109l34 119h-49q-9 0 -14 6t-5 13q0 6 4.5 10.5t12.5 4.5h59q12 49 28.5 107.5t37 109.5t45.5 85t55 34q19 0 31.5 -13.5t12.5 -37.5q0 -4 -1 -12.5t-3.5 -17.5t-7 -15.5
t-11.5 -6.5q-6 0 -10.5 3.5t-4.5 9.5q0 12 4 22t4 18q0 20 -8 20q-10 0 -20.5 -17t-20.5 -45t-19.5 -62t-17.5 -68t-14.5 -64.5l-10.5 -49.5q14 0 27 0.5t27 0.5q9 0 14 -6t5 -13q0 -6 -4.5 -11t-12.5 -5h-63zM94 -17q15 0 27.5 9.5t23 23.5t19 31l15.5 31l4 7q-5 1 -9 1h-9
q-15 0 -32.5 -3t-32.5 -10.5t-25 -20t-10 -31.5q0 -16 8 -27t21 -11z" />
    <glyph glyph-name="dollar" unicode="$" horiz-adv-x="386" 
d="M209 4q-25 3 -55.5 19t-57.5 42t-45 60.5t-18 75.5q0 13 13 13t18 -16q4 -30 17 -58.5t31 -50.5t40 -35t45 -13q8 0 12 1l4 277l1 -1l-21 34l-31 50.5t-27 51t-19 51.5t-7 53q0 61 32 93.5t77 34.5q0 6 -0.5 12.5t-0.5 13.5q0 15 3 27t14 12q7 0 13.5 -5.5t6.5 -13.5v-51
q34 -11 65 -41.5t45 -81.5q0 -18 -14 -18t-17 14q-11 42 -34 67t-46 32l-3 -281l-1 1l33.5 -55t30 -56.5t22 -57.5t8.5 -60q0 -60 -26.5 -94.5t-68.5 -42.5q0 -7 0.5 -14t0.5 -15q0 -16 -3.5 -28t-16.5 -12q-8 0 -14 5.5t-6 15.5v45zM176 599q-3 -10 -4 -19t-1 -18
q0 -33 12.5 -66t31.5 -66l3 222q-30 -9 -42 -53zM278 156q-2 26 -9.5 51t-18.5 48q0 -48 -1 -96t-1 -96q17 14 23.5 36t6.5 57z" />
    <glyph glyph-name="dotlessi" unicode="&#x131;" horiz-adv-x="138" 
d="M69 281q0 -14 -4 -43t-8 -61.5t-6.5 -62.5t0.5 -46l3 -8q6 0 17 14.5t23.5 35t24 42t18.5 36.5q1 6 10 6q6 0 12.5 -4t7.5 -9q1 -2 -1 -8q-11 -23 -25.5 -50.5t-30.5 -51t-32 -39t-30 -15.5q-15 0 -27 13t-18 41q-6 25 -7 57.5t-0.5 63.5t2.5 57t4 40q1 10 9.5 14.5
t19.5 4.5q32 0 38 -27z" />
    <glyph glyph-name="perthousand" unicode="&#x2030;" horiz-adv-x="448" 
d="M277 -47q-18 7 -26 23.5t-8 37.5q0 23 8 48t22 46t33 34.5t41 13.5q33 0 47.5 -19.5t14.5 -42.5t-10 -48t-26 -46.5t-36.5 -35.5t-40.5 -14q-10 0 -19 3zM364 140q-8 4 -17 4q-17 0 -32.5 -13.5t-27.5 -33.5t-19.5 -43.5t-7.5 -43.5q0 -19 7.5 -32.5t24.5 -13.5
q16 0 32 14t28.5 34.5t20 44.5t7.5 44q0 31 -16 39zM336 637q4 8 11 12.5t13 4.5q8 0 16 -4.5t8 -12.5q0 -3 -2 -6h1l-320 -670q-4 -8 -10.5 -12.5t-12.5 -4.5q-8 0 -16 4.5t-8 12.5q0 2 4 10h-1zM70 459q-17 7 -25 23.5t-8 37.5q0 23 8 48t21.5 46t32.5 34.5t41 13.5
q33 0 47.5 -19t14.5 -42t-10 -48.5t-26 -47t-36.5 -35.5t-40.5 -14q-10 0 -19 3zM157 646q-8 4 -17 4q-17 0 -32.5 -13.5t-27.5 -33.5t-19 -43.5t-7 -43.5q0 -19 7 -32.5t24 -13.5q16 0 32 14t28.5 35t20 45t7.5 44q0 30 -16 38zM445 -47q-18 7 -25.5 23.5t-7.5 37.5
q0 23 8 48t21.5 46t32.5 34.5t41 13.5q33 0 47.5 -19.5t14.5 -42.5t-10 -48t-26 -46.5t-36.5 -35.5t-40.5 -14q-10 0 -19 3zM532 140q-8 4 -17 4q-17 0 -32.5 -13.5t-27.5 -33.5t-19.5 -43.5t-7.5 -43.5q0 -19 7.5 -32.5t24.5 -13.5q16 0 32 14t28.5 34.5t20 44.5t7.5 44
q0 31 -16 39z" />
    <glyph glyph-name="a" unicode="a" 
d="M153 224l-1 -1q1 6 7.5 9.5t15.5 3.5q12 0 24.5 -7t12.5 -21q0 -16 -2.5 -26t-5 -23t-5 -32.5t-2.5 -54.5q0 -14 1 -23t3 -9l4 2h-1q15 9 29 26.5t27 38.5t24 42.5l20 38.5q3 6 12 6q7 0 13.5 -4.5t6.5 -10.5q0 -8 -11.5 -30t-28 -48.5t-35.5 -50.5t-34 -34t-31 -10
t-27 11.5t-18 29.5t-10 39.5t-3 41.5q0 6 -1 6q-13 -28 -28 -48t-29 -32.5t-26 -18t-19 -5.5q-14 0 -24 9t-16 22t-8.5 28.5t-2.5 28.5q0 28 8 54.5t22 47.5t33 33.5t40 12.5q23 0 41 -12t23 -35zM123 176q3 10 3 18q0 17 -6.5 26t-15.5 9q-15 0 -26.5 -15t-19.5 -36
t-12.5 -43.5t-4.5 -37.5q0 -28 7 -28q5 0 14.5 11.5t20.5 28l22 34.5t18 32v1zM138 133q-1 -1 -1 -2q0 1 1 2z" />
    <glyph glyph-name="b" unicode="b" horiz-adv-x="319" 
d="M181 612q0 -42 -8 -84.5t-23 -82.5t-37.5 -75t-51.5 -61l2 1q-1 -17 -1.5 -37l-1 -40.5t-0.5 -39v-31.5v-15.5t1 -19.5q6 22 14.5 46.5t20 45.5t25.5 35t31 14q27 0 43.5 -18t25.5 -42t12.5 -48t3.5 -37q14 7 27 18t23.5 21.5l18.5 18.5t13 8q7 0 13.5 -4t6.5 -11
q0 -10 -11 -22.5t-27 -25t-34 -22.5t-31 -15q-5 -18 -14 -35t-22 -30.5t-30 -22t-37 -8.5q-26 0 -38.5 16.5t-12.5 33.5q0 15 9.5 25.5t23.5 18t30.5 12t30.5 6.5q2 5 2.5 13t0.5 16q0 15 -1.5 33t-5 33t-9 25t-12.5 10q-13 0 -25.5 -24t-23 -57t-18 -67.5t-10.5 -55.5v-18
q0 -11 -4 -18t-22 -7q-13 0 -23.5 4.5t-12.5 15.5q-7 49 -10.5 103.5t-3.5 108.5q0 31 1 60t3 56q1 35 4 76t9 81t16.5 76.5t26.5 63.5t36.5 40t39 11t32 -19.5t15.5 -52.5zM64 355q42 51 64.5 118.5t22.5 131.5q0 28 -6 39t-14 9.5t-17 -12.5t-15 -28q-10 -27 -16 -60.5
t-10 -68t-6 -68t-3 -61.5zM122 22q6 0 12.5 6t13 14t12 17.5t8.5 16.5q-9 -2 -18.5 -5t-17.5 -7.5t-13 -10.5t-5 -14q0 -7 1.5 -12t6.5 -5z" />
    <glyph glyph-name="c" unicode="c" horiz-adv-x="231" 
d="M73 43q20 1 42 17t43.5 38t40 46.5t31.5 43.5q3 6 13 6q6 0 11.5 -4.5t5.5 -9.5q0 -1 -1 -3l-2 -4q-16 -25 -39 -54t-50 -53.5t-56 -40.5t-56 -16q-21 0 -35.5 9t-23 24t-12 33t-3.5 36q0 28 8.5 58t24.5 54t38.5 39.5t50.5 15.5q5 0 14.5 -1.5t18.5 -4.5t16 -7.5
t7 -10.5q0 -5 -4 -8.5t-11 -3.5q-2 0 -11 3t-14 3q-18 0 -32.5 -14.5t-25.5 -36t-17 -48t-6 -50.5q0 -21 7 -38.5t27 -17.5z" />
    <glyph glyph-name="Agrave" unicode="&#xc0;" horiz-adv-x="583" 
d="M328 683q16 24 39 24q20 0 30.5 -23t15 -58t5 -75.5t0.5 -74.5q0 -42 1.5 -85.5t3.5 -89.5q5 -2 9 -6.5t4 -8.5t-2.5 -5.5t-10.5 -3.5q3 -45 7 -90t10 -81t14.5 -59t20.5 -23q10 0 21.5 12t22.5 30.5t22 40t19.5 40l14.5 30.5t8 12q6 0 13 -4.5t7 -10.5q0 -1 -0.5 -2
t-0.5 -3q-7 -21 -19 -50t-28 -55.5t-35.5 -45t-40.5 -18.5q-27 0 -43 23.5t-25 61.5t-13.5 87.5t-7.5 100.5l-103 -12l-26 -88t-37.5 -91.5t-52.5 -72t-70 -29.5q-25 0 -48.5 15t-42.5 46q-4 5 -4 8q0 10 14 10q10 0 16 -9q14 -22 26 -31t24 -9q22 0 42.5 26.5t37.5 64.5
t30 80t21 72l-11 -2q-8 0 -14.5 5.5t-6.5 12.5q0 5 9.5 7t21.5 3l9 1l31 128.5l28 119.5t24 96t20 59zM379 647q-9 -24 -17.5 -63.5l-18 -87t-21.5 -101t-27 -106.5q24 3 46.5 5t46.5 5l-3 121q-1 37 -2.5 74.5t-2 69t-1 54t-0.5 29.5zM416 808q-29 0 -54.5 12t-43.5 50
q-2 4 -2 6q0 6 8 9.5t16 3.5q5 0 10 -1t7 -5q14 -29 25.5 -44t35.5 -27zM379 647v1l-1 -1h1z" />
    <glyph glyph-name="Aacute" unicode="&#xc1;" horiz-adv-x="583" 
d="M328 683q16 24 39 24q20 0 30.5 -23t15 -58t5 -75.5t0.5 -74.5q0 -42 1.5 -85.5t3.5 -89.5q5 -2 9 -6.5t4 -8.5t-2.5 -5.5t-10.5 -3.5q3 -45 7 -90t10 -81t14.5 -59t20.5 -23q10 0 21.5 12t22.5 30.5t22 40t19.5 40l14.5 30.5t8 12q6 0 13 -4.5t7 -10.5q0 -1 -0.5 -2
t-0.5 -3q-7 -21 -19 -50t-28 -55.5t-35.5 -45t-40.5 -18.5q-27 0 -43 23.5t-25 61.5t-13.5 87.5t-7.5 100.5l-103 -12l-26 -88t-37.5 -91.5t-52.5 -72t-70 -29.5q-25 0 -48.5 15t-42.5 46q-4 5 -4 8q0 10 14 10q10 0 16 -9q14 -22 26 -31t24 -9q22 0 42.5 26.5t37.5 64.5
t30 80t21 72l-11 -2q-8 0 -14.5 5.5t-6.5 12.5q0 5 9.5 7t21.5 3l9 1l31 128.5l28 119.5t24 96t20 59zM379 647q-9 -24 -17.5 -63.5l-18 -87t-21.5 -101t-27 -106.5q24 3 46.5 5t46.5 5l-3 121q-1 37 -2.5 74.5t-2 69t-1 54t-0.5 29.5zM328 806q24 12 35.5 27t25.5 44
q2 4 6.5 5t10.5 1q8 0 16 -3.5t8 -9.5q0 -2 -2 -6q-18 -37 -43.5 -49.5t-54.5 -12.5zM379 647v1l-1 -1h1z" />
    <glyph glyph-name="Acircumflex" unicode="&#xc2;" horiz-adv-x="583" 
d="M328 683q16 24 39 24q20 0 30.5 -23t15 -58t5 -75.5t0.5 -74.5q0 -42 1.5 -85.5t3.5 -89.5q5 -2 9 -6.5t4 -8.5t-2.5 -5.5t-10.5 -3.5q3 -45 7 -90t10 -81t14.5 -59t20.5 -23q10 0 21.5 12t22.5 30.5t22 40t19.5 40l14.5 30.5t8 12q6 0 13 -4.5t7 -10.5q0 -1 -0.5 -2
t-0.5 -3q-7 -21 -19 -50t-28 -55.5t-35.5 -45t-40.5 -18.5q-27 0 -43 23.5t-25 61.5t-13.5 87.5t-7.5 100.5l-103 -12l-26 -88t-37.5 -91.5t-52.5 -72t-70 -29.5q-25 0 -48.5 15t-42.5 46q-4 5 -4 8q0 10 14 10q10 0 16 -9q14 -22 26 -31t24 -9q22 0 42.5 26.5t37.5 64.5
t30 80t21 72l-11 -2q-8 0 -14.5 5.5t-6.5 12.5q0 5 9.5 7t21.5 3l9 1l31 128.5l28 119.5t24 96t20 59zM379 647q-9 -24 -17.5 -63.5l-18 -87t-21.5 -101t-27 -106.5q24 3 46.5 5t46.5 5l-3 121q-1 37 -2.5 74.5t-2 69t-1 54t-0.5 29.5zM314 801q-8 0 -8 4q22 21 37.5 42.5
t21.5 47.5l7 13q1 1 2 1t3 1q3 0 4 -1q7 -15 12.5 -25.5t12 -18.5t15 -15.5t20.5 -16.5q0 -2 -2 -7t-5 -10.5t-6 -9.5t-4 -4q-9 -1 -18 9.5t-16.5 24t-12.5 25.5t-5 14q-9 -23 -23 -40.5t-31 -31.5zM379 647v1l-1 -1h1z" />
    <glyph glyph-name="Atilde" unicode="&#xc3;" horiz-adv-x="583" 
d="M328 683q16 24 39 24q20 0 30.5 -23t15 -58t5 -75.5t0.5 -74.5q0 -42 1.5 -85.5t3.5 -89.5q5 -2 9 -6.5t4 -8.5t-2.5 -5.5t-10.5 -3.5q3 -45 7 -90t10 -81t14.5 -59t20.5 -23q10 0 21.5 12t22.5 30.5t22 40t19.5 40l14.5 30.5t8 12q6 0 13 -4.5t7 -10.5q0 -1 -0.5 -2
t-0.5 -3q-7 -21 -19 -50t-28 -55.5t-35.5 -45t-40.5 -18.5q-27 0 -43 23.5t-25 61.5t-13.5 87.5t-7.5 100.5l-103 -12l-26 -88t-37.5 -91.5t-52.5 -72t-70 -29.5q-25 0 -48.5 15t-42.5 46q-4 5 -4 8q0 10 14 10q10 0 16 -9q14 -22 26 -31t24 -9q22 0 42.5 26.5t37.5 64.5
t30 80t21 72l-11 -2q-8 0 -14.5 5.5t-6.5 12.5q0 5 9.5 7t21.5 3l9 1l31 128.5l28 119.5t24 96t20 59zM379 647q-9 -24 -17.5 -63.5l-18 -87t-21.5 -101t-27 -106.5q24 3 46.5 5t46.5 5l-3 121q-1 37 -2.5 74.5t-2 69t-1 54t-0.5 29.5zM273 833q-2 1 -5 3.5t-5 4.5
q-3 3 -5 6l9 1q0 -5 6 -8t14.5 -5t16 -3.5t10.5 -1.5q9 0 20 3.5t23 8t23.5 8t21.5 3.5q27 0 57 -27v1q6 -5 13 -12.5t6 -7.5q-1 -1 -5 -1q-5 0 -12.5 4.5t-15.5 10t-15.5 10t-13.5 4.5q-8 0 -17 -4l-19.5 -8.5t-23.5 -8.5t-28 -4q-29 0 -56 23h1zM379 647v1l-1 -1h1z" />
    <glyph glyph-name="Adieresis" unicode="&#xc4;" horiz-adv-x="583" 
d="M328 683q16 24 39 24q20 0 30.5 -23t15 -58t5 -75.5t0.5 -74.5q0 -42 1.5 -85.5t3.5 -89.5q5 -2 9 -6.5t4 -8.5t-2.5 -5.5t-10.5 -3.5q3 -45 7 -90t10 -81t14.5 -59t20.5 -23q10 0 21.5 12t22.5 30.5t22 40t19.5 40l14.5 30.5t8 12q6 0 13 -4.5t7 -10.5q0 -1 -0.5 -2
t-0.5 -3q-7 -21 -19 -50t-28 -55.5t-35.5 -45t-40.5 -18.5q-27 0 -43 23.5t-25 61.5t-13.5 87.5t-7.5 100.5l-103 -12l-26 -88t-37.5 -91.5t-52.5 -72t-70 -29.5q-25 0 -48.5 15t-42.5 46q-4 5 -4 8q0 10 14 10q10 0 16 -9q14 -22 26 -31t24 -9q22 0 42.5 26.5t37.5 64.5
t30 80t21 72l-11 -2q-8 0 -14.5 5.5t-6.5 12.5q0 5 9.5 7t21.5 3l9 1l31 128.5l28 119.5t24 96t20 59zM379 647q-9 -24 -17.5 -63.5l-18 -87t-21.5 -101t-27 -106.5q24 3 46.5 5t46.5 5l-3 121q-1 37 -2.5 74.5t-2 69t-1 54t-0.5 29.5zM304 804q-14 0 -24 9t-10 22
q0 14 10 23t24 9t23.5 -9t9.5 -23q0 -13 -9.5 -22t-23.5 -9zM431 806q-14 0 -23.5 9t-9.5 23q0 13 9.5 22t23.5 9t23.5 -9t9.5 -22q0 -14 -9.5 -23t-23.5 -9zM379 647v1l-1 -1h1z" />
    <glyph glyph-name="Aring" unicode="&#xc5;" horiz-adv-x="583" 
d="M418 805q9 -11 13 -24t4 -26q0 -24 -11.5 -41.5t-28.5 -25.5q9 -15 14 -40.5t7 -54.5t2 -59.5v-57.5q0 -42 1.5 -85.5t3.5 -89.5q5 -2 9 -6.5t4 -8.5t-2.5 -5.5t-10.5 -3.5q3 -45 7 -90t10 -81t14.5 -59t20.5 -23q10 0 21.5 12t22.5 30.5t22 40t19.5 40l14.5 30.5t8 12
q6 0 13 -4.5t7 -10.5q0 -1 -0.5 -2t-0.5 -3q-7 -21 -19 -50t-28 -55.5t-35.5 -45t-40.5 -18.5q-27 0 -43 23.5t-25 61.5t-13.5 87.5t-7.5 100.5l-103 -12l-26 -88t-37.5 -91.5t-52.5 -72t-70 -29.5q-25 0 -48.5 15t-42.5 46q-4 5 -4 8q0 10 14 10q10 0 16 -9q14 -22 26 -31
t24 -9q22 0 42.5 26.5t37.5 64.5t30 80t21 72l-11 -2q-8 0 -14.5 5.5t-6.5 12.5q0 5 9.5 7t21.5 3l9 1l31 128.5l28 119.5t24 96t20 59l9 10q-14 10 -22.5 26t-8.5 36q0 28 19 49.5t46 21.5t47 -21zM379 647q-9 -24 -17.5 -63.5l-18 -87t-21.5 -101t-27 -106.5q24 3 46.5 5
t46.5 5l-3 121q-1 37 -2.5 74.5t-2 69t-1 54t-0.5 29.5zM403 797q-14 17 -32 17q-19 0 -32.5 -17.5t-13.5 -37.5q0 -17 11 -32t25 -20h6q3 0 9 -2q16 2 28.5 17t12.5 38q0 20 -14 37zM379 647v1l-1 -1h1z" />
    <glyph glyph-name="AE" unicode="&#xc6;" horiz-adv-x="1021" 
d="M390 273l-103 -12l-26 -88t-37.5 -91.5t-52.5 -72t-70 -29.5q-25 0 -48.5 15t-42.5 46q-4 5 -4 8q0 10 14 10q10 0 16 -9q14 -22 26 -31t24 -9q22 0 42.5 26.5t37.5 64.5t30 80t21 72l-11 -2q-8 0 -14.5 5.5t-6.5 12.5q0 5 9.5 7t21.5 3l9 1l31 128.5l28 119.5t24 96
t20 59q16 24 39 24q15 0 24 -12.5t14.5 -33t8 -47t3.5 -54.5q9 24 27 47t41 41t49.5 29t54.5 11q19 0 40 -7t38 -20t28 -31.5t11 -41.5q0 -35 -32 -52t-104 -17q-19 0 -36.5 1t-37.5 1h-16q0 -29 19.5 -49t71.5 -20h27q20 0 35 -4.5t15 -17.5q0 -9 -13.5 -22t-34.5 -31.5
t-44.5 -42t-44.5 -52.5t-34.5 -64t-13.5 -76q0 -26 7.5 -48.5t20.5 -39t30 -25.5t35 -9q26 0 52 15t47 38.5t36 51.5t20 54q3 8 15 8q8 0 15.5 -5t7.5 -16q-12 -51 -38 -85.5t-56 -55.5t-59 -29.5t-47 -8.5q-32 0 -60.5 13t-49.5 35.5t-33.5 52.5t-12.5 65q0 17 3 32
q-4 42 -6 88zM379 647q-9 -24 -17.5 -63.5l-18 -87t-21.5 -101t-27 -106.5q24 3 46.5 5t46.5 5l-3 121q-1 37 -2.5 74.5t-2 69t-1 54t-0.5 29.5zM606 655q-22 0 -42.5 -11.5t-37 -28t-28.5 -35.5t-16 -35q19 0 40 -1.5t41 -1.5q58 0 84.5 14.5t26.5 37.5q0 25 -20.5 43
t-47.5 18zM423 301q5 -2 9 -6.5t4 -8.5t-2.5 -5.5t-10.5 -3.5v-8.5t1 -8.5q14 25 33 47t39 41t40.5 35l38.5 30l14 11q-9 0 -24.5 -1.5t-28.5 -1.5q-52 0 -80.5 20t-37.5 51v-16q0 -42 1.5 -85.5t3.5 -89.5zM379 647v1l-1 -1h1z" />
    <glyph glyph-name="Ccedilla" unicode="&#xc7;" horiz-adv-x="383" 
d="M367 617q0 -31 -20 -49t-49 -27t-61.5 -11t-57.5 -2q-21 -56 -30.5 -122t-9.5 -133q0 -65 9 -113t23 -80t32 -48t36 -16q20 0 41.5 13.5t41 37t36 55t25.5 67.5q1 4 5 6.5t8 2.5q18 0 18 -17q-10 -44 -28.5 -78.5t-42 -59.5t-50 -39.5t-53.5 -17.5q-5 -21 -6 -31.5
t0 -15.5h14q30 0 45.5 -14.5t17.5 -31.5q2 -16 -5 -27t-18.5 -18t-26.5 -10.5t-29 -3.5q-10 0 -23 2t-14 8q-2 7 8 7q5 0 12 -1t12 -1q21 0 37 11t14 36q-2 12 -11.5 21.5t-26.5 9.5q-5 0 -10.5 -1t-10.5 -1q-18 0 -19 12q-1 4 0 14.5t7 36.5q-38 7 -63.5 38t-41.5 70
t-23.5 79t-8.5 67q-1 10 -1 22v23q0 63 8 123t26 114q-30 -6 -47.5 -24t-19.5 -48q-3 -10 -13 -10q-16 0 -16 13q0 23 9 40t24 29t34 18.5t39 8.5q10 23 25.5 48.5t37.5 46.5t49 35t60 14q19 0 34.5 -7.5t26 -18.5t16 -25t5.5 -27zM302 666q-4 1 -10 1q-18 0 -34 -12.5
t-29.5 -30.5t-23.5 -37.5t-16 -33.5q21 0 46.5 2t47 9t36.5 20t15 35q0 14 -8 28t-22 18z" />
    <glyph glyph-name="Egrave" unicode="&#xc8;" horiz-adv-x="376" 
d="M36 442q0 -9 -12 -9q-11 0 -14.5 8t-3.5 17q0 42 20.5 62t52.5 29q6 27 21 53.5t37 47.5t49.5 34.5t58.5 13.5q19 0 41.5 -7t41 -20t31 -31.5t12.5 -41.5q0 -35 -32 -52t-104 -17q-19 0 -36.5 1t-37.5 1h-16q0 -29 19.5 -49t71.5 -20h27q20 0 35 -4.5t15 -17.5
q0 -9 -13.5 -22t-34.5 -31.5t-44.5 -42t-44.5 -52.5t-34.5 -64t-13.5 -76q0 -26 7.5 -48.5t20.5 -39t30 -25.5t35 -9q26 0 52 15t47 38.5t36 51.5t20 54q3 8 15 8q8 0 15.5 -5t7.5 -16q-12 -51 -38 -85.5t-56 -55.5t-59 -29.5t-47 -8.5q-32 0 -60.5 13t-49.5 35.5
t-33.5 52.5t-12.5 65q0 45 18.5 83.5t46 71t59.5 59l58 46.5l14 11q-9 0 -24.5 -1.5t-28.5 -1.5q-60 0 -89 27t-33 65q-44 -16 -44 -69v-6q0 -2 0.5 -3t0.5 -3zM271 665q-22 0 -42.5 -11.5t-37 -28t-28.5 -35.5t-16 -35q19 0 40 -1.5t41 -1.5q58 0 84.5 14.5t26.5 37.5
q0 25 -20.5 43t-47.5 18zM281 806q-29 0 -54.5 12t-43.5 50q-2 4 -2 6q0 6 8 9.5t16 3.5q5 0 10 -1t7 -5q14 -29 25.5 -44t35.5 -27z" />
    <glyph glyph-name="Eacute" unicode="&#xc9;" horiz-adv-x="376" 
d="M36 442q0 -9 -12 -9q-11 0 -14.5 8t-3.5 17q0 42 20.5 62t52.5 29q6 27 21 53.5t37 47.5t49.5 34.5t58.5 13.5q19 0 41.5 -7t41 -20t31 -31.5t12.5 -41.5q0 -35 -32 -52t-104 -17q-19 0 -36.5 1t-37.5 1h-16q0 -29 19.5 -49t71.5 -20h27q20 0 35 -4.5t15 -17.5
q0 -9 -13.5 -22t-34.5 -31.5t-44.5 -42t-44.5 -52.5t-34.5 -64t-13.5 -76q0 -26 7.5 -48.5t20.5 -39t30 -25.5t35 -9q26 0 52 15t47 38.5t36 51.5t20 54q3 8 15 8q8 0 15.5 -5t7.5 -16q-12 -51 -38 -85.5t-56 -55.5t-59 -29.5t-47 -8.5q-32 0 -60.5 13t-49.5 35.5
t-33.5 52.5t-12.5 65q0 45 18.5 83.5t46 71t59.5 59l58 46.5l14 11q-9 0 -24.5 -1.5t-28.5 -1.5q-60 0 -89 27t-33 65q-44 -16 -44 -69v-6q0 -2 0.5 -3t0.5 -3zM271 665q-22 0 -42.5 -11.5t-37 -28t-28.5 -35.5t-16 -35q19 0 40 -1.5t41 -1.5q58 0 84.5 14.5t26.5 37.5
q0 25 -20.5 43t-47.5 18zM205 811q24 12 35.5 27t25.5 44q2 4 6.5 5t10.5 1q8 0 16 -3.5t8 -9.5q0 -2 -2 -6q-18 -37 -43.5 -49.5t-54.5 -12.5z" />
    <glyph glyph-name="Ecircumflex" unicode="&#xca;" horiz-adv-x="376" 
d="M36 442q0 -9 -12 -9q-11 0 -14.5 8t-3.5 17q0 42 20.5 62t52.5 29q6 27 21 53.5t37 47.5t49.5 34.5t58.5 13.5q19 0 41.5 -7t41 -20t31 -31.5t12.5 -41.5q0 -35 -32 -52t-104 -17q-19 0 -36.5 1t-37.5 1h-16q0 -29 19.5 -49t71.5 -20h27q20 0 35 -4.5t15 -17.5
q0 -9 -13.5 -22t-34.5 -31.5t-44.5 -42t-44.5 -52.5t-34.5 -64t-13.5 -76q0 -26 7.5 -48.5t20.5 -39t30 -25.5t35 -9q26 0 52 15t47 38.5t36 51.5t20 54q3 8 15 8q8 0 15.5 -5t7.5 -16q-12 -51 -38 -85.5t-56 -55.5t-59 -29.5t-47 -8.5q-32 0 -60.5 13t-49.5 35.5
t-33.5 52.5t-12.5 65q0 45 18.5 83.5t46 71t59.5 59l58 46.5l14 11q-9 0 -24.5 -1.5t-28.5 -1.5q-60 0 -89 27t-33 65q-44 -16 -44 -69v-6q0 -2 0.5 -3t0.5 -3zM271 665q-22 0 -42.5 -11.5t-37 -28t-28.5 -35.5t-16 -35q19 0 40 -1.5t41 -1.5q58 0 84.5 14.5t26.5 37.5
q0 25 -20.5 43t-47.5 18zM186 820q-7 0 -7 5q24 17 41.5 36t25.5 44l9 12q1 1 5 1q3 0 4 -1q5 -16 9.5 -27t10.5 -20.5t13.5 -18t19.5 -18.5q0 -2 -3 -7t-6.5 -9.5t-7 -8t-4.5 -3.5q-9 0 -16.5 11.5t-13.5 26t-10 27t-5 14.5q-11 -21 -26 -36.5t-34 -26.5z" />
    <glyph glyph-name="Edieresis" unicode="&#xcb;" horiz-adv-x="376" 
d="M36 442q0 -9 -12 -9q-11 0 -14.5 8t-3.5 17q0 42 20.5 62t52.5 29q6 27 21 53.5t37 47.5t49.5 34.5t58.5 13.5q19 0 41.5 -7t41 -20t31 -31.5t12.5 -41.5q0 -35 -32 -52t-104 -17q-19 0 -36.5 1t-37.5 1h-16q0 -29 19.5 -49t71.5 -20h27q20 0 35 -4.5t15 -17.5
q0 -9 -13.5 -22t-34.5 -31.5t-44.5 -42t-44.5 -52.5t-34.5 -64t-13.5 -76q0 -26 7.5 -48.5t20.5 -39t30 -25.5t35 -9q26 0 52 15t47 38.5t36 51.5t20 54q3 8 15 8q8 0 15.5 -5t7.5 -16q-12 -51 -38 -85.5t-56 -55.5t-59 -29.5t-47 -8.5q-32 0 -60.5 13t-49.5 35.5
t-33.5 52.5t-12.5 65q0 45 18.5 83.5t46 71t59.5 59l58 46.5l14 11q-9 0 -24.5 -1.5t-28.5 -1.5q-60 0 -89 27t-33 65q-44 -16 -44 -69v-6q0 -2 0.5 -3t0.5 -3zM271 665q-22 0 -42.5 -11.5t-37 -28t-28.5 -35.5t-16 -35q19 0 40 -1.5t41 -1.5q58 0 84.5 14.5t26.5 37.5
q0 25 -20.5 43t-47.5 18zM318 808q-14 0 -23.5 9t-9.5 23q0 13 9.5 22t23.5 9t23.5 -9t9.5 -22q0 -14 -9.5 -23t-23.5 -9zM191 806q-14 0 -24 9t-10 22q0 14 10 23t24 9t23.5 -9t9.5 -23q0 -13 -9.5 -22t-23.5 -9z" />
    <glyph glyph-name="Igrave" unicode="&#xcc;" horiz-adv-x="328" 
d="M141 570q-3 -6 -11 -6q-7 0 -13.5 5t-6.5 11q0 10 8.5 29.5t21 39t27.5 34t28 14.5q19 0 31.5 -14t20.5 -33t12.5 -39t6.5 -33q6 -37 9.5 -82.5t3.5 -96.5q0 -67 -8.5 -141t-29 -136.5t-55 -103t-85.5 -40.5q-60 0 -93 59q-3 4 -3 7q0 11 13 11q7 0 15 -8l17 -17.5
t19 -17.5t20 -8q5 0 11 3q29 20 49.5 63t34 99t19.5 121t6 130q0 31 -1 73t-3 80t-5.5 64.5t-8.5 26.5t-12.5 -13t-15 -29.5t-13.5 -31.5l-8 -20h-1zM251 804q-29 0 -54.5 12t-43.5 50q-2 4 -2 6q0 6 8 9.5t16 3.5q5 0 10 -1t7 -5q14 -29 25.5 -44t35.5 -27z" />
    <glyph glyph-name="Iacute" unicode="&#xcd;" horiz-adv-x="328" 
d="M141 570q-3 -6 -11 -6q-7 0 -13.5 5t-6.5 11q0 10 8.5 29.5t21 39t27.5 34t28 14.5q19 0 31.5 -14t20.5 -33t12.5 -39t6.5 -33q6 -37 9.5 -82.5t3.5 -96.5q0 -67 -8.5 -141t-29 -136.5t-55 -103t-85.5 -40.5q-60 0 -93 59q-3 4 -3 7q0 11 13 11q7 0 15 -8l17 -17.5
t19 -17.5t20 -8q5 0 11 3q29 20 49.5 63t34 99t19.5 121t6 130q0 31 -1 73t-3 80t-5.5 64.5t-8.5 26.5t-12.5 -13t-15 -29.5t-13.5 -31.5l-8 -20h-1zM150 809q24 12 35.5 27t25.5 44q2 4 6.5 5t10.5 1q8 0 16 -3.5t8 -9.5q0 -2 -2 -6q-18 -37 -43.5 -49.5t-54.5 -12.5z" />
    <glyph glyph-name="Icircumflex" unicode="&#xce;" horiz-adv-x="328" 
d="M141 570q-3 -6 -11 -6q-7 0 -13.5 5t-6.5 11q0 10 8.5 29.5t21 39t27.5 34t28 14.5q19 0 31.5 -14t20.5 -33t12.5 -39t6.5 -33q6 -37 9.5 -82.5t3.5 -96.5q0 -67 -8.5 -141t-29 -136.5t-55 -103t-85.5 -40.5q-60 0 -93 59q-3 4 -3 7q0 11 13 11q7 0 15 -8l17 -17.5
t19 -17.5t20 -8q5 0 11 3q29 20 49.5 63t34 99t19.5 121t6 130q0 31 -1 73t-3 80t-5.5 64.5t-8.5 26.5t-12.5 -13t-15 -29.5t-13.5 -31.5l-8 -20h-1zM154 815q-7 0 -7 5q25 17 43 36t28 44l9 12q1 1 5 1q3 0 4 -1q4 -16 8 -27t9.5 -20.5t13 -18t18.5 -18.5q0 -2 -3 -7
t-7 -9.5t-7.5 -8t-4.5 -3.5q-9 0 -16 11.5t-12.5 26t-9 27t-3.5 14.5q-12 -21 -28 -36.5t-35 -26.5z" />
    <glyph glyph-name="Idieresis" unicode="&#xcf;" horiz-adv-x="328" 
d="M141 570q-3 -6 -11 -6q-7 0 -13.5 5t-6.5 11q0 10 8.5 29.5t21 39t27.5 34t28 14.5q19 0 31.5 -14t20.5 -33t12.5 -39t6.5 -33q6 -37 9.5 -82.5t3.5 -96.5q0 -67 -8.5 -141t-29 -136.5t-55 -103t-85.5 -40.5q-60 0 -93 59q-3 4 -3 7q0 11 13 11q7 0 15 -8l17 -17.5
t19 -17.5t20 -8q5 0 11 3q29 20 49.5 63t34 99t19.5 121t6 130q0 31 -1 73t-3 80t-5.5 64.5t-8.5 26.5t-12.5 -13t-15 -29.5t-13.5 -31.5l-8 -20h-1zM282 811q-14 0 -23.5 9t-9.5 23q0 13 9.5 22t23.5 9t23.5 -9t9.5 -22q0 -14 -9.5 -23t-23.5 -9zM155 809q-14 0 -24 9
t-10 22q0 14 10 23t24 9t23.5 -9t9.5 -23q0 -13 -9.5 -22t-23.5 -9z" />
    <glyph glyph-name="Eth" unicode="&#xd0;" horiz-adv-x="603" 
d="M95 336q-8 0 -12.5 5t-4.5 12t4.5 12t13.5 5h96q0 14 0.5 28t0.5 28q0 30 -1 66t-3.5 68t-6.5 53.5t-10 21.5q-7 0 -13 -12t-11.5 -28l-10.5 -30.5t-10 -19.5h1q-2 -6 -11 -6q-6 0 -12.5 5t-6.5 12q0 12 7.5 31t19 36.5t25 30.5t25.5 13q21 0 34.5 -18.5t22.5 -45
t13.5 -56t7.5 -51.5q7 28 18 62.5t27 65t38 51t51 20.5q34 0 61 -24t47.5 -59.5t34 -74.5t19.5 -69q6 -28 8.5 -59.5t2.5 -63.5q0 -67 -13 -135t-41 -122.5t-72.5 -89t-106.5 -34.5q-64 0 -142 42q-15 -20 -38.5 -35.5t-50.5 -15.5q-23 0 -44.5 12.5t-41.5 44.5q-4 5 -4 8
q0 10 13 10q10 0 16 -9q12 -21 23 -30t22 -9q27 0 46.5 30t33 79.5t21 113.5t10.5 131h-96zM196 25q54 -29 99 -29q50 0 87.5 31t63 81t38.5 114t13 130q0 47 -6 91q-3 21 -13 58t-24.5 73.5t-33 63t-40.5 26.5q-17 0 -32 -18.5t-28 -47t-23.5 -63t-18.5 -67.5t-13.5 -59.5
t-7.5 -38.5l91 1q8 0 13 -5t5 -12t-5 -12.5t-14 -5.5h-92q-3 -38 -7 -80.5t-11 -84t-17 -80t-24 -66.5z" />
    <glyph glyph-name="Ntilde" unicode="&#xd1;" horiz-adv-x="658" 
d="M550 8q5 -8 9 -8q8 0 18 12.5t20.5 31.5t20.5 42l18.5 44t14 37.5t7.5 21.5t7 6t10.5 -0.5t9.5 -5t4 -8.5t-5 -22t-14.5 -41t-21.5 -50t-26.5 -48t-30.5 -36.5t-32 -14.5q-29 0 -47 25t-28.5 65t-14.5 90t-4 100q0 47 2 95t5 91.5t5 80.5t2 62q0 47 -5 47q-6 0 -16 -16.5
t-21.5 -43t-24.5 -60l-25.5 -68.5l-23.5 -67.5l-19 -56.5q-21 -65 -45 -131t-57 -132q-8 -17 -22.5 -37t-33 -37.5t-40 -29.5t-42.5 -12q-20 0 -40.5 14.5t-37.5 43.5q-3 4 -3 8q0 11 13 11q11 0 16 -9q11 -21 21.5 -29.5t21.5 -8.5q23 0 42 21.5t33.5 58t25.5 85t18 102.5
t10.5 110.5t3.5 109.5q0 27 -1 58.5t-3 59t-5.5 45.5t-8.5 18q-7 0 -14.5 -16.5t-15 -37t-15 -37t-14.5 -16.5t-13.5 5t-6.5 13l7 19q16 44 33 73.5t50 29.5q21 0 35.5 -18.5t23 -48.5t12 -68t3.5 -77q0 -35 -2 -71t-5.5 -69.5t-7.5 -64t-8 -54.5q19 52 35 105l33 105.5
t37 104.5t48 104q4 7 10 15.5t14 16t17.5 12.5t20.5 5q17 0 28 -11t18 -30.5t9.5 -46.5t2.5 -59q0 -41 -3 -87l-6 -94l-6 -95t-3 -89q0 -48 5 -84.5t18 -57.5zM266 827q-2 1 -5 3.5t-5 4.5q-3 3 -5 6l9 1q0 -5 6 -8t14.5 -5t16 -3.5t10.5 -1.5q9 0 20 3.5t23 8t23.5 8
t21.5 3.5q27 0 57 -27v1q6 -5 13 -12.5t6 -7.5q-1 -1 -5 -1q-5 0 -12.5 4.5t-15.5 10t-15.5 10t-13.5 4.5q-8 0 -17 -4l-19.5 -8.5t-23.5 -8.5t-28 -4q-29 0 -56 23h1z" />
    <glyph glyph-name="Ograve" unicode="&#xd2;" horiz-adv-x="403" 
d="M38 266q0 73 13.5 141t30.5 116q-9 31 -9 63t11 58t34.5 42.5t61.5 16.5q49 0 83 -27.5t55 -73.5t30.5 -104.5t9.5 -121.5q0 -71 -13.5 -135.5t-38 -114.5t-58.5 -79.5t-75 -29.5q-34 0 -59.5 22.5t-42 58t-25 80t-8.5 88.5zM156 48q34 0 65 48.5t48 135.5q-3 -5 -10 -5
q-9 0 -14 7q-48 64 -87 127t-57 109q-14 -43 -23 -97.5t-9 -110.5q0 -36 6 -74t17 -69t27.5 -51t36.5 -20zM104 572q8 14 17 26.5t17 12.5q6 0 12.5 -6t6.5 -13q0 -5 -13.5 -26t-26.5 -51q13 -50 52 -118t99 -148q4 -8 4 -10v-1q8 42 12 87.5t4 93.5q0 46 -5 90.5t-18 80
t-34.5 57.5t-54.5 22q-29 0 -50.5 -24t-21.5 -73zM271 804q-29 0 -54.5 12t-43.5 50q-2 4 -2 6q0 6 8 9.5t16 3.5q5 0 10 -1t7 -5q14 -29 25.5 -44t35.5 -27z" />
    <glyph glyph-name="Oacute" unicode="&#xd3;" horiz-adv-x="403" 
d="M38 266q0 73 13.5 141t30.5 116q-9 31 -9 63t11 58t34.5 42.5t61.5 16.5q49 0 83 -27.5t55 -73.5t30.5 -104.5t9.5 -121.5q0 -71 -13.5 -135.5t-38 -114.5t-58.5 -79.5t-75 -29.5q-34 0 -59.5 22.5t-42 58t-25 80t-8.5 88.5zM156 48q34 0 65 48.5t48 135.5q-3 -5 -10 -5
q-9 0 -14 7q-48 64 -87 127t-57 109q-14 -43 -23 -97.5t-9 -110.5q0 -36 6 -74t17 -69t27.5 -51t36.5 -20zM104 572q8 14 17 26.5t17 12.5q6 0 12.5 -6t6.5 -13q0 -5 -13.5 -26t-26.5 -51q13 -50 52 -118t99 -148q4 -8 4 -10v-1q8 42 12 87.5t4 93.5q0 46 -5 90.5t-18 80
t-34.5 57.5t-54.5 22q-29 0 -50.5 -24t-21.5 -73zM170 811q24 12 35.5 27t25.5 44q2 4 6.5 5t10.5 1q8 0 16 -3.5t8 -9.5q0 -2 -2 -6q-18 -37 -43.5 -49.5t-54.5 -12.5z" />
    <glyph glyph-name="Ocircumflex" unicode="&#xd4;" horiz-adv-x="403" 
d="M38 266q0 73 13.5 141t30.5 116q-9 31 -9 63t11 58t34.5 42.5t61.5 16.5q49 0 83 -27.5t55 -73.5t30.5 -104.5t9.5 -121.5q0 -71 -13.5 -135.5t-38 -114.5t-58.5 -79.5t-75 -29.5q-34 0 -59.5 22.5t-42 58t-25 80t-8.5 88.5zM156 48q34 0 65 48.5t48 135.5q-3 -5 -10 -5
q-9 0 -14 7q-48 64 -87 127t-57 109q-14 -43 -23 -97.5t-9 -110.5q0 -36 6 -74t17 -69t27.5 -51t36.5 -20zM104 572q8 14 17 26.5t17 12.5q6 0 12.5 -6t6.5 -13q0 -5 -13.5 -26t-26.5 -51q13 -50 52 -118t99 -148q4 -8 4 -10v-1q8 42 12 87.5t4 93.5q0 46 -5 90.5t-18 80
t-34.5 57.5t-54.5 22q-29 0 -50.5 -24t-21.5 -73zM173 819q-7 0 -7 5q25 17 43 36t28 44l9 12q1 1 5 1q3 0 4 -1q4 -16 8 -27t9.5 -20.5t13 -18t18.5 -18.5q0 -2 -3 -7t-7 -9.5t-7.5 -8t-4.5 -3.5q-9 0 -16 11.5t-12.5 26t-9 27t-3.5 14.5q-12 -21 -28 -36.5t-35 -26.5z" />
    <glyph glyph-name="Otilde" unicode="&#xd5;" horiz-adv-x="403" 
d="M38 266q0 73 13.5 141t30.5 116q-9 31 -9 63t11 58t34.5 42.5t61.5 16.5q49 0 83 -27.5t55 -73.5t30.5 -104.5t9.5 -121.5q0 -71 -13.5 -135.5t-38 -114.5t-58.5 -79.5t-75 -29.5q-34 0 -59.5 22.5t-42 58t-25 80t-8.5 88.5zM156 48q34 0 65 48.5t48 135.5q-3 -5 -10 -5
q-9 0 -14 7q-48 64 -87 127t-57 109q-14 -43 -23 -97.5t-9 -110.5q0 -36 6 -74t17 -69t27.5 -51t36.5 -20zM104 572q8 14 17 26.5t17 12.5q6 0 12.5 -6t6.5 -13q0 -5 -13.5 -26t-26.5 -51q13 -50 52 -118t99 -148q4 -8 4 -10v-1q8 42 12 87.5t4 93.5q0 46 -5 90.5t-18 80
t-34.5 57.5t-54.5 22q-29 0 -50.5 -24t-21.5 -73zM112 836q-2 1 -5 3.5t-5 4.5q-3 3 -5 6l9 1q0 -5 6 -8t14.5 -5t16 -3.5t10.5 -1.5q9 0 20 3.5t23 8t23.5 8t21.5 3.5q27 0 57 -27v1q6 -5 13 -12.5t6 -7.5q-1 -1 -5 -1q-5 0 -12.5 4.5t-15.5 10t-15.5 10t-13.5 4.5
q-8 0 -17 -4l-19.5 -8.5t-23.5 -8.5t-28 -4q-29 0 -56 23h1z" />
    <glyph glyph-name="Odieresis" unicode="&#xd6;" horiz-adv-x="403" 
d="M38 266q0 73 13.5 141t30.5 116q-9 31 -9 63t11 58t34.5 42.5t61.5 16.5q49 0 83 -27.5t55 -73.5t30.5 -104.5t9.5 -121.5q0 -71 -13.5 -135.5t-38 -114.5t-58.5 -79.5t-75 -29.5q-34 0 -59.5 22.5t-42 58t-25 80t-8.5 88.5zM156 48q34 0 65 48.5t48 135.5q-3 -5 -10 -5
q-9 0 -14 7q-48 64 -87 127t-57 109q-14 -43 -23 -97.5t-9 -110.5q0 -36 6 -74t17 -69t27.5 -51t36.5 -20zM104 572q8 14 17 26.5t17 12.5q6 0 12.5 -6t6.5 -13q0 -5 -13.5 -26t-26.5 -51q13 -50 52 -118t99 -148q4 -8 4 -10v-1q8 42 12 87.5t4 93.5q0 46 -5 90.5t-18 80
t-34.5 57.5t-54.5 22q-29 0 -50.5 -24t-21.5 -73zM145 806q-14 0 -24 9t-10 22q0 14 10 23t24 9t23.5 -9t9.5 -23q0 -13 -9.5 -22t-23.5 -9zM272 808q-14 0 -23.5 9t-9.5 23q0 13 9.5 22t23.5 9t23.5 -9t9.5 -22q0 -14 -9.5 -23t-23.5 -9z" />
    <glyph glyph-name="Oslash" unicode="&#xd8;" horiz-adv-x="403" 
d="M337 674q2 5 7.5 7.5t11.5 2.5q10 0 8 -5t-2 -13q0 -3 -2 -7h1l-36 -76q17 -44 25 -97t8 -110q0 -71 -13.5 -135.5t-38 -114.5t-58.5 -79.5t-75 -29.5q-27 0 -48.5 14.5t-37.5 38.5l-35 -75q-10 -16 -22 -16q-9 0 -8.5 5.5t0.5 13.5q0 2 0.5 3.5t2.5 5.5h-1l45 96
q-16 35 -23.5 77.5t-7.5 85.5q0 73 13.5 141t30.5 116q-9 31 -9 63t11 58t34.5 42.5t61.5 16.5q45 0 77 -23.5t53 -62.5zM104 572q8 14 17 26.5t17 12.5q6 0 12.5 -6t6.5 -13q0 -5 -13.5 -26t-26.5 -51q8 -32 26.5 -70.5t46.5 -83.5l87 185q-11 53 -35 88t-66 35
q-29 0 -50.5 -24t-21.5 -73zM156 48q34 0 65 48.5t48 135.5q-3 -5 -10 -5q-9 0 -14 7l-25.5 34.5l-24.5 34.5l-95 -204q11 -23 25 -37t31 -14zM101 470q-14 -43 -23 -97.5t-9 -110.5q0 -64 17 -123l90 193q-25 38 -44.5 73.5t-30.5 64.5zM268 249q4 -8 4 -10v-1
q8 42 12 87.5t4 93.5q0 19 -1 38t-3 38l-75 -163q25 -38 59 -83z" />
    <glyph glyph-name="Ugrave" unicode="&#xd9;" horiz-adv-x="498" 
d="M28 674q-15 -9 -29 -26.5t-24.5 -39.5t-17 -47t-6.5 -49q0 -11 1 -16q0 -13 -12 -13q-8 0 -12.5 4t-6.5 10t-2.5 12t-0.5 11q0 36 12 70.5t31.5 61.5t43 43.5t47.5 16.5q23 0 39.5 -12t27.5 -32t16.5 -46t5.5 -54q-5 -82 -13.5 -163t-8.5 -165q0 -26 1.5 -55.5t4 -55
t5.5 -42.5t7 -17q5 0 15 25.5t22 66.5t25 93.5t25 106.5t22 105.5t15 89.5q16 79 29 121t37 42q17 0 30.5 -16t13.5 -33q0 -20 -2.5 -51.5t-5 -76.5t-5 -104.5t-2.5 -134.5q0 -52 2 -100.5t6.5 -85.5t13 -59.5t22.5 -22.5q15 0 31.5 24t30.5 53t23.5 52.5t12.5 23.5
q6 -1 15 -1t9 -5q0 -9 -10.5 -37.5t-28 -60t-41 -56t-48.5 -24.5q-33 0 -54.5 32.5t-34 84t-17 114.5t-4.5 125q0 42 1 81t3 72l-17.5 -86.5l-20 -91.5l-21 -90l-20.5 -83h1q0 -3 -5.5 -24t-15.5 -45t-24.5 -43t-32.5 -19q-22 0 -37.5 19t-25.5 44t-15 50t-6 38
q-2 17 -2 35.5v35.5q0 45 3.5 90t8 89.5t8 89.5t3.5 91q0 11 -1 23t-3.5 21.5t-7.5 16t-12 6.5q-6 0 -17 -7zM270 803q-29 0 -54.5 12t-43.5 50q-2 4 -2 6q0 6 8 9.5t16 3.5q5 0 10 -1t7 -5q14 -29 25.5 -44t35.5 -27z" />
    <glyph glyph-name="Uacute" unicode="&#xda;" horiz-adv-x="498" 
d="M28 674q-15 -9 -29 -26.5t-24.5 -39.5t-17 -47t-6.5 -49q0 -11 1 -16q0 -13 -12 -13q-8 0 -12.5 4t-6.5 10t-2.5 12t-0.5 11q0 36 12 70.5t31.5 61.5t43 43.5t47.5 16.5q23 0 39.5 -12t27.5 -32t16.5 -46t5.5 -54q-5 -82 -13.5 -163t-8.5 -165q0 -26 1.5 -55.5t4 -55
t5.5 -42.5t7 -17q5 0 15 25.5t22 66.5t25 93.5t25 106.5t22 105.5t15 89.5q16 79 29 121t37 42q17 0 30.5 -16t13.5 -33q0 -20 -2.5 -51.5t-5 -76.5t-5 -104.5t-2.5 -134.5q0 -52 2 -100.5t6.5 -85.5t13 -59.5t22.5 -22.5q15 0 31.5 24t30.5 53t23.5 52.5t12.5 23.5
q6 -1 15 -1t9 -5q0 -9 -10.5 -37.5t-28 -60t-41 -56t-48.5 -24.5q-33 0 -54.5 32.5t-34 84t-17 114.5t-4.5 125q0 42 1 81t3 72l-17.5 -86.5l-20 -91.5l-21 -90l-20.5 -83h1q0 -3 -5.5 -24t-15.5 -45t-24.5 -43t-32.5 -19q-22 0 -37.5 19t-25.5 44t-15 50t-6 38
q-2 17 -2 35.5v35.5q0 45 3.5 90t8 89.5t8 89.5t3.5 91q0 11 -1 23t-3.5 21.5t-7.5 16t-12 6.5q-6 0 -17 -7zM194 813q24 12 35.5 27t25.5 44q2 4 6.5 5t10.5 1q8 0 16 -3.5t8 -9.5q0 -2 -2 -6q-18 -37 -43.5 -49.5t-54.5 -12.5z" />
    <glyph glyph-name="Ucircumflex" unicode="&#xdb;" horiz-adv-x="498" 
d="M28 674q-15 -9 -29 -26.5t-24.5 -39.5t-17 -47t-6.5 -49q0 -11 1 -16q0 -13 -12 -13q-8 0 -12.5 4t-6.5 10t-2.5 12t-0.5 11q0 36 12 70.5t31.5 61.5t43 43.5t47.5 16.5q23 0 39.5 -12t27.5 -32t16.5 -46t5.5 -54q-5 -82 -13.5 -163t-8.5 -165q0 -26 1.5 -55.5t4 -55
t5.5 -42.5t7 -17q5 0 15 25.5t22 66.5t25 93.5t25 106.5t22 105.5t15 89.5q16 79 29 121t37 42q17 0 30.5 -16t13.5 -33q0 -20 -2.5 -51.5t-5 -76.5t-5 -104.5t-2.5 -134.5q0 -52 2 -100.5t6.5 -85.5t13 -59.5t22.5 -22.5q15 0 31.5 24t30.5 53t23.5 52.5t12.5 23.5
q6 -1 15 -1t9 -5q0 -9 -10.5 -37.5t-28 -60t-41 -56t-48.5 -24.5q-33 0 -54.5 32.5t-34 84t-17 114.5t-4.5 125q0 42 1 81t3 72l-17.5 -86.5l-20 -91.5l-21 -90l-20.5 -83h1q0 -3 -5.5 -24t-15.5 -45t-24.5 -43t-32.5 -19q-22 0 -37.5 19t-25.5 44t-15 50t-6 38
q-2 17 -2 35.5v35.5q0 45 3.5 90t8 89.5t8 89.5t3.5 91q0 11 -1 23t-3.5 21.5t-7.5 16t-12 6.5q-6 0 -17 -7zM183 825q-7 0 -7 5q25 17 43 36t28 44l9 12q1 1 5 1q3 0 4 -1q4 -16 8 -27t9.5 -20.5t13 -18t18.5 -18.5q0 -2 -3 -7t-7 -9.5t-7.5 -8t-4.5 -3.5q-9 0 -16 11.5
t-12.5 26t-9 27t-3.5 14.5q-12 -21 -28 -36.5t-35 -26.5z" />
    <glyph glyph-name="Udieresis" unicode="&#xdc;" horiz-adv-x="498" 
d="M28 674q-15 -9 -29 -26.5t-24.5 -39.5t-17 -47t-6.5 -49q0 -11 1 -16q0 -13 -12 -13q-8 0 -12.5 4t-6.5 10t-2.5 12t-0.5 11q0 36 12 70.5t31.5 61.5t43 43.5t47.5 16.5q23 0 39.5 -12t27.5 -32t16.5 -46t5.5 -54q-5 -82 -13.5 -163t-8.5 -165q0 -26 1.5 -55.5t4 -55
t5.5 -42.5t7 -17q5 0 15 25.5t22 66.5t25 93.5t25 106.5t22 105.5t15 89.5q16 79 29 121t37 42q17 0 30.5 -16t13.5 -33q0 -20 -2.5 -51.5t-5 -76.5t-5 -104.5t-2.5 -134.5q0 -52 2 -100.5t6.5 -85.5t13 -59.5t22.5 -22.5q15 0 31.5 24t30.5 53t23.5 52.5t12.5 23.5
q6 -1 15 -1t9 -5q0 -9 -10.5 -37.5t-28 -60t-41 -56t-48.5 -24.5q-33 0 -54.5 32.5t-34 84t-17 114.5t-4.5 125q0 42 1 81t3 72l-17.5 -86.5l-20 -91.5l-21 -90l-20.5 -83h1q0 -3 -5.5 -24t-15.5 -45t-24.5 -43t-32.5 -19q-22 0 -37.5 19t-25.5 44t-15 50t-6 38
q-2 17 -2 35.5v35.5q0 45 3.5 90t8 89.5t8 89.5t3.5 91q0 11 -1 23t-3.5 21.5t-7.5 16t-12 6.5q-6 0 -17 -7zM281 805q-14 0 -23.5 9t-9.5 23q0 13 9.5 22t23.5 9t23.5 -9t9.5 -22q0 -14 -9.5 -23t-23.5 -9zM154 803q-14 0 -24 9t-10 22q0 14 10 23t24 9t23.5 -9t9.5 -23
q0 -13 -9.5 -22t-23.5 -9z" />
    <glyph glyph-name="Yacute" unicode="&#xdd;" horiz-adv-x="483" 
d="M151 -132q0 28 12.5 52t34 46t51 42t63.5 41q10 129 11.5 247t8.5 231q-10 -31 -22 -80l-26 -104.5t-30 -111.5t-34 -101.5t-38.5 -74t-42.5 -28.5q-21 0 -34 16t-20 39t-9.5 49t-2.5 46q0 35 2.5 75t6 80.5t6 80t2.5 75.5q0 24 -1.5 47.5t-5.5 42.5t-10.5 30.5
t-15.5 11.5q-13 0 -27.5 -18.5t-27.5 -43.5t-21.5 -49.5t-9.5 -36.5q-2 -10 -14 -10q-8 0 -13.5 5.5t-5.5 13.5q2 13 11.5 42t26 58t40 51t52.5 22q26 0 43 -21t26.5 -54t13.5 -73.5t4 -79.5q0 -47 -3 -95t-7 -90.5l-7 -76t-3 -52.5q0 -29 3.5 -41t8.5 -12t12 10
q15 21 29.5 56.5t27.5 79t25 91l22.5 93l20.5 85t18 67.5l17.5 57t14.5 39.5t14.5 22.5t17.5 7q14 0 25.5 -12t11.5 -29q-2 -29 -2 -87t-1.5 -132t-6 -157t-13.5 -162q32 20 59 45.5t44 55.5q4 5 10 5t11 -3t7.5 -8.5t0.5 -10.5q-18 -38 -55.5 -67.5t-81.5 -55.5
q-8 -55 -21 -104.5t-31 -87t-41 -60t-51 -22.5q-35 0 -57.5 28t-22.5 65zM235 -192q15 9 26.5 29.5t20.5 48t15 60t11 65.5q-56 -35 -90.5 -70.5t-34.5 -77.5q0 -23 10 -42t27 -19q6 0 15 6zM187 810q24 12 35.5 27t25.5 44q2 4 6.5 5t10.5 1q8 0 16 -3.5t8 -9.5q0 -2 -2 -6
q-18 -37 -43.5 -49.5t-54.5 -12.5z" />
    <glyph glyph-name="agrave" unicode="&#xe0;" 
d="M153 224l-1 -1q1 6 7.5 9.5t15.5 3.5q12 0 24.5 -7t12.5 -21q0 -16 -2.5 -26t-5 -23t-5 -32.5t-2.5 -54.5q0 -14 1 -23t3 -9l4 2h-1q15 9 29 26.5t27 38.5t24 42.5l20 38.5q3 6 12 6q7 0 13.5 -4.5t6.5 -10.5q0 -8 -11.5 -30t-28 -48.5t-35.5 -50.5t-34 -34t-31 -10
t-27 11.5t-18 29.5t-10 39.5t-3 41.5q0 6 -1 6q-13 -28 -28 -48t-29 -32.5t-26 -18t-19 -5.5q-14 0 -24 9t-16 22t-8.5 28.5t-2.5 28.5q0 28 8 54.5t22 47.5t33 33.5t40 12.5q23 0 41 -12t23 -35zM123 176q3 10 3 18q0 17 -6.5 26t-15.5 9q-15 0 -26.5 -15t-19.5 -36
t-12.5 -43.5t-4.5 -37.5q0 -28 7 -28q5 0 14.5 11.5t20.5 28l22 34.5t18 32v1zM196 363q-29 0 -54.5 12t-43.5 50q-2 4 -2 6q0 6 8 9.5t16 3.5q5 0 10 -1t7 -5q14 -29 25.5 -44t35.5 -27zM138 133q-1 -1 -1 -2q0 1 1 2z" />
    <glyph glyph-name="aacute" unicode="&#xe1;" 
d="M153 224l-1 -1q1 6 7.5 9.5t15.5 3.5q12 0 24.5 -7t12.5 -21q0 -16 -2.5 -26t-5 -23t-5 -32.5t-2.5 -54.5q0 -14 1 -23t3 -9l4 2h-1q15 9 29 26.5t27 38.5t24 42.5l20 38.5q3 6 12 6q7 0 13.5 -4.5t6.5 -10.5q0 -8 -11.5 -30t-28 -48.5t-35.5 -50.5t-34 -34t-31 -10
t-27 11.5t-18 29.5t-10 39.5t-3 41.5q0 6 -1 6q-13 -28 -28 -48t-29 -32.5t-26 -18t-19 -5.5q-14 0 -24 9t-16 22t-8.5 28.5t-2.5 28.5q0 28 8 54.5t22 47.5t33 33.5t40 12.5q23 0 41 -12t23 -35zM123 176q3 10 3 18q0 17 -6.5 26t-15.5 9q-15 0 -26.5 -15t-19.5 -36
t-12.5 -43.5t-4.5 -37.5q0 -28 7 -28q5 0 14.5 11.5t20.5 28l22 34.5t18 32v1zM97 374q24 12 35.5 27t25.5 44q2 4 6.5 5t10.5 1q8 0 16 -3.5t8 -9.5q0 -2 -2 -6q-18 -37 -43.5 -49.5t-54.5 -12.5zM138 133q-1 -1 -1 -2q0 1 1 2z" />
    <glyph glyph-name="acircumflex" unicode="&#xe2;" 
d="M153 224l-1 -1q1 6 7.5 9.5t15.5 3.5q12 0 24.5 -7t12.5 -21q0 -16 -2.5 -26t-5 -23t-5 -32.5t-2.5 -54.5q0 -14 1 -23t3 -9l4 2h-1q15 9 29 26.5t27 38.5t24 42.5l20 38.5q3 6 12 6q7 0 13.5 -4.5t6.5 -10.5q0 -8 -11.5 -30t-28 -48.5t-35.5 -50.5t-34 -34t-31 -10
t-27 11.5t-18 29.5t-10 39.5t-3 41.5q0 6 -1 6q-13 -28 -28 -48t-29 -32.5t-26 -18t-19 -5.5q-14 0 -24 9t-16 22t-8.5 28.5t-2.5 28.5q0 28 8 54.5t22 47.5t33 33.5t40 12.5q23 0 41 -12t23 -35zM123 176q3 10 3 18q0 17 -6.5 26t-15.5 9q-15 0 -26.5 -15t-19.5 -36
t-12.5 -43.5t-4.5 -37.5q0 -28 7 -28q5 0 14.5 11.5t20.5 28l22 34.5t18 32v1zM97 376q-7 0 -7 5q25 17 43 36t28 44l9 12q1 1 5 1q3 0 4 -1q4 -16 8 -27t9.5 -20.5t13 -18t18.5 -18.5q0 -2 -3 -7t-7 -9.5t-7.5 -8t-4.5 -3.5q-9 0 -16 11.5t-12.5 26t-9 27t-3.5 14.5
q-12 -21 -28 -36.5t-35 -26.5zM138 133q-1 -1 -1 -2q0 1 1 2z" />
    <glyph glyph-name="atilde" unicode="&#xe3;" 
d="M153 224l-1 -1q1 6 7.5 9.5t15.5 3.5q12 0 24.5 -7t12.5 -21q0 -16 -2.5 -26t-5 -23t-5 -32.5t-2.5 -54.5q0 -14 1 -23t3 -9l4 2h-1q15 9 29 26.5t27 38.5t24 42.5l20 38.5q3 6 12 6q7 0 13.5 -4.5t6.5 -10.5q0 -8 -11.5 -30t-28 -48.5t-35.5 -50.5t-34 -34t-31 -10
t-27 11.5t-18 29.5t-10 39.5t-3 41.5q0 6 -1 6q-13 -28 -28 -48t-29 -32.5t-26 -18t-19 -5.5q-14 0 -24 9t-16 22t-8.5 28.5t-2.5 28.5q0 28 8 54.5t22 47.5t33 33.5t40 12.5q23 0 41 -12t23 -35zM123 176q3 10 3 18q0 17 -6.5 26t-15.5 9q-15 0 -26.5 -15t-19.5 -36
t-12.5 -43.5t-4.5 -37.5q0 -28 7 -28q5 0 14.5 11.5t20.5 28l22 34.5t18 32v1zM45 400q-2 1 -5 3.5t-5 4.5q-3 3 -5 6l9 1q0 -5 6 -8t14.5 -5t16 -3.5t10.5 -1.5q9 0 20 3.5t23 8t23.5 8t21.5 3.5q27 0 57 -27v1q6 -5 13 -12.5t6 -7.5q-1 -1 -5 -1q-5 0 -12.5 4.5t-15.5 10
t-15.5 10t-13.5 4.5q-8 0 -17 -4l-19.5 -8.5t-23.5 -8.5t-28 -4q-29 0 -56 23h1zM138 133q-1 -1 -1 -2q0 1 1 2z" />
    <glyph glyph-name="adieresis" unicode="&#xe4;" 
d="M153 224l-1 -1q1 6 7.5 9.5t15.5 3.5q12 0 24.5 -7t12.5 -21q0 -16 -2.5 -26t-5 -23t-5 -32.5t-2.5 -54.5q0 -14 1 -23t3 -9l4 2h-1q15 9 29 26.5t27 38.5t24 42.5l20 38.5q3 6 12 6q7 0 13.5 -4.5t6.5 -10.5q0 -8 -11.5 -30t-28 -48.5t-35.5 -50.5t-34 -34t-31 -10
t-27 11.5t-18 29.5t-10 39.5t-3 41.5q0 6 -1 6q-13 -28 -28 -48t-29 -32.5t-26 -18t-19 -5.5q-14 0 -24 9t-16 22t-8.5 28.5t-2.5 28.5q0 28 8 54.5t22 47.5t33 33.5t40 12.5q23 0 41 -12t23 -35zM123 176q3 10 3 18q0 17 -6.5 26t-15.5 9q-15 0 -26.5 -15t-19.5 -36
t-12.5 -43.5t-4.5 -37.5q0 -28 7 -28q5 0 14.5 11.5t20.5 28l22 34.5t18 32v1zM65 366q-14 0 -24 9t-10 22q0 14 10 23t24 9t23.5 -9t9.5 -23q0 -13 -9.5 -22t-23.5 -9zM192 368q-14 0 -23.5 9t-9.5 23q0 13 9.5 22t23.5 9t23.5 -9t9.5 -22q0 -14 -9.5 -23t-23.5 -9z
M138 133q-1 -1 -1 -2q0 1 1 2z" />
    <glyph glyph-name="aring" unicode="&#xe5;" 
d="M153 224l-1 -1q1 6 7.5 9.5t15.5 3.5q12 0 24.5 -7t12.5 -21q0 -16 -2.5 -26t-5 -23t-5 -32.5t-2.5 -54.5q0 -14 1 -23t3 -9l4 2h-1q15 9 29 26.5t27 38.5t24 42.5l20 38.5q3 6 12 6q7 0 13.5 -4.5t6.5 -10.5q0 -8 -11.5 -30t-28 -48.5t-35.5 -50.5t-34 -34t-31 -10
t-27 11.5t-18 29.5t-10 39.5t-3 41.5q0 6 -1 6q-13 -28 -28 -48t-29 -32.5t-26 -18t-19 -5.5q-14 0 -24 9t-16 22t-8.5 28.5t-2.5 28.5q0 28 8 54.5t22 47.5t33 33.5t40 12.5q23 0 41 -12t23 -35zM181 487q9 -11 13 -24t4 -26q0 -32 -19.5 -52.5t-45.5 -20.5q-12 0 -23.5 6
t-20.5 16t-14.5 23t-5.5 28q0 28 19 49.5t46 21.5t47 -21zM166 479q-14 17 -32 17q-19 0 -32.5 -17.5t-13.5 -37.5t14.5 -37t31.5 -17t31.5 15.5t14.5 39.5q0 20 -14 37zM123 176q3 10 3 18q0 17 -6.5 26t-15.5 9q-15 0 -26.5 -15t-19.5 -36t-12.5 -43.5t-4.5 -37.5
q0 -28 7 -28q5 0 14.5 11.5t20.5 28l22 34.5t18 32v1zM138 133q-1 -1 -1 -2q0 1 1 2z" />
    <glyph glyph-name="ae" unicode="&#xe6;" horiz-adv-x="419" 
d="M345 238q0 -19 -13 -39.5t-34 -38.5t-47.5 -32t-53.5 -21q3 -25 13 -42.5t34 -17.5q23 0 49.5 15.5t51 38t44 46.5t30.5 41q3 7 14 7q6 0 12 -3.5t6 -8.5q0 -1 -1 -3l-2 -4q-15 -26 -38.5 -55.5t-52 -54t-61 -40.5t-65.5 -16q-24 0 -42 10t-30 26t-17.5 36t-5.5 41v9
q-13 -28 -28 -47.5t-28.5 -31.5t-25.5 -17.5t-19 -5.5q-14 0 -24 9t-16 22t-8.5 28.5t-2.5 28.5q0 28 8 54.5t22 47.5t33 33.5t40 12.5q23 0 41 -12t23 -35l2 5l-1 -1q2 13 22 13q20 26 47 40.5t55 14.5q32 0 50.5 -14.5t18.5 -38.5zM123 176q3 10 3 18q0 17 -6.5 26
t-15.5 9q-15 0 -26.5 -15t-19.5 -36t-12.5 -43.5t-4.5 -37.5q0 -28 7 -28q5 0 14.5 11.5t20.5 28l22 34.5t18 32v1zM283 262q-19 0 -34.5 -14t-27 -34t-18 -41.5t-6.5 -36.5q19 7 39.5 19t37 25.5t27 28t10.5 27.5t-9 19.5t-19 6.5zM138 133q-1 -1 -1 -2q0 1 1 2z" />
    <glyph glyph-name="ccedilla" unicode="&#xe7;" horiz-adv-x="231" 
d="M73 43q20 1 42 17t43.5 38t40 46.5t31.5 43.5q3 6 13 6q6 0 11.5 -4.5t5.5 -9.5q0 -1 -1 -3l-2 -4q-13 -21 -31.5 -45t-40 -45.5t-45 -39.5t-47.5 -27q-8 -24 -10.5 -35.5t-2.5 -16.5h14q30 0 44 -14.5t14 -31.5q0 -16 -8 -27t-20.5 -18t-28 -10.5t-29.5 -3.5
q-10 0 -23 2t-13 8q0 7 9 7q5 0 12 -1t12 -1q21 0 38.5 11t17.5 36q0 12 -8.5 21.5t-25.5 9.5q-5 0 -10.5 -1t-10.5 -1q-18 0 -18 12q0 3 2 13.5t10 33.5h-2q-21 0 -35.5 9t-23 24t-12 33t-3.5 36q0 28 8.5 58t24.5 54t38.5 39.5t50.5 15.5q5 0 14.5 -1.5t18.5 -4.5t16 -7.5
t7 -10.5q0 -5 -4 -8.5t-11 -3.5q-2 0 -11 3t-14 3q-18 0 -32.5 -14.5t-25.5 -36t-17 -48t-6 -50.5q0 -21 7 -38.5t27 -17.5z" />
    <glyph glyph-name="egrave" unicode="&#xe8;" horiz-adv-x="268" 
d="M194 238q0 -19 -13 -39.5t-34 -38.5t-47.5 -32t-53.5 -21q3 -25 13 -42.5t34 -17.5q23 0 49.5 15.5t51 38t44 46.5t30.5 41q3 7 14 7q6 0 12 -3.5t6 -8.5q0 -1 -1 -3l-2 -4q-15 -26 -38.5 -55.5t-52 -54t-61 -40.5t-65.5 -16q-24 0 -42 10t-30 26t-17.5 36t-5.5 41
q0 36 12 66.5t32 53t45 35.5t51 13q32 0 50.5 -14.5t18.5 -38.5zM132 262q-19 0 -34 -13t-26 -32t-17.5 -41t-8.5 -40q19 7 39.5 19t37 25.5t27 28t10.5 27.5t-9 19.5t-19 6.5zM143 364q-29 0 -54.5 12t-43.5 50q-2 4 -2 6q0 6 8 9.5t16 3.5q5 0 10 -1t7 -5q14 -29 25.5 -44
t35.5 -27z" />
    <glyph glyph-name="eacute" unicode="&#xe9;" horiz-adv-x="268" 
d="M194 238q0 -19 -13 -39.5t-34 -38.5t-47.5 -32t-53.5 -21q3 -25 13 -42.5t34 -17.5q23 0 49.5 15.5t51 38t44 46.5t30.5 41q3 7 14 7q6 0 12 -3.5t6 -8.5q0 -1 -1 -3l-2 -4q-15 -26 -38.5 -55.5t-52 -54t-61 -40.5t-65.5 -16q-24 0 -42 10t-30 26t-17.5 36t-5.5 41
q0 36 12 66.5t32 53t45 35.5t51 13q32 0 50.5 -14.5t18.5 -38.5zM132 262q-19 0 -34 -13t-26 -32t-17.5 -41t-8.5 -40q19 7 39.5 19t37 25.5t27 28t10.5 27.5t-9 19.5t-19 6.5zM74 374q24 12 35.5 27t25.5 44q2 4 6.5 5t10.5 1q8 0 16 -3.5t8 -9.5q0 -2 -2 -6
q-18 -37 -43.5 -49.5t-54.5 -12.5z" />
    <glyph glyph-name="ecircumflex" unicode="&#xea;" horiz-adv-x="268" 
d="M194 238q0 -19 -13 -39.5t-34 -38.5t-47.5 -32t-53.5 -21q3 -25 13 -42.5t34 -17.5q23 0 49.5 15.5t51 38t44 46.5t30.5 41q3 7 14 7q6 0 12 -3.5t6 -8.5q0 -1 -1 -3l-2 -4q-15 -26 -38.5 -55.5t-52 -54t-61 -40.5t-65.5 -16q-24 0 -42 10t-30 26t-17.5 36t-5.5 41
q0 36 12 66.5t32 53t45 35.5t51 13q32 0 50.5 -14.5t18.5 -38.5zM132 262q-19 0 -34 -13t-26 -32t-17.5 -41t-8.5 -40q19 7 39.5 19t37 25.5t27 28t10.5 27.5t-9 19.5t-19 6.5zM41 380q-7 0 -7 5q25 17 43 36t28 44l9 12q1 1 5 1q3 0 4 -1q4 -16 8 -27t9.5 -20.5t13 -18
t18.5 -18.5q0 -2 -3 -7t-7 -9.5t-7.5 -8t-4.5 -3.5q-9 0 -16 11.5t-12.5 26t-9 27t-3.5 14.5q-12 -21 -28 -36.5t-35 -26.5z" />
    <glyph glyph-name="edieresis" unicode="&#xeb;" horiz-adv-x="268" 
d="M194 238q0 -19 -13 -39.5t-34 -38.5t-47.5 -32t-53.5 -21q3 -25 13 -42.5t34 -17.5q23 0 49.5 15.5t51 38t44 46.5t30.5 41q3 7 14 7q6 0 12 -3.5t6 -8.5q0 -1 -1 -3l-2 -4q-15 -26 -38.5 -55.5t-52 -54t-61 -40.5t-65.5 -16q-24 0 -42 10t-30 26t-17.5 36t-5.5 41
q0 36 12 66.5t32 53t45 35.5t51 13q32 0 50.5 -14.5t18.5 -38.5zM132 262q-19 0 -34 -13t-26 -32t-17.5 -41t-8.5 -40q19 7 39.5 19t37 25.5t27 28t10.5 27.5t-9 19.5t-19 6.5zM172 367q-14 0 -23.5 9t-9.5 23q0 13 9.5 22t23.5 9t23.5 -9t9.5 -22q0 -14 -9.5 -23t-23.5 -9z
M45 365q-14 0 -24 9t-10 22q0 14 10 23t24 9t23.5 -9t9.5 -23q0 -13 -9.5 -22t-23.5 -9z" />
    <glyph glyph-name="igrave" unicode="&#xec;" horiz-adv-x="138" 
d="M69 281q0 -14 -4 -43t-8 -61.5t-6.5 -62.5t0.5 -46l3 -8q6 0 17 14.5t23.5 35t24 42t18.5 36.5q1 6 10 6q6 0 12.5 -4t7.5 -9q1 -2 -1 -8q-11 -23 -25.5 -50.5t-30.5 -51t-32 -39t-30 -15.5q-15 0 -27 13t-18 41q-6 25 -7 57.5t-0.5 63.5t2.5 57t4 40q1 10 9.5 14.5
t19.5 4.5q32 0 38 -27zM83 367q-29 0 -54.5 12t-43.5 50q-2 4 -2 6q0 6 8 9.5t16 3.5q5 0 10 -1t7 -5q14 -29 25.5 -44t35.5 -27z" />
    <glyph glyph-name="iacute" unicode="&#xed;" horiz-adv-x="138" 
d="M69 281q0 -14 -4 -43t-8 -61.5t-6.5 -62.5t0.5 -46l3 -8q6 0 17 14.5t23.5 35t24 42t18.5 36.5q1 6 10 6q6 0 12.5 -4t7.5 -9q1 -2 -1 -8q-11 -23 -25.5 -50.5t-30.5 -51t-32 -39t-30 -15.5q-15 0 -27 13t-18 41q-6 25 -7 57.5t-0.5 63.5t2.5 57t4 40q1 10 9.5 14.5
t19.5 4.5q32 0 38 -27zM5 370q24 12 35.5 27t25.5 44q2 4 6.5 5t10.5 1q8 0 16 -3.5t8 -9.5q0 -2 -2 -6q-18 -37 -43.5 -49.5t-54.5 -12.5z" />
    <glyph glyph-name="icircumflex" unicode="&#xee;" horiz-adv-x="138" 
d="M69 281q0 -14 -4 -43t-8 -61.5t-6.5 -62.5t0.5 -46l3 -8q6 0 17 14.5t23.5 35t24 42t18.5 36.5q1 6 10 6q6 0 12.5 -4t7.5 -9q1 -2 -1 -8q-11 -23 -25.5 -50.5t-30.5 -51t-32 -39t-30 -15.5q-15 0 -27 13t-18 41q-6 25 -7 57.5t-0.5 63.5t2.5 57t4 40q1 10 9.5 14.5
t19.5 4.5q32 0 38 -27zM-28 381q-7 0 -7 5q25 17 43 36t28 44l9 12q1 1 5 1q3 0 4 -1q4 -16 8 -27t9.5 -20.5t13 -18t18.5 -18.5q0 -2 -3 -7t-7 -9.5t-7.5 -8t-4.5 -3.5q-9 0 -16 11.5t-12.5 26t-9 27t-3.5 14.5q-12 -21 -28 -36.5t-35 -26.5z" />
    <glyph glyph-name="idieresis" unicode="&#xef;" horiz-adv-x="138" 
d="M69 281q0 -14 -4 -43t-8 -61.5t-6.5 -62.5t0.5 -46l3 -8q6 0 17 14.5t23.5 35t24 42t18.5 36.5q1 6 10 6q6 0 12.5 -4t7.5 -9q1 -2 -1 -8q-11 -23 -25.5 -50.5t-30.5 -51t-32 -39t-30 -15.5q-15 0 -27 13t-18 41q-6 25 -7 57.5t-0.5 63.5t2.5 57t4 40q1 10 9.5 14.5
t19.5 4.5q32 0 38 -27zM107 376q-14 0 -23.5 9t-9.5 23q0 13 9.5 22t23.5 9t23.5 -9t9.5 -22q0 -14 -9.5 -23t-23.5 -9zM-20 374q-14 0 -24 9t-10 22q0 14 10 23t24 9t23.5 -9t9.5 -23q0 -13 -9.5 -22t-23.5 -9z" />
    <glyph glyph-name="ntilde" unicode="&#xf1;" horiz-adv-x="282" 
d="M61 255q-4 -39 -7 -75t-6 -78q9 20 23.5 47.5t30 53t31.5 43.5t30 18q18 0 24 -21.5t6 -48.5q0 -29 -3.5 -64.5t-3.5 -61.5q0 -12 1 -20t4 -8q6 0 17 14.5t23.5 36.5t26 48.5l24.5 49.5q3 6 8.5 6.5t11 -2.5t8.5 -8t2 -11l-17 -34l-24 -47.5t-25 -44.5t-27.5 -33
t-30.5 -13q-18 0 -29 10.5t-17 27t-8.5 36.5t-2.5 40q0 25 2.5 46t2.5 35q-22 -36 -42.5 -83t-47.5 -95q-9 -11 -26 -11q-11 0 -20 5.5t-9 20.5q0 43 2.5 87.5t4.5 88.5l3 57q1 11 9 16t17 5q14 0 24 -8.5t10 -24.5zM-17 401q-2 1 -5 3.5t-5 4.5q-3 3 -5 6l9 1q0 -5 6 -8
t14.5 -5t16 -3.5t10.5 -1.5q9 0 20 3.5t23 8t23.5 8t21.5 3.5q27 0 57 -27v1q6 -5 13 -12.5t6 -7.5q-1 -1 -5 -1q-5 0 -12.5 4.5t-15.5 10t-15.5 10t-13.5 4.5q-8 0 -17 -4l-19.5 -8.5t-23.5 -8.5t-28 -4q-29 0 -56 23h1z" />
    <glyph glyph-name="ograve" unicode="&#xf2;" horiz-adv-x="290" 
d="M98 257q10 31 28.5 39.5t36 -2t30.5 -38.5t13 -71q0 -25 -2.5 -48.5t-8.5 -43.5q15 4 30 19.5t28.5 32.5l23.5 30.5t13 13.5q7 5 15 0.5t8 -9.5q0 -1 -1 -3l-2 -4q-9 -15 -21.5 -33.5t-27.5 -35t-33 -28t-38 -11.5h-8q-16 -26 -40 -43t-56 -17q-23 0 -39.5 10.5
t-27.5 28.5t-16.5 41t-5.5 47q0 57 26 91t75 34zM151 78q-14 12 -24 29.5t-16.5 38t-10 41t-4.5 37.5q-21 -7 -31.5 -38t-10.5 -67q0 -15 2.5 -29t8.5 -25.5t15.5 -18.5t23.5 -7q14 -1 26.5 11.5t20.5 27.5zM175 192q-2 27 -7.5 46t-12.5 28t-14 6t-12 -20q8 -4 18 -10
t18 -14q3 -5 1.5 -15.5t-6.5 -13.5q-8 8 -19.5 13.5l-13.5 6.5q0 -12 2.5 -28t6.5 -31.5t10.5 -29.5t15.5 -23q7 20 10 41.5t3 43.5zM168 367q-29 0 -54.5 12t-43.5 50q-2 4 -2 6q0 6 8 9.5t16 3.5q5 0 10 -1t7 -5q14 -29 25.5 -44t35.5 -27z" />
    <glyph glyph-name="oacute" unicode="&#xf3;" horiz-adv-x="290" 
d="M98 257q10 31 28.5 39.5t36 -2t30.5 -38.5t13 -71q0 -25 -2.5 -48.5t-8.5 -43.5q15 4 30 19.5t28.5 32.5l23.5 30.5t13 13.5q7 5 15 0.5t8 -9.5q0 -1 -1 -3l-2 -4q-9 -15 -21.5 -33.5t-27.5 -35t-33 -28t-38 -11.5h-8q-16 -26 -40 -43t-56 -17q-23 0 -39.5 10.5
t-27.5 28.5t-16.5 41t-5.5 47q0 57 26 91t75 34zM151 78q-14 12 -24 29.5t-16.5 38t-10 41t-4.5 37.5q-21 -7 -31.5 -38t-10.5 -67q0 -15 2.5 -29t8.5 -25.5t15.5 -18.5t23.5 -7q14 -1 26.5 11.5t20.5 27.5zM175 192q-2 27 -7.5 46t-12.5 28t-14 6t-12 -20q8 -4 18 -10
t18 -14q3 -5 1.5 -15.5t-6.5 -13.5q-8 8 -19.5 13.5l-13.5 6.5q0 -12 2.5 -28t6.5 -31.5t10.5 -29.5t15.5 -23q7 20 10 41.5t3 43.5zM76 365q24 12 35.5 27t25.5 44q2 4 6.5 5t10.5 1q8 0 16 -3.5t8 -9.5q0 -2 -2 -6q-18 -37 -43.5 -49.5t-54.5 -12.5z" />
    <glyph glyph-name="ocircumflex" unicode="&#xf4;" horiz-adv-x="290" 
d="M98 257q10 31 28.5 39.5t36 -2t30.5 -38.5t13 -71q0 -25 -2.5 -48.5t-8.5 -43.5q15 4 30 19.5t28.5 32.5l23.5 30.5t13 13.5q7 5 15 0.5t8 -9.5q0 -1 -1 -3l-2 -4q-9 -15 -21.5 -33.5t-27.5 -35t-33 -28t-38 -11.5h-8q-16 -26 -40 -43t-56 -17q-23 0 -39.5 10.5
t-27.5 28.5t-16.5 41t-5.5 47q0 57 26 91t75 34zM151 78q-14 12 -24 29.5t-16.5 38t-10 41t-4.5 37.5q-21 -7 -31.5 -38t-10.5 -67q0 -15 2.5 -29t8.5 -25.5t15.5 -18.5t23.5 -7q14 -1 26.5 11.5t20.5 27.5zM175 192q-2 27 -7.5 46t-12.5 28t-14 6t-12 -20q8 -4 18 -10
t18 -14q3 -5 1.5 -15.5t-6.5 -13.5q-8 8 -19.5 13.5l-13.5 6.5q0 -12 2.5 -28t6.5 -31.5t10.5 -29.5t15.5 -23q7 20 10 41.5t3 43.5zM74 378q-7 0 -7 5q25 17 43 36t28 44l9 12q1 1 5 1q3 0 4 -1q4 -16 8 -27t9.5 -20.5t13 -18t18.5 -18.5q0 -2 -3 -7t-7 -9.5t-7.5 -8
t-4.5 -3.5q-9 0 -16 11.5t-12.5 26t-9 27t-3.5 14.5q-12 -21 -28 -36.5t-35 -26.5z" />
    <glyph glyph-name="otilde" unicode="&#xf5;" horiz-adv-x="290" 
d="M98 257q10 31 28.5 39.5t36 -2t30.5 -38.5t13 -71q0 -25 -2.5 -48.5t-8.5 -43.5q15 4 30 19.5t28.5 32.5l23.5 30.5t13 13.5q7 5 15 0.5t8 -9.5q0 -1 -1 -3l-2 -4q-9 -15 -21.5 -33.5t-27.5 -35t-33 -28t-38 -11.5h-8q-16 -26 -40 -43t-56 -17q-23 0 -39.5 10.5
t-27.5 28.5t-16.5 41t-5.5 47q0 57 26 91t75 34zM151 78q-14 12 -24 29.5t-16.5 38t-10 41t-4.5 37.5q-21 -7 -31.5 -38t-10.5 -67q0 -15 2.5 -29t8.5 -25.5t15.5 -18.5t23.5 -7q14 -1 26.5 11.5t20.5 27.5zM175 192q-2 27 -7.5 46t-12.5 28t-14 6t-12 -20q8 -4 18 -10
t18 -14q3 -5 1.5 -15.5t-6.5 -13.5q-8 8 -19.5 13.5l-13.5 6.5q0 -12 2.5 -28t6.5 -31.5t10.5 -29.5t15.5 -23q7 20 10 41.5t3 43.5zM24 395q-2 1 -5 3.5t-5 4.5q-3 3 -5 6l9 1q0 -5 6 -8t14.5 -5t16 -3.5t10.5 -1.5q9 0 20 3.5t23 8t23.5 8t21.5 3.5q27 0 57 -27v1
q6 -5 13 -12.5t6 -7.5q-1 -1 -5 -1q-5 0 -12.5 4.5t-15.5 10t-15.5 10t-13.5 4.5q-8 0 -17 -4l-19.5 -8.5t-23.5 -8.5t-28 -4q-29 0 -56 23h1z" />
    <glyph glyph-name="odieresis" unicode="&#xf6;" horiz-adv-x="290" 
d="M98 257q10 31 28.5 39.5t36 -2t30.5 -38.5t13 -71q0 -25 -2.5 -48.5t-8.5 -43.5q15 4 30 19.5t28.5 32.5l23.5 30.5t13 13.5q7 5 15 0.5t8 -9.5q0 -1 -1 -3l-2 -4q-9 -15 -21.5 -33.5t-27.5 -35t-33 -28t-38 -11.5h-8q-16 -26 -40 -43t-56 -17q-23 0 -39.5 10.5
t-27.5 28.5t-16.5 41t-5.5 47q0 57 26 91t75 34zM151 78q-14 12 -24 29.5t-16.5 38t-10 41t-4.5 37.5q-21 -7 -31.5 -38t-10.5 -67q0 -15 2.5 -29t8.5 -25.5t15.5 -18.5t23.5 -7q14 -1 26.5 11.5t20.5 27.5zM175 192q-2 27 -7.5 46t-12.5 28t-14 6t-12 -20q8 -4 18 -10
t18 -14q3 -5 1.5 -15.5t-6.5 -13.5q-8 8 -19.5 13.5l-13.5 6.5q0 -12 2.5 -28t6.5 -31.5t10.5 -29.5t15.5 -23q7 20 10 41.5t3 43.5zM178 366q-14 0 -23.5 9t-9.5 23q0 13 9.5 22t23.5 9t23.5 -9t9.5 -22q0 -14 -9.5 -23t-23.5 -9zM51 364q-14 0 -24 9t-10 22q0 14 10 23
t24 9t23.5 -9t9.5 -23q0 -13 -9.5 -22t-23.5 -9z" />
    <glyph glyph-name="oslash" unicode="&#xf8;" horiz-adv-x="290" 
d="M262 498q2 5 7.5 7.5t11.5 2.5q10 0 8.5 0.5t-1.5 -7.5q0 -3 -2 -7h1l-103 -221q10 -15 16 -37t6 -51q0 -25 -2.5 -48.5t-8.5 -43.5q15 4 30 19.5t28.5 32.5l23.5 30.5t13 13.5q7 5 15 0.5t8 -9.5q0 -1 -1 -3l-2 -4q-9 -15 -21.5 -33.5t-27.5 -35t-33 -28t-38 -11.5h-8
q-16 -26 -40 -43t-56 -17q-14 0 -25 4l-83 -179q-10 -16 -22 -16h-9v8q0 2 0.5 3.5t2.5 5.5h-1l89 190q-21 17 -31 47t-10 64q0 57 26 91t75 34q11 32 30 40t37 -5zM96 224q-21 -7 -31.5 -38t-10.5 -67q0 -28 7 -48l44 92q-5 16 -6.5 31.5t-2.5 29.5zM151 78q-11 9 -19.5 22
t-15.5 28l-37 -81q10 -8 25 -8q14 -1 26.5 11.5t20.5 27.5zM175 192q-2 13 -3.5 24.5t-4.5 21.5l-4 -9q1 0 1 -0.5t1 -0.5q3 -5 1.5 -15.5t-6.5 -13.5l-8 6l-18 -39q4 -17 11 -33t17 -26q7 20 10 41.5t3 43.5zM129 252l14 -8l11 23q-7 8 -13.5 5t-11.5 -20zM127 219v-8l3 6
q-1 0 -1 0.5t-1 0.5t-1 1z" />
    <glyph glyph-name="ugrave" unicode="&#xf9;" horiz-adv-x="295" 
d="M66 254q-1 -8 -4.5 -27.5t-7 -44.5t-6.5 -51t-3 -45q0 -29 5 -29q6 0 14 11.5t17.5 29.5t19.5 40.5t19 45l16.5 42.5t13.5 33q0 11 8 17t18 6q13 0 24 -8t11 -22v2q-4 -31 -7 -60q-2 -25 -4 -53t-2 -48q0 -23 2 -38.5t9 -15.5q13 0 26.5 24t25.5 53.5l22.5 53.5t18.5 24
q6 0 13 -4.5t7 -10.5l-4.5 -13t-12 -31.5t-18.5 -40.5t-24.5 -41t-28 -31.5t-30.5 -12.5q-20 0 -32.5 16t-19 39t-8.5 49.5t-2 46.5v9l-3 -7q-7 -18 -17.5 -41.5t-23.5 -45t-27.5 -36t-29.5 -14.5q-14 0 -22.5 11.5t-13.5 31t-7 44t-2 51.5q0 66 4.5 93.5t29.5 27.5
q15 0 25.5 -7.5t10.5 -22.5zM178 369q-29 0 -54.5 12t-43.5 50q-2 4 -2 6q0 6 8 9.5t16 3.5q5 0 10 -1t7 -5q14 -29 25.5 -44t35.5 -27z" />
    <glyph glyph-name="uacute" unicode="&#xfa;" horiz-adv-x="295" 
d="M66 254q-1 -8 -4.5 -27.5t-7 -44.5t-6.5 -51t-3 -45q0 -29 5 -29q6 0 14 11.5t17.5 29.5t19.5 40.5t19 45l16.5 42.5t13.5 33v-1q0 12 8 18t18 6q13 0 24 -8t11 -22v2q-4 -31 -7 -60q-2 -25 -4 -53t-2 -48q0 -23 2 -38.5t9 -15.5q13 0 26.5 24t25.5 53.5l22.5 53.5
t18.5 24q6 0 13 -4.5t7 -10.5l-4.5 -13t-12 -31.5t-18.5 -40.5t-24.5 -41t-28 -31.5t-30.5 -12.5q-20 0 -32.5 16t-19 39t-8.5 49.5t-2 46.5v9l-3 -7q-7 -18 -17.5 -41.5t-23.5 -45t-27.5 -36t-29.5 -14.5q-14 0 -22.5 11.5t-13.5 31t-7 44t-2 51.5q0 66 4.5 93.5t29.5 27.5
q15 0 25.5 -7.5t10.5 -22.5zM96 375q24 12 35.5 27t25.5 44q2 4 6.5 5t10.5 1q8 0 16 -3.5t8 -9.5q0 -2 -2 -6q-18 -37 -43.5 -49.5t-54.5 -12.5z" />
    <glyph glyph-name="ucircumflex" unicode="&#xfb;" horiz-adv-x="295" 
d="M66 254q-1 -8 -4.5 -27.5t-7 -44.5t-6.5 -51t-3 -45q0 -29 5 -29q6 0 14 11.5t17.5 29.5t19.5 40.5t19 45l16.5 42.5t13.5 33v-1q0 12 8 18t18 6q13 0 24 -8t11 -22v2q-4 -31 -7 -60q-2 -25 -4 -53t-2 -48q0 -23 2 -38.5t9 -15.5q13 0 26.5 24t25.5 53.5l22.5 53.5
t18.5 24q6 0 13 -4.5t7 -10.5l-4.5 -13t-12 -31.5t-18.5 -40.5t-24.5 -41t-28 -31.5t-30.5 -12.5q-20 0 -32.5 16t-19 39t-8.5 49.5t-2 46.5v9l-3 -7q-7 -18 -17.5 -41.5t-23.5 -45t-27.5 -36t-29.5 -14.5q-14 0 -22.5 11.5t-13.5 31t-7 44t-2 51.5q0 66 4.5 93.5t29.5 27.5
q15 0 25.5 -7.5t10.5 -22.5zM48 376q-7 0 -7 5q25 17 43 36t28 44l9 12q1 1 5 1q3 0 4 -1q4 -16 8 -27t9.5 -20.5t13 -18t18.5 -18.5q0 -2 -3 -7t-7 -9.5t-7.5 -8t-4.5 -3.5q-9 0 -16 11.5t-12.5 26t-9 27t-3.5 14.5q-12 -21 -28 -36.5t-35 -26.5z" />
    <glyph glyph-name="udieresis" unicode="&#xfc;" horiz-adv-x="295" 
d="M66 254q-1 -8 -4.5 -27.5t-7 -44.5t-6.5 -51t-3 -45q0 -29 5 -29q6 0 14 11.5t17.5 29.5t19.5 40.5t19 45l16.5 42.5t13.5 33v-1q0 12 8 18t18 6q12 0 22.5 -7.5t12.5 -20.5q-4 -31 -7 -60q-2 -25 -4 -53t-2 -48q0 -23 2 -38.5t9 -15.5q13 0 26.5 24t25.5 53.5l22.5 53.5
t18.5 24q6 0 13 -4.5t7 -10.5l-4.5 -13t-12 -31.5t-18.5 -40.5t-24.5 -41t-28 -31.5t-30.5 -12.5q-20 0 -32.5 16t-19 39t-8.5 49.5t-2 46.5v9l-3 -7q-7 -18 -17.5 -41.5t-23.5 -45t-27.5 -36t-29.5 -14.5q-14 0 -22.5 11.5t-13.5 31t-7 44t-2 51.5q0 66 4.5 93.5t29.5 27.5
q15 0 25.5 -7.5t10.5 -22.5zM56 361q-14 0 -24 9t-10 22q0 14 10 23t24 9t23.5 -9t9.5 -23q0 -13 -9.5 -22t-23.5 -9zM183 363q-14 0 -23.5 9t-9.5 23q0 13 9.5 22t23.5 9t23.5 -9t9.5 -22q0 -14 -9.5 -23t-23.5 -9z" />
    <glyph glyph-name="yacute" unicode="&#xfd;" horiz-adv-x="288" 
d="M65 281q0 -8 -2.5 -30.5l-5.5 -50.5t-5.5 -57.5t-2.5 -50.5q0 -35 4 -35q6 0 16.5 16t22.5 37.5t23 44.5t17 37q0 26 1.5 49t1.5 43q0 7 9.5 11.5t21.5 4.5q10 0 20 -5.5t10 -16.5q0 -56 -2 -108.5t-5 -107.5q10 11 25.5 33l31.5 43.5t29.5 38t19.5 16.5t12 -4.5t6 -10.5
q0 -3 -2 -5q-11 -20 -26.5 -42.5t-32.5 -44l-34 -41.5l-30 -35q0 -21 -2.5 -58t-8 -80t-14.5 -87.5t-23 -80t-32.5 -58.5t-43.5 -23q-15 0 -26.5 9.5t-19 24.5t-11.5 34t-4 38q0 38 13 76t32 72t39.5 62t35.5 46q2 20 2.5 41t1.5 43l2 43q-22 -39 -42.5 -68.5t-43.5 -29.5
q-26 0 -36.5 31t-10.5 79q0 22 1 45t2.5 44.5t3 40t1.5 32.5q0 7 10.5 11.5t21.5 4.5q10 0 19 -5t10 -16zM55 -347q9 0 17.5 15.5t15 40.5t12 56t9.5 61.5t6.5 58t3.5 44.5q-13 -17 -28 -40t-27.5 -49.5t-21 -56t-8.5 -59.5q0 -3 1 -14.5t3.5 -24t6.5 -22.5t10 -10zM73 372
q24 12 35.5 27t25.5 44q2 4 6.5 5t10.5 1q8 0 16 -3.5t8 -9.5q0 -2 -2 -6q-18 -37 -43.5 -49.5t-54.5 -12.5z" />
    <glyph glyph-name="ydieresis" unicode="&#xff;" horiz-adv-x="288" 
d="M65 281q0 -8 -2.5 -30.5l-5.5 -50.5t-5.5 -57.5t-2.5 -50.5q0 -35 4 -35q6 0 16.5 16t22.5 37.5t23 44.5t17 37q0 26 1.5 49t1.5 43q0 7 9.5 11.5t21.5 4.5q10 0 20 -5.5t10 -16.5q0 -56 -2 -108.5t-5 -107.5q10 11 25.5 33l31.5 43.5t29.5 38t19.5 16.5t12 -4.5t6 -10.5
q0 -3 -2 -5q-11 -20 -26.5 -42.5t-32.5 -44l-34 -41.5l-30 -35q0 -21 -2.5 -58t-8 -80t-14.5 -87.5t-23 -80t-32.5 -58.5t-43.5 -23q-15 0 -26.5 9.5t-19 24.5t-11.5 34t-4 38q0 38 13 76t32 72t39.5 62t35.5 46q2 20 2.5 41t1.5 43l2 43q-22 -39 -42.5 -68.5t-43.5 -29.5
q-26 0 -36.5 31t-10.5 79q0 22 1 45t2.5 44.5t3 40t1.5 32.5q0 7 10.5 11.5t21.5 4.5q10 0 19 -5t10 -16zM55 -347q9 0 17.5 15.5t15 40.5t12 56t9.5 61.5t6.5 58t3.5 44.5q-13 -17 -28 -40t-27.5 -49.5t-21 -56t-8.5 -59.5q0 -3 1 -14.5t3.5 -24t6.5 -22.5t10 -10zM167 377
q-14 0 -23.5 9t-9.5 23q0 13 9.5 22t23.5 9t23.5 -9t9.5 -22q0 -14 -9.5 -23t-23.5 -9zM40 375q-14 0 -24 9t-10 22q0 14 10 23t24 9t23.5 -9t9.5 -23q0 -13 -9.5 -22t-23.5 -9z" />
    <glyph glyph-name="Zcaron" unicode="&#x17d;" horiz-adv-x="445" 
d="M68 605q-4 -4 -11 -4t-12 5t-5 11q0 4 3 7q35 40 82 59t92 19q29 0 55.5 -7t46 -20t31 -32.5t11.5 -43.5q0 -29 -13.5 -56t-34 -51t-46.5 -44.5t-51 -36.5t-47 -28t-34 -18q25 -8 49.5 -14t50.5 -14q46 -16 78 -39t52 -50.5t29 -58t9 -60.5q0 -52 -21.5 -104t-56 -93.5
t-78 -67.5t-86.5 -26q-39 0 -66 25t-27 78q0 34 14 77.5t38.5 90.5t58.5 94t73 87q-18 9 -49 19l-61 19t-51.5 17t-21.5 13q0 8 9.5 15.5t16.5 12.5l-1 -1l5 4l61 50t61.5 57.5t47.5 60t19 58.5q0 30 -22 44.5t-54 14.5q-35 0 -75 -17.5t-69 -51.5zM333 145q0 36 -13 68.5
t-43 57.5q-41 -38 -74 -82.5t-56 -89.5t-35 -87t-12 -76q0 -33 11 -52t31 -19q29 0 62.5 27t62 68.5t47.5 90.5t19 94zM286 915q6 0 7 -1t1 -3q-24 -17 -42 -37t-30 -46l-4 -8l-7 -7q-2 -1 -6 -1q-3 0 -3 1q-5 17 -9 29t-9.5 21t-13 18t-19.5 20l3 -1l4 4.5l8.5 9.5t8 10
t3.5 6q19 -20 26.5 -43t11.5 -40q13 22 30 38t37 30h3z" />
    <glyph glyph-name="zcaron" unicode="&#x17e;" horiz-adv-x="284" 
d="M189 231q0 -13 -8 -28t-20.5 -30t-29.5 -28.5t-35 -23.5q13 -2 30 -7t34 -14t32 -22t24 -29q15 18 26 43t19 47t15 37.5t13 15.5t12 -3.5t6 -10.5q0 -3 -1 -7q-5 -16 -12 -35.5t-16 -40t-20.5 -40.5t-27.5 -36q10 -37 10 -78q0 -51 -15.5 -97.5t-41.5 -81.5t-60 -56
t-71 -21q-32 0 -51.5 17t-19.5 46q0 31 17 63.5t42 63t53.5 58t52.5 48.5l26 25l-2 -1q-10 48 -36.5 73t-68.5 25q-8 0 -12.5 1t-4.5 6q0 7 14.5 19.5l31.5 28t31.5 32.5t14.5 32t-11 23t-25 8q-20 0 -36 -14t-28.5 -31.5l-23 -31.5t-17.5 -14q-11 0 -10.5 9.5t8.5 23.5
t21.5 31t29.5 31t33.5 23.5t31.5 9.5q35 0 55.5 -17t20.5 -42zM144 -59l-44.5 -42t-43.5 -48t-33 -51.5t-13 -53.5q0 -17 7 -24.5t17 -7.5q21 0 45 16.5t44.5 49t35 80.5t15.5 111zM184 470q6 0 7 -1t1 -3q-24 -17 -42 -37t-30 -46l-4 -8l-7 -7q-2 -1 -6 -1q-3 0 -3 1
q-5 17 -9 29t-9.5 21t-13 18t-19.5 20l3 -1l4 4.5l8.5 9.5t8 10t3.5 6q19 -20 26.5 -43t11.5 -40q13 22 30 38t37 30h3z" />
    <glyph glyph-name="Scaron" unicode="&#x160;" horiz-adv-x="408" 
d="M345 583q0 -18 -13 -18q-5 -1 -10 2t-7 11q-13 51 -31 67.5t-46 14.5q-27 -2 -48 -30t-18 -79q2 -32 15 -62.5t31 -61.5t39 -62t39.5 -63.5t31.5 -67t15 -70.5q2 -37 -7 -68.5t-25.5 -54.5t-40 -37t-49.5 -15q-31 -2 -59.5 7.5t-50.5 29.5t-36.5 50.5t-16.5 70.5
q-1 8 3.5 12t10.5 4q14 2 17 -15q8 -60 35.5 -93.5t75.5 -30.5q18 1 33 13t25.5 31t16 43t4.5 50q-2 35 -15.5 68.5t-32 65.5t-40 63.5t-40 63.5t-31.5 64t-15 65q-2 31 5.5 57t22.5 44.5t35 29.5t44 13q46 3 81 -21.5t52 -90.5zM310 906q6 0 7 -1t1 -3q-24 -17 -42 -37
t-30 -46l-4 -8l-7 -7q-2 -1 -6 -1q-3 0 -3 1q-5 17 -9 29t-9.5 21t-13 18t-19.5 20l3 -1l4 4.5l8.5 9.5t8 10t3.5 6q19 -20 26.5 -43t11.5 -40q13 22 30 38t37 30h3z" />
    <glyph glyph-name="a.001" unicode="&#xe000;" 
d="M-577 61q-2 -6 -7 -10t-11 -4t-11.5 5.5t-6.5 17.5q1 38 8.5 67.5t21.5 51.5q25 40 62 59.5t79 23.5t86.5 -5.5t85.5 -26.5l71 -32t72 -25t71 -2t69 37q14 22 33 35t41 13q23 0 41 -12t23 -35l2 5l-1 -1q1 6 7.5 9.5t15.5 3.5q12 0 24.5 -7t12.5 -21q0 -16 -2.5 -26
t-5 -23t-5 -32.5t-2.5 -54.5q0 -14 1 -23t3 -9l4 2h-1q15 9 29 26.5t27 38.5t24 42.5l20 38.5q3 6 12 6q7 0 13.5 -4.5t6.5 -10.5q0 -8 -11.5 -30t-28 -48.5t-35.5 -50.5t-34 -34t-31 -10t-27 11.5t-18 29.5t-10 39.5t-3 41.5v5l-1 1q-13 -28 -28 -48t-29 -32.5t-26 -18
t-19 -5.5q-14 0 -24 9t-16 22t-8.5 28.5t-2.5 28.5q0 20 5 43q-31 -16 -64 -15.5t-67.5 9.5t-70.5 23.5t-73 26.5q-38 12 -77 17.5t-74.5 0t-65.5 -23.5t-50 -52q-10 -17 -16 -38.5t-8 -47.5zM123 176q3 10 3 18q0 17 -6.5 26t-15.5 9q-15 0 -26.5 -15t-19.5 -36
t-12.5 -43.5t-4.5 -37.5q0 -28 7 -28q5 0 14.5 11.5t20.5 28l22 34.5t18 32v1z" />
    <glyph glyph-name="b.001" unicode="&#xe001;" horiz-adv-x="319" 
d="M-567 166q-2 -6 -7 -10t-11 -4t-11.5 5.5t-6.5 17.5q1 38 8.5 67.5t21.5 51.5q25 40 62 59.5t79 23.5t86.5 -5.5t85.5 -26.5q32 -13 64.5 -28.5t65.5 -25t65.5 -8t64.5 21.5q0 8 0.5 15.5t1.5 15.5q1 35 4 76t9 81t16.5 76.5t26.5 63.5t36.5 40t39 11t32 -19.5
t15.5 -52.5q0 -42 -8 -84.5t-23 -82.5t-37.5 -75t-51.5 -61l2 1q-1 -17 -1.5 -37l-1 -40.5t-0.5 -39v-31.5v-15.5t1 -19.5q6 22 14.5 46.5t20 45.5t25.5 35t31 14q27 0 43.5 -18t25.5 -42t12.5 -48t3.5 -37q14 7 27 18t23.5 21.5l18.5 18.5t13 8q7 0 13.5 -4t6.5 -11
q0 -10 -11 -22.5t-27 -25t-34 -22.5t-31 -15q-5 -18 -14 -35t-22 -30.5t-30 -22t-37 -8.5q-26 0 -38.5 16.5t-12.5 33.5q0 15 9.5 25.5t23.5 18t30.5 12t30.5 6.5q2 5 2.5 13t0.5 16q0 15 -1.5 33t-5 33t-9 25t-12.5 10q-13 0 -25.5 -24t-23 -57t-18 -67.5t-10.5 -55.5v-18
q0 -11 -4 -18t-22 -7q-13 0 -23.5 4.5t-12.5 15.5q-7 49 -10.5 103.5t-3.5 108.5v23t1 23q-31 -16 -64 -15.5t-68 9.5t-71 23.5t-72 26.5q-38 12 -77 17.5t-74.5 0t-65.5 -23.5t-50 -52q-10 -17 -16 -38.5t-8 -47.5zM64 355q42 51 64.5 118.5t22.5 131.5q0 28 -6 39t-14 9.5
t-17 -12.5t-15 -28q-10 -27 -16 -60.5t-10 -68t-6 -68t-3 -61.5zM122 22q6 0 12.5 6t13 14t12 17.5t8.5 16.5q-9 -2 -18.5 -5t-17.5 -7.5t-13 -10.5t-5 -14q0 -7 1.5 -12t6.5 -5z" />
    <glyph glyph-name="c.001" unicode="&#xe002;" horiz-adv-x="231" 
d="M-577 61q-2 -6 -7 -10t-11 -4t-11.5 5.5t-6.5 17.5q1 38 8.5 67.5t21.5 51.5q25 40 62 59.5t79 23.5t86.5 -5.5t85.5 -26.5q34 -14 70 -31t71.5 -25.5t71 -3t68.5 35.5q16 27 39.5 44.5t53.5 17.5q5 0 14.5 -1.5t18.5 -4.5t16 -7.5t7 -10.5q0 -5 -4 -8.5t-11 -3.5
q-2 0 -11 3t-14 3q-18 0 -32.5 -14.5t-25.5 -36t-17 -48t-6 -50.5q0 -21 7 -38.5t27 -17.5q20 1 42 17t43.5 38t40 46.5t31.5 43.5q3 6 13 6q6 0 11.5 -4.5t5.5 -9.5q0 -1 -1 -3l-2 -4q-16 -25 -39 -54t-50 -53.5t-56 -40.5t-56 -16q-21 0 -35.5 9t-23 24t-12 33t-3.5 36
q0 12 2 24.5t5 24.5q-31 -15 -64 -14.5t-68 9.5t-71 23.5t-72 26.5q-38 12 -77 17.5t-74.5 0t-65.5 -23.5t-50 -52q-10 -17 -16 -38.5t-8 -47.5z" />
    <glyph glyph-name="d.001" unicode="&#xe003;" horiz-adv-x="292" 
d="M-583 70q-2 -6 -7 -10t-11 -4t-11.5 5.5t-6.5 17.5q1 38 8.5 67.5t21.5 51.5q25 40 62 59.5t79 23.5t86.5 -5.5t85.5 -26.5l71.5 -32t72.5 -25.5t71.5 -2t69.5 39.5q14 19 32 30.5t38 11.5t31 -12.5t17 -31.5q1 52 6.5 105.5t13 101.5t15 85.5t12.5 57.5q14 54 38 81.5
t47 29t40 -22t17 -72.5t-10.5 -94t-27.5 -83t-39 -67t-44 -47q0 -4 -0.5 -16.5t-1.5 -30.5t-1.5 -40t-0.5 -45q0 -26 1 -50t3 -43.5t5.5 -31t8.5 -11.5q9 0 21.5 25t25 55.5t24.5 55.5t21 25q6 0 12.5 -4.5t6.5 -10.5t-8 -26.5t-20 -46t-26 -50.5t-26 -40q-6 -8 -15.5 -11.5
t-20.5 -3.5q-36 0 -53.5 38t-22.5 98q-13 -28 -28 -47.5t-28.5 -32t-25.5 -18t-19 -5.5q-14 0 -24 9t-16 22t-8.5 28.5t-2.5 28.5q0 23 6 46q-31 -15 -64 -14.5t-67.5 10t-70.5 23.5t-72 26q-38 12 -77 17.5t-74.5 0t-65.5 -23.5t-50 -52q-10 -17 -16 -38.5t-8 -47.5z
M200 357q-1 -3 -1 -8q17 20 33 48t28 61t19.5 69t7.5 74q0 40 -7.5 53t-18 5.5t-20.5 -31t-14 -55.5l-8 -59.5l-8 -59.5t-7 -54t-4 -43zM98 176q3 10 3 18q0 17 -6.5 26t-15.5 9q-15 0 -26.5 -15t-19.5 -36t-12.5 -43.5t-4.5 -37.5q0 -28 7 -28q5 0 14.5 11.5t20.5 28
l22 34.5t18 32v1z" />
    <glyph glyph-name="e.001" unicode="&#xe004;" horiz-adv-x="268" 
d="M-577 61q-2 -6 -7 -10t-11 -4t-11.5 5.5t-6.5 17.5q1 38 8.5 67.5t21.5 51.5q25 40 62 59.5t79 23.5t86.5 -5.5t85.5 -26.5q34 -14 70 -31t71 -25.5t70 -3.5t68 35q20 35 51.5 55.5t64.5 20.5q32 0 50.5 -14.5t18.5 -38.5q0 -19 -13 -39.5t-34 -38.5t-47.5 -32t-53.5 -21
q3 -25 13 -42.5t34 -17.5q23 0 49.5 15.5t51 38t44 46.5t30.5 41q3 7 14 7q6 0 12 -3.5t6 -8.5q0 -1 -1 -3l-2 -4q-15 -26 -38.5 -55.5t-52 -54t-61 -40.5t-65.5 -16q-24 0 -42 10t-30 26t-17.5 36t-5.5 41q0 10 1 19.5t3 18.5q-31 -16 -64 -15.5t-67.5 9.5t-70.5 23.5
t-73 26.5q-38 12 -77 17.5t-74.5 0t-65.5 -23.5t-50 -52q-10 -17 -16 -38.5t-8 -47.5zM132 262q-19 0 -34 -13t-26 -32t-17.5 -41t-8.5 -40q19 7 39.5 19t37 25.5t27 28t10.5 27.5t-9 19.5t-19 6.5z" />
    <glyph glyph-name="f.001" unicode="&#xe005;" horiz-adv-x="249" 
d="M-570 -9q-2 -6 -7 -10t-11 -4t-11.5 5.5t-6.5 17.5q1 38 8.5 67.5t21.5 51.5q25 40 62 59.5t79 23.5t86.5 -5.5t85.5 -26.5q31 -13 63 -28.5t64.5 -25t64.5 -9t63 18.5q4 54 10.5 102t16.5 90q5 22 15 45t25 42.5t35.5 32t46.5 12.5q32 0 45 -21.5t13 -47.5
q0 -34 -12 -66t-32 -63t-46 -61.5l-54 -61.5q0 -17 -1 -38.5t-1 -38.5q29 9 59 21t56.5 28.5t47.5 38.5t33 49q4 5 11.5 5.5t13.5 -2.5t9 -8t-1 -9q-17 -39 -43 -62t-56 -38t-61 -26t-58 -24l17 -68v1l23 -91t17 -99q5 -52 -8 -83.5t-33.5 -37.5t-41.5 16.5t-33 79.5
q-5 25 -7 47t-4 33q-4 39 -6 80t-2 81q0 52 3 103q-30 -13 -62.5 -11.5t-66.5 11t-68.5 23t-70.5 25.5q-38 12 -77 17.5t-74.5 0t-65.5 -23.5t-50 -52q-10 -17 -16 -38.5t-8 -47.5zM68 269l-5.5 -43t-4.5 -46l39.5 48t36.5 48.5t26.5 51t10.5 56.5q0 20 -5 29t-13 9
q-21 0 -36 -18t-25 -42.5t-15.5 -50.5t-8.5 -42zM91 -235q-5 57 -17.5 112t-23.5 96q0 -64 1 -117.5t4 -95.5q4 -53 12 -71t14.5 -12t10 31t-0.5 57z" />
    <glyph glyph-name="g.001" unicode="&#xe006;" horiz-adv-x="308" 
d="M-577 61q-2 -6 -7 -10t-11 -4t-11.5 5.5t-6.5 17.5q1 38 8.5 67.5t21.5 51.5q25 40 62 59.5t79 23.5t86.5 -5.5t85.5 -26.5q34 -14 70 -31t71.5 -25.5t70.5 -3t68 35.5q14 23 33.5 36.5t42.5 13.5t41 -12t23 -35q23 23 37.5 11.5t14.5 -46.5q0 -19 -0.5 -36.5t-0.5 -34.5
v-52q12 14 28.5 35.5l32 42t28.5 35.5t18 15q7 0 13.5 -4.5t6.5 -10.5q0 -3 -2 -5q-12 -21 -28.5 -43.5t-34 -44l-34.5 -40.5l-30 -34q-2 -24 -4.5 -62t-8 -81t-14 -87t-21 -79.5t-30 -58t-41.5 -22.5q-15 0 -27 10t-20.5 26t-12.5 35.5t-4 38.5q0 38 12.5 76t30.5 72
t38 61.5t35 45.5q0 10 1.5 33t2.5 47.5t1.5 45.5t-1.5 26q-13 -28 -28 -48t-29 -32.5t-26 -18t-19 -5.5q-14 0 -24 9t-16 22t-8.5 28.5t-2.5 28.5q0 19 5 42q-31 -15 -64 -14.5t-67.5 10t-70.5 23.5t-72 26q-38 12 -77 17.5t-74.5 0t-65.5 -23.5t-50 -52q-10 -17 -16 -38.5
t-8 -47.5zM74 -351q8 0 15 15.5t13 40.5t10.5 55.5t8 61.5t5.5 58t3 44q-13 -18 -27.5 -43t-26.5 -53t-20 -57t-8 -55q0 -9 2 -21t5.5 -22t8.5 -17t11 -7zM122 176q3 10 3 18q0 17 -6.5 26t-15.5 9q-15 0 -26.5 -15t-19.5 -36t-12.5 -43.5t-4.5 -37.5q0 -28 7 -28
q5 0 14.5 11.5t20.5 28l22 34.5t18 32v1z" />
    <glyph glyph-name="h.001" unicode="&#xe007;" horiz-adv-x="324" 
d="M-568 163q-2 -6 -7 -10t-11 -4t-11.5 5.5t-6.5 17.5q1 38 8.5 67.5t21.5 51.5q25 40 62 59.5t79 23.5t86.5 -5.5t85.5 -26.5l66.5 -29.5t67 -24.5t66.5 -7t65 24q0 8 0.5 15.5t1.5 15.5q1 20 5 56t10 78t15.5 85t23 78t31 57.5t40.5 22.5q19 0 30.5 -11t17.5 -27.5
t8 -34.5t2 -33q0 -50 -11 -95.5t-28 -84t-39.5 -68.5t-44.5 -49q-3 -34 -4 -70.5t-1 -71.5v-21.5v-16.5t0.5 -17t0.5 -21l23.5 55t32 64t36 52.5t36.5 21.5q12 0 20 -8.5t12.5 -21.5t6.5 -28.5t2 -30.5q0 -16 -1 -30.5t-2 -22.5q-2 -7 -4.5 -29.5t-2.5 -42.5v-16.5t2 -6.5
q7 0 22.5 22t32 49l30 49t16.5 22q9 0 15 -6.5t4 -14.5q-12 -26 -28 -54t-33.5 -52t-35 -39.5t-33.5 -15.5q-15 0 -24.5 9.5t-15.5 24.5t-8.5 32.5t-2.5 33.5q0 20 1 34t2.5 26l3 24.5t1.5 28.5v8l-3 -3q-13 -18 -28 -48.5t-28.5 -62t-24 -60t-15.5 -43.5q-8 -10 -27 -10
q-11 0 -22 4.5t-13 14.5q-5 43 -8 85t-3 84q0 18 1 36.5l2 37.5q-31 -17 -64.5 -17t-68.5 9.5t-71.5 24t-73.5 26.5q-38 12 -77 17.5t-74.5 0t-65.5 -23.5t-50 -52q-10 -17 -16 -38.5t-8 -47.5zM141 690q-11 0 -20 -19t-16.5 -49.5t-13.5 -68t-10.5 -74.5t-8 -69t-4.5 -52
q18 21 34.5 50t29 63t20.5 72t8 77q0 6 -0.5 17.5t-2.5 23.5t-6 20.5t-10 8.5z" />
    <glyph glyph-name="i.001" unicode="&#xe008;" horiz-adv-x="151" 
d="M-582 136q-2 -6 -7 -10t-11 -4t-11.5 5.5t-6.5 17.5q1 38 8.5 67.5t21.5 51.5q25 40 62 59.5t79 23.5t86.5 -5.5t85.5 -26.5l71 -32t72 -25t71.5 -2t69.5 38q9 14 25 14q13 0 25 -7t12 -20q0 -8 -2.5 -30t-6 -49t-6 -56t-2.5 -51q0 -35 6 -35t18.5 20l26.5 44.5
l26.5 44.5t19.5 20q8 0 15.5 -6.5t3.5 -14.5q-11 -23 -25.5 -49.5t-30 -49t-32 -37.5t-31.5 -15q-19 0 -29.5 15t-16 39.5t-7 55.5t-1.5 63v28.5t1 25.5q-32 -21 -66.5 -23t-71 7t-74.5 24t-77 28q-38 12 -77 17.5t-74.5 0t-65.5 -23.5t-50 -52q-10 -17 -16 -38.5t-8 -47.5z
M27 386q14 8 29 2t20 -25q5 -25 -18 -35q-13 -5 -28 -2t-20 22q-2 11 2 21.5t15 16.5z" />
    <glyph glyph-name="j.001" unicode="&#xe009;" horiz-adv-x="158" 
d="M-590 140q-2 -6 -7 -10t-11 -4t-11.5 5.5t-6.5 17.5q1 38 8.5 67.5t21.5 51.5q25 40 62 59.5t79 23.5t86.5 -5.5t85.5 -26.5q34 -14 70 -31t71.5 -25.5t71 -3t68.5 35.5q5 17 25 17q25 0 32 -19t7 -43q0 -48 -0.5 -92.5t-2.5 -89.5l24 33.5l30 40t27.5 33.5t17.5 14
q7 0 13 -4.5t6 -10.5q0 -2 -2 -6q-11 -20 -25.5 -41t-31 -41.5t-33 -39l-29.5 -33.5q-1 -25 -3 -64t-7 -82.5t-13 -87t-20.5 -78.5t-30.5 -57t-43 -22q-16 0 -28 14.5t-20.5 35t-13 42.5t-4.5 38q0 34 11 67t28.5 63t38 57l39.5 50l-1 -1q3 56 6 122t3 126v17
q-33 -24 -68.5 -27.5t-73 5.5t-76.5 24.5t-79 28.5q-38 12 -77 17.5t-74.5 0t-65.5 -23.5t-50 -52q-10 -17 -16 -38.5t-8 -47.5zM-69 -344q9 0 16 15.5t13 40.5t10.5 55.5t7.5 61t5 57.5t3 44q-12 -17 -26 -39t-26 -47.5t-20 -53.5t-8 -57q0 -3 1 -15.5t3.5 -26t7.5 -24.5
t13 -11zM20 396q13 0 26 -9.5t13 -29.5q0 -11 -6.5 -19.5t-18.5 -8.5q-16 0 -27.5 10t-11.5 30q0 12 7 19.5t18 7.5z" />
    <glyph glyph-name="k.001" unicode="&#xe00a;" horiz-adv-x="276" 
d="M-564 174q-2 -6 -7 -10t-11 -4t-11.5 5.5t-6.5 17.5q1 38 8.5 67.5t21.5 51.5q25 40 62 59.5t79 23.5t86.5 -5.5t85.5 -26.5q31 -13 64 -28.5t65.5 -24.5t65 -8.5t63.5 20.5q0 6 0.5 11.5t1.5 11.5q2 20 6 56t10.5 78t16.5 85.5t24.5 78.5t33 57.5t41.5 22.5
q19 0 29.5 -13t16 -31t6.5 -37t1 -31q0 -43 -8.5 -85t-24 -80t-38.5 -70t-53 -55q-3 -39 -3 -78t-2 -75v-1q0 1 6 21t16.5 43t26 42.5t35.5 19.5q21 0 35.5 -14t14.5 -34q0 -10 -2 -17t-7.5 -13.5t-15 -14.5t-25.5 -20q-12 -10 -21 -16.5t-9 -11.5q1 -9 8 -24.5t17 -30.5
t21.5 -26t21.5 -11q19 0 34 21.5t26 48l19.5 48t15.5 21.5q9 0 14.5 -8.5t1.5 -30.5l-19.5 -45.5t-23.5 -45t-29.5 -34t-38.5 -13.5q-20 0 -36.5 9.5t-30 23.5t-23.5 30l-18 29q0 -10 -0.5 -27.5t-3.5 -35t-10 -30t-21 -12.5q-28 0 -35 24t-7 56q0 44 0.5 93.5t2.5 99.5
q-30 -15 -63 -14t-67.5 10.5t-70 23.5t-71.5 26q-38 12 -77 17.5t-74.5 0t-65.5 -23.5t-50 -52q-10 -17 -16 -38.5t-8 -47.5zM141 689q-11 0 -20 -19.5t-16.5 -50.5t-14 -69t-11.5 -75.5t-8 -70.5t-5 -53q43 48 67.5 114.5t24.5 138.5q0 40 -4.5 62.5t-12.5 22.5zM138 254
q-11 0 -24 -20t-21 -43q19 14 32.5 32t13.5 27q0 4 -1 4z" />
    <glyph glyph-name="l.001" unicode="&#xe00b;" horiz-adv-x="173" 
d="M-568 153q-2 -6 -7 -10t-11 -4t-11.5 5.5t-6.5 17.5q1 38 8.5 67.5t21.5 51.5q25 40 62 59.5t79 23.5t86.5 -5.5t85.5 -26.5l65.5 -29.5t66.5 -24.5t65.5 -7.5t64.5 22.5q1 22 4 62t8.5 86t15 94t23.5 87t34 63.5t46 24.5q18 0 28.5 -13t16.5 -31t7.5 -37.5t1.5 -32.5
q0 -50 -10.5 -95t-27.5 -82.5t-39 -66.5t-45 -48l-3 -51q-2 -23 -3 -46t-1 -46q0 -19 1 -42.5t4 -44.5t8 -35t13 -14q9 0 21 18t24.5 43t23.5 51t17 42l4 10q2 6 8 6.5t12 -2t9.5 -8t0.5 -12.5l-13 -31l-20.5 -47.5t-26 -50t-32 -39.5t-36.5 -16q-24 0 -39.5 19.5t-23.5 50
t-11 66.5t-3 69q0 17 0.5 31.5t1.5 28.5q-31 -17 -64.5 -16.5t-68.5 9.5t-71 23.5t-73 26.5q-38 12 -77 17.5t-74.5 0t-65.5 -23.5t-50 -52q-10 -17 -16 -38.5t-8 -47.5zM139 685q-11 0 -19.5 -19.5t-16 -50t-13.5 -68.5t-10.5 -75.5t-7.5 -70.5t-4 -53q17 21 33 48.5
t28.5 60t20 68.5t7.5 75t-5.5 62t-12.5 23z" />
    <glyph glyph-name="m.001" unicode="&#xe00c;" horiz-adv-x="438" 
d="M-589 124q-2 -6 -7 -10t-11 -4t-11.5 5.5t-6.5 17.5q1 38 8.5 67.5t21.5 51.5q25 40 62 59.5t79 23.5t86.5 -5.5t85.5 -26.5q34 -14 70 -31t71.5 -25.5t70.5 -3t69 35.5q1 7 7.5 11t15.5 4q13 0 24.5 -8.5t11.5 -24.5q-1 -12 -1.5 -35.5t-0.5 -49v-49v-36.5l26.5 59
t30.5 56t31.5 41.5t28.5 16.5q17 0 28.5 -25t11.5 -77q0 -14 -0.5 -29.5t-1.5 -28.5l20.5 46.5t26.5 52t28.5 42t26.5 17.5q10 0 17 -8.5t11 -21.5t5.5 -30t1.5 -33q0 -26 -1.5 -52t-1.5 -47q0 -17 1 -27.5t5 -10.5q6 0 14.5 12t18 30t19.5 39.5l19 41.5l16 34q3 5 8.5 5.5
t11 -2.5t9 -8t1.5 -11l-11 -25l-21.5 -48t-24.5 -48.5t-28 -37.5t-32 -15q-24 0 -37 19t-18.5 45.5t-6.5 54.5t-1 47v17t2 13q-20 -35 -38.5 -83t-44.5 -97q-9 -11 -26 -11q-22 0 -26.5 12.5t-4.5 50.5q0 15 0.5 31t0.5 33v73q-14 -20 -28 -49t-26.5 -58.5l-23.5 -53.5
t-20 -33q-6 -6 -23 -6q-11 0 -22.5 6t-11.5 25q0 48 1 98t1 104q-33 -24 -68 -27.5t-72.5 5.5t-76.5 24.5t-79 28.5q-38 12 -77 17.5t-74.5 0t-65.5 -23.5t-50 -52q-10 -17 -16 -38.5t-8 -47.5z" />
    <glyph glyph-name="n.001" unicode="&#xe00d;" horiz-adv-x="282" 
d="M-587 117q-2 -6 -7 -10t-11 -4t-11.5 5.5t-6.5 17.5q1 38 8.5 67.5t21.5 51.5q25 40 62 59.5t79 23.5t86.5 -5.5t85.5 -26.5l71 -32t72 -25t71 -2t69 37q3 7 9.5 10.5t14.5 3.5q14 0 24 -8.5t10 -24.5q-4 -39 -7 -75t-6 -78q9 20 23.5 47.5t30 53t31.5 43.5t30 18
q18 0 24 -21.5t6 -48.5q0 -29 -3.5 -64.5t-3.5 -61.5q0 -12 1 -20t4 -8q6 0 17 14.5t23.5 36.5t26 48.5l24.5 49.5q3 6 8.5 6.5t11 -2.5t8.5 -8t2 -11l-17 -34l-24 -47.5t-25 -44.5t-27.5 -33t-30.5 -13q-18 0 -29 10.5t-17 27t-8.5 36.5t-2.5 40q0 25 2.5 46t2.5 35
q-22 -36 -42.5 -83t-47.5 -95q-9 -11 -26 -11q-11 0 -20 5.5t-9 20.5q0 43 2.5 87.5t4.5 88.5l1 19q-32 -24 -67.5 -26.5t-72.5 6t-76 24t-79 28.5q-38 12 -77 17.5t-74.5 0t-65.5 -23.5t-50 -52q-10 -17 -16 -38.5t-8 -47.5z" />
    <glyph glyph-name="o.001" unicode="&#xe00e;" horiz-adv-x="290" 
d="M-558 74q-2 -6 -7 -10t-11 -4t-11.5 5.5t-6.5 17.5q1 38 8.5 67.5t21.5 51.5q25 40 62 59.5t79 23.5t86.5 -5.5t85.5 -26.5q34 -14 69 -30.5t70.5 -25t70 -4t67.5 32.5q13 14 31 22.5t41 8.5q10 31 28.5 39.5t36 -2t30.5 -38.5t13 -71q0 -25 -2.5 -48.5t-8.5 -43.5
q15 4 30 19.5t28.5 32.5l23.5 30.5t13 13.5q7 5 15 0.5t8 -9.5q0 -1 -1 -3l-2 -4q-9 -15 -21.5 -33.5t-27.5 -35t-33 -28t-38 -11.5h-8q-16 -26 -40 -43t-56 -17q-23 0 -39.5 10.5t-27.5 28.5t-16.5 41t-5.5 47q0 10 1 19.5t3 18.5q-30 -13 -62.5 -11.5t-66 11t-68.5 23
t-71 25.5q-38 12 -77 17.5t-74.5 0t-65.5 -23.5t-50 -52q-10 -17 -16 -38.5t-8 -47.5zM151 78q-14 12 -24 29.5t-16.5 38t-10 41t-4.5 37.5q-21 -7 -31.5 -38t-10.5 -67q0 -15 2.5 -29t8.5 -25.5t15.5 -18.5t23.5 -7q14 -1 26.5 11.5t20.5 27.5zM175 192q-2 27 -7.5 46
t-12.5 28t-14 6t-12 -20q8 -4 18 -10t18 -14q3 -5 1.5 -15.5t-6.5 -13.5q-8 8 -19.5 13.5l-13.5 6.5q0 -12 2.5 -28t6.5 -31.5t10.5 -29.5t15.5 -23q7 20 10 41.5t3 43.5z" />
    <glyph glyph-name="p.001" unicode="&#xe00f;" horiz-adv-x="259" 
d="M-599 129q-2 -6 -7 -10t-11 -4t-11.5 5.5t-6.5 17.5q1 38 8.5 67.5t21.5 51.5q25 40 62 59.5t79 23.5t86.5 -5.5t85.5 -26.5l71.5 -32t72.5 -25t71.5 -1.5t69.5 38.5q3 13 25 13q12 0 19.5 -8t12 -19.5t6.5 -24.5t2 -24q14 29 33 45.5t37 16.5q33 0 55 -31t22 -82
q0 -8 -0.5 -18t-1.5 -18q8 3 17.5 11t18 16.5t14 15.5t6.5 8q2 3 5 1.5t6 -5.5t4.5 -9.5t-0.5 -9.5q-14 -35 -36 -49t-44 -21q-16 -40 -39 -58.5t-46 -18.5q-20 0 -34 12t-14 30q0 15 7 25.5t17.5 17t24 9.5t25.5 5q3 13 5 33t2 40q0 25 -4.5 44t-16.5 19q-6 0 -14.5 -7.5
t-18 -18.5t-18 -25t-13.5 -27q-1 -11 -1 -13.5v-14.5v-76q-1 -22 -3.5 -61t-8 -86t-14.5 -95.5t-22.5 -88t-33 -64.5t-45.5 -25q-17 1 -27.5 11t-16.5 25t-8 32t-2 31q0 33 9 67.5t25 67t36.5 60.5t44.5 49q1 15 1.5 37.5t1.5 48t1.5 53.5t0.5 55v58q-33 -27 -69 -31.5
t-74.5 4t-78.5 24.5t-81 29q-38 12 -77 17.5t-74.5 0t-65.5 -23.5t-50 -52q-10 -17 -16 -38.5t-8 -47.5zM-76 -324q10 0 18.5 16t15.5 42t12 57.5t9 62t6 57t3 41.5q-15 -19 -30.5 -42.5t-28 -49.5t-20 -55t-7.5 -58q0 -40 8.5 -55.5t13.5 -15.5zM91 49q8 0 18 12.5t15 23.5
q-17 -5 -25.5 -14.5t-8.5 -15.5t1 -6z" />
    <glyph glyph-name="q.001" unicode="&#xe010;" horiz-adv-x="281" 
d="M-562 87q-2 -6 -7 -10t-11 -4t-11.5 5.5t-6.5 17.5q1 38 8.5 67.5t21.5 51.5q25 40 62 59.5t79 23.5t86.5 -5.5t85.5 -26.5q34 -14 70 -31t71.5 -25.5t70.5 -3.5t68 35q21 26 47 26q19 0 37.5 -10.5t35.5 -27.5l2 12q3 17 7.5 30t21.5 13q13 0 26.5 -8t13.5 -22
q0 -4 -2 -8h1q-12 -44 -19.5 -93.5t-9.5 -90.5l12 14l42 50.5t41 62.5q3 6 12 6q6 0 12 -4.5t6 -10.5q0 -2 -2 -6q-14 -27 -33 -53.5l-36 -48.5q-20 -26 -42 -48q1 -21 12.5 -57.5l25 -81.5t24.5 -96t11 -102q0 -37 -12.5 -64.5t-37.5 -27.5q-17 0 -31.5 13.5t-25.5 33.5
t-19 43t-12 42q-11 42 -14 86t-3 87q0 39 2 77l4 75q-11 -14 -26 -26.5t-34 -12.5q-21 0 -35 10t-22.5 25.5t-12.5 34.5t-4 37q0 34 9 63q-30 -13 -62.5 -11.5t-66.5 11t-68.5 23t-70.5 25.5q-38 12 -77 17.5t-74.5 0t-65.5 -23.5t-50 -52q-10 -17 -16 -38.5t-8 -47.5z
M67 40q7 0 15.5 7t17 17.5t16.5 23t13 22.5l-1 -1q2 22 5.5 44.5t5.5 43.5l1 -1q-13 20 -23.5 27.5t-18.5 7.5q-17 0 -34.5 -33.5t-17.5 -94.5q0 -26 5 -44t16 -19zM198 -96l-6.5 19.5l-4.5 13.5t-3.5 12.5l-3.5 15.5q-3 -45 -3 -89q0 -24 2 -66.5t6.5 -84.5t12.5 -72.5
t20 -30.5q8 0 14.5 18.5t6.5 48.5q0 25 -4.5 55t-10.5 59.5t-13 56t-13 44.5z" />
    <glyph glyph-name="r.001" unicode="&#xe011;" horiz-adv-x="191" 
d="M-589 54q-2 -6 -7 -10t-11 -4t-11.5 5.5t-6.5 17.5q1 38 8.5 67.5t21.5 51.5q25 40 62 59.5t79 23.5t86.5 -5.5t85.5 -26.5l66.5 -29.5t67.5 -24.5t67.5 -7t65.5 25q-13 15 -22.5 34t-9.5 42q0 29 15 52t42 23q19 0 36 -13t17 -39t-8.5 -47t-21.5 -44q6 -7 16.5 -10.5
t20 -7.5t17 -11.5t7.5 -21.5q0 -12 -3 -27t-7 -30t-7 -29.5t-3 -26.5q0 -14 6 -14q12 0 24.5 12t25 30.5t24 41l21.5 43.5l16 35q2 4 5.5 4.5t7.5 0.5q7 0 13.5 -4.5t6.5 -9.5q0 -2 -3 -8.5l-7 -15l-8.5 -17.5l-7.5 -15q-11 -23 -23.5 -46t-27.5 -41.5t-33 -30t-39 -11.5
q-22 0 -37 17t-15 64q0 21 3.5 39.5t3.5 34.5q0 2 -7 8t-17 16q-33 -29 -69 -33.5t-74.5 3.5t-79 24t-81.5 30q-38 12 -77 17.5t-74.5 0t-65.5 -23.5t-50 -52q-10 -17 -16 -38.5t-8 -47.5zM2 267q0 -11 2 -22t7 -19q7 12 13.5 32.5t6.5 36.5q0 23 -10 23q-8 0 -13.5 -13.5
t-5.5 -37.5z" />
    <glyph glyph-name="s.001" unicode="&#xe012;" horiz-adv-x="165" 
d="M-581 158q-2 -6 -7 -10t-11 -4t-11.5 5.5t-6.5 17.5q1 38 8.5 67.5t21.5 51.5q25 40 62 59.5t79 23.5t86.5 -5.5t85.5 -26.5q34 -14 69 -30.5t70 -25t69 -4t67 31.5q17 22 55 25q12 0 16.5 -11t-4.5 -18q-15 -4 -22 -17t-7 -30q0 -24 6.5 -47t15 -43.5t17 -36.5t11.5 -25
q12 7 22 14.5t18.5 17t17 22t18.5 29.5q3 5 8.5 5.5t10.5 -2t8.5 -7.5t0.5 -11q-14 -22 -25 -37t-21.5 -26t-21.5 -19.5t-26 -16.5q7 -22 8 -49.5t-6.5 -51.5t-24 -40t-43.5 -14q-12 1 -22 7.5t-16.5 17t-10 22.5t-3.5 24q0 29 17 52.5t41 37.5q-3 10 -12 28t-18 40.5
t-16 49t-7 53.5v6q-31 -16 -64 -15.5t-68 9.5t-71 23.5t-73 26.5q-38 12 -77 17.5t-74.5 0t-65.5 -23.5t-50 -52q-10 -17 -16 -38.5t-8 -47.5zM48 49q-16 -12 -26 -29.5t-10 -31.5q0 -17 4.5 -29.5t11 -16.5t13.5 3t12 29q5 21 2.5 39.5t-7.5 35.5z" />
    <glyph glyph-name="t.001" unicode="&#xe013;" horiz-adv-x="223" 
d="M-588 228q-2 -6 -7 -10t-11 -4t-11.5 5.5t-6.5 17.5q1 38 8.5 67.5t21.5 51.5q25 40 62 59.5t79 23.5t86.5 -5.5t85.5 -26.5l71.5 -32t73 -25t72.5 -1t70 40q-35 3 -57 3t-30 -18q-8 -2 -18.5 -2t-10.5 10q-1 21 15.5 29t38 9.5t41.5 -0.5t28 -3q3 12 7.5 26.5t7.5 19.5
q7 12 25 12q14 0 24.5 -8t10.5 -19q-3 -14 -6 -24.5t-3 -12.5q15 -1 33 -2t35 2t31 10.5t23 22.5q2 4 12 4.5t16 -11.5q-3 -22 -22.5 -34t-44.5 -17.5t-49.5 -6t-39.5 2.5q-10 -45 -14 -100t-4 -106q0 -64 7.5 -105t24.5 -41q23 0 56 39.5t82 118.5q2 5 13 5q7 0 13.5 -4
t6.5 -10q-56 -97 -97.5 -139.5t-78.5 -42.5q-26 0 -42.5 18t-25.5 47.5t-12.5 66t-3.5 74.5t1.5 75t3.5 66q-33 -26 -68.5 -30t-73.5 4.5t-78 24.5t-80 29q-38 12 -77 17.5t-74.5 0t-65.5 -23.5t-50 -52q-10 -17 -16 -38.5t-8 -47.5z" />
    <glyph glyph-name="u.001" unicode="&#xe014;" horiz-adv-x="295" 
d="M-584 114q-2 -6 -7 -10t-11 -4t-11.5 5.5t-6.5 17.5q1 38 8.5 67.5t21.5 51.5q25 40 62 59.5t79 23.5t86.5 -5.5t85.5 -26.5l71 -32t72 -25t71 -2t69 37q7 13 24 13q15 0 25.5 -7.5t10.5 -22.5q-1 -8 -4.5 -27.5t-7 -44.5t-6.5 -51t-3 -45q0 -29 5 -29q6 0 14 11.5
t17.5 29.5t19.5 40.5t19 45l16.5 42.5t13.5 33v-1q0 12 8 18t18 6q13 0 24 -8t11 -22v2q-4 -31 -7 -60q-2 -25 -4 -53t-2 -48q0 -23 2 -38.5t9 -15.5q13 0 26.5 24t25.5 53.5l22.5 53.5t18.5 24q6 0 13 -4.5t7 -10.5l-4.5 -13t-12 -31.5t-18.5 -40.5t-24.5 -41t-28 -31.5
t-30.5 -12.5q-20 0 -32.5 16t-19 39t-8.5 49.5t-2 46.5v9l-3 -7q-7 -18 -17.5 -41.5t-23.5 -45t-27.5 -36t-29.5 -14.5q-14 0 -22.5 11.5t-13.5 31t-7 44t-2 51.5v32t1 27q-32 -21 -67 -23t-71.5 7t-74.5 24t-77 28q-38 12 -77 17.5t-74.5 0t-65.5 -23.5t-50 -52
q-10 -17 -16 -38.5t-8 -47.5z" />
    <glyph glyph-name="v.001" unicode="&#xe015;" horiz-adv-x="281" 
d="M-593 133q-2 -6 -7 -10t-11 -4t-11.5 5.5t-6.5 17.5q1 38 8.5 67.5t21.5 51.5q25 40 62 59.5t79 23.5t86.5 -5.5t85.5 -26.5l71 -32t72 -25t72 -2t70 38q2 7 8 10.5t18 3.5q14 0 23.5 -8t9.5 -25q-2 -9 -2.5 -29t-0.5 -46q0 -25 1.5 -52.5t4.5 -50t8.5 -37.5t14.5 -15
q14 0 34.5 40.5t37.5 102.5q-13 24 -20 51.5t-7 52.5q0 36 14 55.5t30 19.5t27.5 -15.5t11.5 -47.5q0 -23 -6 -53t-13 -60q0 -1 -1 -3t-1 -4l-1 1q11 -17 22 -24.5t22 -7.5q9 0 16.5 6.5t14.5 15t13 15t13 6.5t14 -4.5t7 -10.5q0 -12 -9 -22t-21 -18t-24.5 -12.5t-19.5 -4.5
q-30 0 -56 27q-7 -20 -16.5 -44.5t-22.5 -47t-29 -37.5t-36 -15q-25 0 -41 26t-25 63.5t-12.5 79t-4.5 73.5q-33 -24 -68.5 -27.5t-73 5.5t-76.5 24.5t-79 28.5q-38 12 -77 17.5t-74.5 0t-65.5 -23.5t-50 -52q-10 -17 -16 -38.5t-8 -47.5zM159 286q0 -14 2.5 -28.5
t7.5 -28.5q5 24 8.5 45.5t3.5 36.5q0 24 -5 24q-4 0 -10.5 -13t-6.5 -36z" />
    <glyph glyph-name="w.001" unicode="&#xe016;" horiz-adv-x="435" 
d="M-587 138q-2 -6 -7 -10t-11 -4t-11.5 5.5t-6.5 17.5q1 38 8.5 67.5t21.5 51.5q25 40 62 59.5t79 23.5t86.5 -5.5t85.5 -26.5l71 -32t72 -25t71.5 -1.5t69.5 38.5q4 8 10.5 9t15.5 1q14 0 26 -8.5t12 -21.5q0 -6 -1.5 -22t-3 -36.5t-3 -44t-1.5 -45.5q0 -16 1 -33t3.5 -31
t6.5 -23t11 -9t13.5 17t12.5 42t11.5 55l10 55t8.5 42t6 17q5 5 9.5 5.5t12.5 0.5q14 0 25 -9t11 -28q-1 -4 -1 -17q0 -22 2.5 -53.5t7.5 -60t13.5 -48.5t19.5 -20q10 0 19 14.5t17 36t14.5 45.5l11.5 43l4 16l1 -1q-17 27 -26.5 59.5t-9.5 58.5q0 31 14 47.5t28 16.5
q16 0 29.5 -18t13.5 -53q0 -20 -5 -51.5t-13 -60.5q30 -39 51 -39q13 0 20.5 8t12.5 17t8.5 17t8.5 8q10 0 16 -6t6 -14q-20 -59 -64 -59q-17 0 -33.5 8t-34.5 28l-3 -13q-5 -18 -12.5 -42t-18 -45.5t-24 -36.5t-30.5 -15q-20 0 -35.5 14t-27 36t-19.5 49.5t-12 54.5
q0 -2 -0.5 -2.5t-0.5 -2.5q-4 -21 -10 -47t-15 -48t-20.5 -37t-26.5 -15q-25 0 -40.5 22t-24 54.5t-11.5 70t-3 69.5v16.5t1 14.5q-33 -23 -68 -25.5t-72.5 6t-76.5 24t-78 28.5q-38 12 -77 17.5t-74.5 0t-65.5 -23.5t-50 -52q-10 -17 -16 -38.5t-8 -47.5zM326 280
q0 7 1 13.5t1 12.5q0 32 -8 32q-4 0 -9 -12t-5 -32q0 -15 3.5 -31t8.5 -33z" />
    <glyph glyph-name="x.001" unicode="&#xe017;" horiz-adv-x="252" 
d="M-652 109q-2 -6 -7 -10t-11 -4t-11.5 5.5t-6.5 17.5q1 38 8.5 67.5t21.5 51.5q25 40 62 59.5t79 23.5t86.5 -5.5t85.5 -26.5l71 -32t72 -25t71 -2t69 37q2 9 18 14t29 5q10 0 21 -10t21 -24.5t18.5 -31t13.5 -30.5q7 7 20 25l27 37t26.5 33t18.5 14t11.5 -5.5t5.5 -11.5
q0 -3 -4 -9q-23 -32 -47 -62t-46 -53l10 -32l10.5 -34t11.5 -31t13.5 -23t16.5 -9q12 0 26 13t28.5 33t28.5 44.5t25 47.5l11 22q3 7 14 7q6 0 12 -4t6 -9q0 -2 -7.5 -16l-12.5 -23q-13 -25 -28.5 -51.5t-33 -48.5t-37.5 -36.5t-41 -14.5q-30 0 -56 31.5t-43 82.5
q-18 -20 -31.5 -41.5t-27.5 -52.5q-5 -9 -15 -9q-7 0 -12 4t-5 9q0 3 2 7h-1q15 35 36 64.5t43 54.5q-9 29 -20.5 55.5t-34.5 46.5q-34 -37 -72 -45.5t-78.5 -1t-83.5 24.5t-86 31q-38 12 -77 17.5t-74.5 0t-65.5 -23.5t-50 -52q-10 -17 -16 -38.5t-8 -47.5z" />
    <glyph glyph-name="y.001" unicode="&#xe018;" horiz-adv-x="288" 
d="M-585 128q-2 -6 -7 -10t-11 -4t-11.5 5.5t-6.5 17.5q1 38 8.5 67.5t21.5 51.5q25 40 62 59.5t79 23.5t86.5 -5.5t85.5 -26.5q35 -15 70.5 -32t71.5 -25t71 -2.5t69 36.5v2q0 7 10.5 11.5t21.5 4.5q10 0 19 -5t10 -16q0 -8 -2.5 -30.5l-5.5 -50.5t-5.5 -57.5t-2.5 -50.5
q0 -35 4 -35q6 0 16.5 16t22.5 37.5t23 44.5t17 37q0 26 1.5 49t1.5 43q0 7 9.5 11.5t21.5 4.5q10 0 20 -5.5t10 -16.5q0 -56 -2 -108.5t-5 -107.5q10 11 25.5 33l31.5 43.5t29.5 38t19.5 16.5t12 -4.5t6 -10.5q0 -3 -2 -5q-11 -20 -26.5 -42.5t-32.5 -44l-34 -41.5l-30 -35
q0 -21 -2.5 -58t-8 -80t-14.5 -87.5t-23 -80t-32.5 -58.5t-43.5 -23q-15 0 -26.5 9.5t-19 24.5t-11.5 34t-4 38q0 38 13 76t32 72t39.5 62t35.5 46q2 20 2.5 41t1.5 43l2 43q-22 -39 -42.5 -68.5t-43.5 -29.5q-26 0 -36.5 31t-10.5 79q0 29 2 60t4 57q-33 -24 -68 -27.5
t-72.5 5.5t-76.5 24.5t-79 28.5q-38 12 -77 17.5t-74.5 0t-65.5 -23.5t-50 -52q-10 -17 -16 -38.5t-8 -47.5zM55 -347q9 0 17.5 15.5t15 40.5t12 56t9.5 61.5t6.5 58t3.5 44.5q-13 -17 -28 -40t-27.5 -49.5t-21 -56t-8.5 -59.5q0 -3 1 -14.5t3.5 -24t6.5 -22.5t10 -10z" />
    <glyph glyph-name="z.001" unicode="&#xe019;" horiz-adv-x="284" 
d="M-587 52q-2 -6 -7 -10t-11 -4t-11.5 5.5t-6.5 17.5q1 38 8.5 67.5t21.5 51.5q25 40 62 59.5t79 23.5t86.5 -5.5t85.5 -26.5q35 -14 70.5 -31t70.5 -25q31 -8 54.5 -2t43 18.5t37 29.5l35 32.5t37.5 26t45 10.5q35 0 55.5 -17t20.5 -42q0 -13 -8 -28t-20.5 -30
t-29.5 -28.5t-35 -23.5q13 -2 30 -7t34 -14t32 -22t24 -29q15 18 26 43t19 47t15 37.5t13 15.5t12 -3.5t6 -10.5q0 -3 -1 -7q-5 -16 -12 -35.5t-16 -40t-20.5 -40.5t-27.5 -36q10 -37 10 -78q0 -51 -15.5 -97.5t-41.5 -81.5t-60 -56t-71 -21q-32 0 -51.5 17t-19.5 46
q0 31 17 63.5t42 63t53.5 58t52.5 48.5l26 25l-2 -1q-10 48 -36.5 73t-68.5 25q-8 0 -12.5 1t-4.5 6q0 7 14.5 19.5l31.5 28t31.5 32.5t14.5 32t-11 23t-25 8q-25 0 -43 -10.5t-33.5 -25.5l-31 -31t-34.5 -28.5t-43.5 -17.5t-59.5 3q-38 9 -76.5 24.5t-78.5 28.5
q-38 12 -77 17.5t-74.5 0t-65.5 -23.5t-50 -52q-10 -17 -16 -38.5t-8 -47.5zM144 -59l-44.5 -42t-43.5 -48t-33 -51.5t-13 -53.5q0 -17 7 -24.5t17 -7.5q21 0 45 16.5t44.5 49t35 80.5t15.5 111z" />
    <glyph glyph-name="a.002" unicode="&#xe01a;" 
d="M138 133q-1 -1 -1 -2q0 1 1 2l-1 1q-13 -28 -28 -48t-29 -32.5t-26 -18t-19 -5.5q-14 0 -24 9t-16 22t-8.5 28.5t-2.5 28.5q0 28 8 54.5t22 47.5t33 33.5t40 12.5q23 0 41 -12t23 -35l2 5l-1 -1q1 6 7.5 9.5t15.5 3.5q12 0 24.5 -7t12.5 -21q0 -16 -2.5 -26t-5 -23
t-5 -32.5t-2.5 -54.5q0 -14 1 -23t3 -9l4 2h-1q8 4 20 16l3 4q34 39 72.5 48t79.5 2t84 -24.5t87 -31.5q38 -12 77 -17.5t74.5 0t65.5 23.5t50 52q10 17 16 38.5t8 47.5q1 6 6.5 10t11.5 4t11.5 -5.5t6.5 -17.5q-1 -38 -8.5 -67.5t-21.5 -51.5q-25 -41 -62 -60t-79 -23
t-86.5 5.5t-85.5 26.5l-71.5 32t-73 25t-72.5 1t-70 -40l-11.5 -11t-10.5 -9q-7 -5 -14.5 -9t-14.5 -4q-16 0 -27 11.5t-18 29.5t-10 39.5t-3 41.5v5zM123 176q3 10 3 18q0 17 -6.5 26t-15.5 9q-15 0 -26.5 -15t-19.5 -36t-12.5 -43.5t-4.5 -37.5q0 -28 7 -28q5 0 14.5 11.5
t20.5 28l22 34.5t18 32v1z" />
    <glyph glyph-name="b.002" unicode="&#xe01b;" horiz-adv-x="319" 
d="M164 -1q-30 -9 -49 -2t-26.5 23t-2 37t26.5 39q16 13 32.5 20t33.5 11v7q0 15 -1.5 33t-5 33t-9 25t-12.5 10q-13 0 -25.5 -24t-23 -57t-18 -67.5t-10.5 -55.5v-18q0 -11 -4 -18t-22 -7q-13 0 -23.5 4.5t-12.5 15.5q-7 49 -10.5 103.5t-3.5 108.5q0 31 1 60t3 56
q1 35 4 76t9 81t16.5 76.5t26.5 63.5t36.5 40t39 11t32 -19.5t15.5 -52.5q0 -42 -8 -84.5t-23 -82.5t-37.5 -75t-51.5 -61l2 1q-1 -17 -1.5 -37l-1 -40.5t-0.5 -39v-31.5v-15.5t1 -19.5q6 22 14.5 46.5t20 45.5t25.5 35t31 14q24 0 41 -12t27.5 -32t14 -45.5t1.5 -51.5
q43 -6 88 -24t92 -33q38 -12 77 -17.5t74.5 0t65.5 23.5t50 52q10 17 16 38.5t8 47.5q1 6 6.5 10t11.5 4t11.5 -5.5t6.5 -17.5q-1 -38 -8.5 -67.5t-21.5 -51.5q-25 -41 -62 -60t-79 -23t-86.5 5.5t-85.5 26.5q-42 17 -84 36.5t-85 24.5q-8 -33 -24.5 -59.5t-42.5 -37.5z
M64 355q42 51 64.5 118.5t22.5 131.5q0 28 -6 39t-14 9.5t-17 -12.5t-15 -28q-10 -27 -16 -60.5t-10 -68t-6 -68t-3 -61.5zM145 35q8 10 14.5 24.5t11.5 29.5q-9 -3 -18 -7t-17 -10q-12 -8 -16.5 -19.5t-3 -20t9 -10t19.5 12.5z" />
    <glyph glyph-name="c.002" unicode="&#xe01c;" horiz-adv-x="231" 
d="M766 229q1 6 6.5 10t11.5 4t11.5 -5.5t6.5 -17.5q-1 -38 -8.5 -67.5t-21.5 -51.5q-25 -41 -62 -60t-79 -23t-86.5 5.5t-85.5 26.5l-71.5 32t-73 25t-72.5 1t-70 -40q-27 -24 -58 -41.5t-58 -17.5q-21 0 -35.5 9t-23 24t-12 33t-3.5 36q0 28 8.5 58t24.5 54t38.5 39.5
t50.5 15.5q5 0 14.5 -1.5t18.5 -4.5t16 -7.5t7 -10.5q0 -5 -4 -8.5t-11 -3.5q-2 0 -11 3t-14 3q-18 0 -32.5 -14.5t-25.5 -36t-17 -48t-6 -50.5q0 -21 7 -38.5t27 -17.5q18 2 38.5 15t40.5 33q34 39 72.5 48t79.5 2t84 -24.5t87 -31.5q38 -12 77 -17.5t74.5 0t65.5 23.5
t50 52q10 17 16 38.5t8 47.5z" />
    <glyph glyph-name="d.002" unicode="&#xe01d;" horiz-adv-x="292" 
d="M858 221q1 6 6.5 10t11.5 4t11.5 -5.5t6.5 -17.5q-1 -38 -8.5 -67.5t-21.5 -51.5q-25 -41 -62 -60t-79 -23t-86.5 5.5t-85.5 26.5l-59 25.5t-60 23t-60 11t-59 -10.5q-23 -9 -38.5 -24.5t-29.5 -33.5l-9 -12q-7 -9 -14 -14t-18 -5q-36 0 -53.5 38t-22.5 98
q-13 -28 -28 -47.5t-28.5 -32t-25.5 -18t-19 -5.5q-14 0 -24 9t-16 22t-8.5 28.5t-2.5 28.5q0 28 8 54.5t22 47.5t33 33.5t40 12.5q20 0 31 -12.5t17 -31.5q1 52 6.5 105.5t13 101.5t15 85.5t12.5 57.5q14 54 38 81.5t47 29t40 -22t17 -72.5t-10.5 -94t-27.5 -83t-39 -67
t-44 -47q0 -4 -0.5 -16.5t-1.5 -30.5t-1.5 -40t-0.5 -45q0 -26 1 -50t3 -43.5t5.5 -31t8.5 -11.5q3 0 7.5 6t9.5 14q15 23 31 41.5t42 29.5q30 13 62.5 11.5t66 -11t68.5 -23t71 -25.5q38 -12 77 -17.5t74.5 0t65.5 23.5t50 52q10 17 16 38.5t8 47.5zM200 357q-1 -3 -1 -8
q17 20 33 48t28 61t19.5 69t7.5 74q0 40 -7.5 53t-18 5.5t-20.5 -31t-14 -55.5l-8 -59.5l-8 -59.5t-7 -54t-4 -43zM98 176q3 10 3 18q0 17 -6.5 26t-15.5 9q-15 0 -26.5 -15t-19.5 -36t-12.5 -43.5t-4.5 -37.5q0 -28 7 -28q5 0 14.5 11.5t20.5 28l22 34.5t18 32v1z" />
    <glyph glyph-name="e.002" unicode="&#xe01e;" horiz-adv-x="268" 
d="M799 228q1 6 6.5 10t11.5 4t11.5 -5.5t6.5 -17.5q-1 -38 -8.5 -67.5t-21.5 -51.5q-25 -41 -62 -60t-79 -23t-86.5 5.5t-85.5 26.5l-60.5 27t-61.5 24q-37 11 -64.5 8.5t-50 -12.5t-42 -24.5l-39.5 -28.5t-42.5 -23.5t-51.5 -9.5q-24 0 -42 10t-30 26t-17.5 36t-5.5 41
q0 36 12 66.5t32 53t45 35.5t51 13q32 0 50.5 -14.5t18.5 -38.5q0 -19 -13 -39.5t-34 -38.5t-47.5 -32t-53.5 -21q3 -25 13 -42.5t34 -17.5q28 0 50.5 9t42 21.5t38 26t39 23t45.5 12.5t58 -6q35 -9 70.5 -23t71.5 -26q38 -12 77 -17.5t74.5 0t65.5 23.5t50 52
q10 17 16 38.5t8 47.5zM132 262q-19 0 -34 -13t-26 -32t-17.5 -41t-8.5 -40q19 7 39.5 19t37 25.5t27 28t10.5 27.5t-9 19.5t-19 6.5z" />
    <glyph glyph-name="f.002" unicode="&#xe01f;" horiz-adv-x="249" 
d="M657 180q1 6 6.5 10t11.5 4t11.5 -5.5t6.5 -17.5q-1 -38 -8.5 -67.5t-21.5 -51.5q-25 -41 -62 -60t-79 -23t-86.5 5.5t-85.5 26.5q-35 14 -71.5 31t-72.5 25.5t-71.5 2t-69.5 -38.5l16 -64v1l23 -91t17 -99q5 -52 -8 -83.5t-33.5 -37.5t-41.5 16.5t-33 79.5q-5 25 -7 47
t-4 33q-4 39 -6 80t-2 81q0 92 8.5 178.5t24.5 155.5q5 22 15 45t25 42.5t35.5 32t46.5 12.5q32 0 45 -21.5t13 -47.5q0 -34 -12 -66t-32 -63t-46 -61.5l-54 -61.5q0 -17 -1 -38.5t-1 -38.5q34 33 71 39.5t77 -1t81.5 -24.5t83.5 -30q38 -12 77 -17.5t74.5 0t65.5 23.5
t50 52q10 17 16 38.5t8 47.5zM68 269l-5.5 -43t-4.5 -46l39.5 48t36.5 48.5t26.5 51t10.5 56.5q0 20 -5 29t-13 9q-21 0 -36 -18t-25 -42.5t-15.5 -50.5t-8.5 -42zM91 -235q-5 57 -17.5 112t-23.5 96q0 -64 1 -117.5t4 -95.5q4 -53 12 -71t14.5 -12t10 31t-0.5 57z" />
    <glyph glyph-name="g.002" unicode="&#xe020;" horiz-adv-x="308" 
d="M756 114q1 6 6.5 10t11.5 4t11.5 -5.5t6.5 -17.5q-1 -38 -8.5 -67.5t-21.5 -51.5q-25 -41 -62 -60t-79 -23t-86.5 5.5t-85.5 26.5q-31 13 -62.5 28t-63.5 24.5t-63.5 9.5t-62.5 -17q-2 -28 -5 -66t-9 -78.5t-14.5 -79.5t-21 -70t-29 -50t-38.5 -19q-15 0 -27 10t-20.5 26
t-12.5 35.5t-4 38.5q0 38 12.5 76t30.5 72t38 61.5t35 45.5q0 10 1.5 33t2.5 47.5t1.5 45.5t-1.5 26q-13 -28 -28 -48t-29 -32.5t-26 -18t-19 -5.5q-14 0 -24 9t-16 22t-8.5 28.5t-2.5 28.5q0 28 8 54.5t22 47.5t33 33.5t40 12.5q23 0 41 -12t23 -35q23 23 37.5 11.5
t14.5 -46.5v-19.5t-0.5 -28t-1 -45.5t-1.5 -73q30 13 62 11t65.5 -11t68.5 -23t70 -25q38 -12 77 -17.5t74.5 0t65.5 23.5t50 52q10 17 16 38.5t8 47.5zM74 -351q8 0 15 15.5t13 40.5t10.5 55.5t8 61.5t5.5 58t3 44q-13 -18 -27.5 -43t-26.5 -53t-20 -57t-8 -55q0 -9 2 -21
t5.5 -22t8.5 -17t11 -7zM122 176q3 10 3 18q0 17 -6.5 26t-15.5 9q-15 0 -26.5 -15t-19.5 -36t-12.5 -43.5t-4.5 -37.5q0 -28 7 -28q5 0 14.5 11.5t20.5 28l22 34.5t18 32v1z" />
    <glyph glyph-name="h.002" unicode="&#xe021;" horiz-adv-x="324" 
d="M880 235q1 6 6.5 10t11.5 4t11.5 -5.5t6.5 -17.5q-1 -38 -8.5 -67.5t-21.5 -51.5q-25 -41 -62 -60t-79 -23t-86.5 5.5t-85.5 26.5l-72 31.5t-73.5 24t-73 0.5t-70.5 -41q-8 -11 -17.5 -22t-19 -20t-18.5 -15t-16 -6q-15 0 -24.5 9.5t-15.5 24.5t-8.5 32.5t-2.5 33.5
q0 20 1 34t2.5 26l3 24.5t1.5 28.5v8l-3 -3q-13 -18 -28 -48.5t-28.5 -62t-24 -60t-15.5 -43.5q-8 -10 -27 -10q-11 0 -22 4.5t-13 14.5q-5 43 -8 85t-3 84q0 36 3 73.5t5 72.5q1 20 5 56t10 78t15.5 85t23 78t31 57.5t40.5 22.5q19 0 30.5 -11t17.5 -27.5t8 -34.5t2 -33
q0 -50 -11 -95.5t-28 -84t-39.5 -68.5t-44.5 -49q-3 -34 -4 -70.5t-1 -71.5v-21.5v-16.5t0.5 -17t0.5 -21l23.5 55t32 64t36 52.5t36.5 21.5q12 0 20 -8.5t12.5 -21.5t6.5 -28.5t2 -30.5q0 -16 -1 -30.5t-2 -22.5q-2 -7 -4.5 -29.5t-2.5 -42.5v-16.5t2 -6.5q4 0 10 6.5
t12.5 15t12 16.5t8.5 11q34 39 72.5 48t79.5 2t84 -24.5t87 -31.5q38 -12 77 -17.5t74.5 0t65.5 23.5t50 52q10 17 16 38.5t8 47.5zM141 690q-11 0 -20 -19t-16.5 -49.5t-13.5 -68t-10.5 -74.5t-8 -69t-4.5 -52q18 21 34.5 50t29 63t20.5 72t8 77q0 6 -0.5 17.5t-2.5 23.5
t-6 20.5t-10 8.5z" />
    <glyph glyph-name="i.002" unicode="&#xe022;" horiz-adv-x="151" 
d="M708 244q1 6 6.5 10t11.5 4t11.5 -5.5t6.5 -17.5q-1 -38 -8.5 -67.5t-21.5 -51.5q-25 -41 -62 -60t-79 -23t-86.5 5.5t-85.5 26.5q-25 10 -50.5 22t-51 21.5t-51 15t-50.5 2.5q-20 -2 -39 -10.5t-37 -25.5q-9 -11 -18 -24t-18 -24t-18 -18t-17 -7q-19 0 -29.5 15
t-16 39.5t-7 55.5t-1.5 63q0 26 0.5 48t4.5 37.5t11 24t21 8.5q13 0 25 -7t12 -20q0 -8 -2.5 -30t-6 -49t-6 -56t-2.5 -51q0 -35 6 -35q5 0 11.5 10.5t17.5 26.5q7 11 19.5 21.5t26 18.5t27.5 13.5t26 7.5q27 3 54.5 -2t56.5 -14t58.5 -20.5t59.5 -21.5q38 -12 77 -17.5
t74.5 0t65.5 23.5t50 52q10 17 16 38.5t8 47.5zM27 386q14 8 29 2t20 -25q5 -25 -18 -35q-13 -5 -28 -2t-20 22q-2 11 2 21.5t15 16.5z" />
    <glyph glyph-name="j.002" unicode="&#xe023;" horiz-adv-x="158" 
d="M630 136q1 6 6.5 10t11.5 4t11.5 -5.5t6.5 -17.5q-1 -38 -8.5 -67.5t-21.5 -51.5q-25 -41 -62 -60t-79 -23t-86.5 5.5t-85.5 26.5q-33 13 -67 29t-68 25t-67.5 6.5t-65.5 -25.5q-1 -29 -3.5 -67.5t-8 -79.5t-13.5 -81t-20.5 -71.5t-30 -51t-40.5 -19.5q-16 0 -28 14.5
t-20.5 35t-13 42.5t-4.5 38q0 34 11 67t28.5 63t38 57l39.5 50l-1 -1q3 56 6 122t3 126q0 7 -0.5 14t-0.5 14v24q0 12 7.5 18t18.5 6q25 0 32 -19t7 -43q0 -48 -0.5 -92.5t-2.5 -89.5q0 1 -0.5 -12t-1.5 -24q31 18 65 18.5t70 -8.5t72.5 -23.5t74.5 -26.5t77 -17.5t74.5 0
t65.5 23.5t50 52q10 17 16 38.5t8 47.5zM-69 -344q9 0 16 15.5t13 40.5t10.5 55.5t7.5 61t5 57.5t3 44q-12 -17 -26 -39t-26 -47.5t-20 -53.5t-8 -57q0 -3 1 -15.5t3.5 -26t7.5 -24.5t13 -11zM20 396q13 0 26 -9.5t13 -29.5q0 -11 -6.5 -19.5t-18.5 -8.5q-16 0 -27.5 10
t-11.5 30q0 12 7 19.5t18 7.5z" />
    <glyph glyph-name="k.002" unicode="&#xe024;" horiz-adv-x="276" 
d="M836 215q1 6 6.5 10t11.5 4t11.5 -5.5t6.5 -17.5q-1 -38 -8.5 -67.5t-21.5 -51.5q-25 -41 -62 -60t-79 -23t-86.5 5.5t-85.5 26.5l-71.5 32t-73 25t-72.5 1t-70 -40l-27 -28t-34 -14q-20 0 -36.5 9.5t-30 23.5t-23.5 30l-18 29q0 -10 -0.5 -27.5t-3.5 -35t-10 -30
t-21 -12.5q-28 0 -35 24t-7 56q0 58 1 125.5t6 130.5q2 20 6 56t10.5 78t16.5 85.5t24.5 78.5t33 57.5t41.5 22.5q19 0 29.5 -13t16 -31t6.5 -37t1 -31q0 -43 -8.5 -85t-24 -80t-38.5 -70t-53 -55q-3 -39 -3 -78t-2 -75v-1q0 1 6 21t16.5 43t26 42.5t35.5 19.5
q21 0 35.5 -14t14.5 -34q0 -10 -2 -17t-7.5 -13.5t-15 -14.5t-25.5 -20q-12 -10 -21 -16.5t-9 -11.5q1 -9 8 -24.5t17 -30.5t21.5 -26t21.5 -11q11 0 22 8t19 19q34 39 72.5 48t79.5 2t84 -24.5t87 -31.5q38 -12 77 -17.5t74.5 0t65.5 23.5t50 52q10 17 16 38.5t8 47.5z
M141 689q-11 0 -20 -19.5t-16.5 -50.5t-14 -69t-11.5 -75.5t-8 -70.5t-5 -53q43 48 67.5 114.5t24.5 138.5q0 40 -4.5 62.5t-12.5 22.5zM138 254q-11 0 -24 -20t-21 -43q19 14 32.5 32t13.5 27q0 4 -1 4z" />
    <glyph glyph-name="l.002" unicode="&#xe025;" horiz-adv-x="173" 
d="M747 227q1 6 6.5 10t11.5 4t11.5 -5.5t6.5 -17.5q-1 -38 -8.5 -67.5t-21.5 -51.5q-25 -41 -62 -60t-79 -23t-86.5 5.5t-85.5 26.5l-95.5 39t-76.5 19.5t-68 -15.5t-69 -65q-12 -17 -26 -27t-30 -10q-24 0 -39.5 19.5t-23.5 50t-11 66.5t-3 69q0 29 1.5 54t1.5 42
q1 21 3.5 60.5t8.5 86t15.5 95t23.5 88.5t34 65t46 25q18 0 28.5 -13t16.5 -31t7.5 -37.5t1.5 -32.5q0 -50 -10.5 -95t-27.5 -82.5t-39 -66.5t-45 -48l-3 -51q-2 -23 -3 -46t-1 -46q0 -19 1 -42.5t4 -44.5t8 -35t13 -14q9 0 23 19q43 53 79.5 73.5t76 19.5t86 -17.5
t108.5 -36.5q38 -12 77 -17.5t74.5 0t65.5 23.5t50 52q10 17 16 38.5t8 47.5zM139 685q-11 0 -19.5 -19.5t-16 -50t-13.5 -68.5t-10.5 -75.5t-7.5 -70.5t-4 -53q17 21 33 48.5t28.5 60t20 68.5t7.5 75t-5.5 62t-12.5 23z" />
    <glyph glyph-name="m.002" unicode="&#xe026;" horiz-adv-x="438" 
d="M1003 221q1 6 6.5 10t11.5 4t11.5 -5.5t6.5 -17.5q-1 -38 -8.5 -67.5t-21.5 -51.5q-25 -41 -62 -60t-79 -23t-86.5 5.5t-85.5 26.5l-81 36t-82 24q-29 4 -49.5 -0.5t-36.5 -15t-29.5 -27.5t-28.5 -38q-15 -22 -38 -22q-24 0 -37 19t-18.5 45.5t-6.5 54.5t-1 47v17t2 13
q-20 -35 -38.5 -83t-44.5 -97q-9 -11 -26 -11q-22 0 -26.5 12.5t-4.5 50.5q0 15 0.5 31t0.5 33v73q-14 -20 -28 -49t-26.5 -58.5l-23.5 -53.5t-20 -33q-6 -6 -23 -6q-11 0 -22.5 6t-11.5 25q0 56 1 116t1 124q0 9 7 14t17 5q13 0 24.5 -8.5t11.5 -24.5q-1 -12 -1.5 -35.5
t-0.5 -49v-49v-36.5l26.5 59t30.5 56t31.5 41.5t28.5 16.5q17 0 28.5 -25t11.5 -77q0 -14 -0.5 -29.5t-1.5 -28.5l20.5 46.5t26.5 52t28.5 42t26.5 17.5q10 0 17 -8.5t11 -21.5t5.5 -30t1.5 -33q0 -26 -1.5 -52t-1.5 -47q0 -17 1 -27.5t5 -10.5q5 0 15 13q32 51 70.5 74
t96.5 15q43 -6 87.5 -24t91.5 -33q38 -12 77 -17.5t74.5 0t65.5 23.5t50 52q10 17 16 38.5t8 47.5z" />
    <glyph glyph-name="n.002" unicode="&#xe027;" horiz-adv-x="282" 
d="M841 216q1 6 6.5 10t11.5 4t11.5 -5.5t6.5 -17.5q-1 -38 -8.5 -67.5t-21.5 -51.5q-25 -41 -62 -60t-79 -23t-86.5 5.5t-85.5 26.5l-83 35.5t-77.5 23t-73 -7t-68.5 -54.5q-11 -13 -21 -22.5t-23 -9.5q-18 0 -29 10.5t-17 27t-8.5 36.5t-2.5 40q0 25 2.5 46t2.5 35
q-22 -36 -42.5 -83t-47.5 -95q-9 -11 -26 -11q-11 0 -20 5.5t-9 20.5q0 43 2.5 87.5t4.5 88.5l3 57q1 11 9 16t17 5q14 0 24 -8.5t10 -24.5q-4 -39 -7 -75t-6 -78q9 20 23.5 47.5t30 53t31.5 43.5t30 18q18 0 24 -21.5t6 -48.5q0 -29 -3.5 -64.5t-3.5 -61.5q0 -12 1 -20
t4 -8t8 6l12 14q37 47 77.5 60.5t83.5 7.5t87.5 -23.5t90.5 -32.5q38 -12 77 -17.5t74.5 0t65.5 23.5t50 52q10 17 16 38.5t8 47.5z" />
    <glyph glyph-name="o.002" unicode="&#xe028;" horiz-adv-x="290" 
d="M874 290q1 6 6.5 10t11.5 4t11.5 -5.5t6.5 -17.5q-1 -38 -8.5 -67.5t-21.5 -51.5q-25 -41 -62 -60t-79 -23t-86.5 5.5t-85.5 26.5q-24 10 -49.5 22t-51 21.5t-51 14.5t-50.5 2q-32 -3 -54 -20t-40 -36t-36.5 -34.5t-44.5 -15.5h-8q-16 -26 -40 -43t-56 -17
q-23 0 -39.5 10.5t-27.5 28.5t-16.5 41t-5.5 47q0 57 26 91t75 34q10 31 28.5 39.5t36 -2t30.5 -38.5t13 -71q0 -25 -2.5 -48.5t-8.5 -43.5q23 9 37.5 25.5l30 34t36 32t56.5 19.5q27 3 54.5 -2t56.5 -14.5t58 -21t59 -20.5q38 -12 77 -17.5t74.5 0t65.5 23.5t50 52
q10 17 16 38.5t8 47.5zM151 78q-14 12 -24 29.5t-16.5 38t-10 41t-4.5 37.5q-21 -7 -31.5 -38t-10.5 -67q0 -15 2.5 -29t8.5 -25.5t15.5 -18.5t23.5 -7q14 -1 26.5 11.5t20.5 27.5zM175 192q-2 27 -7.5 46t-12.5 28t-14 6t-12 -20q8 -4 18 -10t18 -14q3 -5 1.5 -15.5
t-6.5 -13.5q-8 8 -19.5 13.5l-13.5 6.5q0 -12 2.5 -28t6.5 -31.5t10.5 -29.5t15.5 -23q7 20 10 41.5t3 43.5z" />
    <glyph glyph-name="p.002" unicode="&#xe029;" horiz-adv-x="259" 
d="M688 227q1 6 6.5 10t11.5 4t11.5 -5.5t6.5 -17.5q-1 -38 -8.5 -67.5t-21.5 -51.5q-25 -41 -62 -60t-79 -23t-86.5 5.5t-85.5 26.5q-23 9 -45.5 19.5t-46 20t-46.5 15.5t-46 6q-18 -50 -41.5 -70t-46.5 -20q-20 0 -34 12t-14 30q0 14 7 26q15 22 34 33.5t36 17.5
q1 8 2.5 27t1 39t-5 35t-15.5 15q-6 0 -14.5 -7.5t-18 -18.5t-18 -25t-13.5 -27q-1 -11 -1 -13.5v-14.5v-76q-1 -22 -3.5 -61t-8 -86t-14.5 -95.5t-22.5 -88t-33 -64.5t-45.5 -25q-17 1 -27.5 11t-16.5 25t-8 32t-2 31q0 33 9 67.5t25 67t36.5 60.5t44.5 49q1 15 1.5 37.5
t1.5 48t1.5 53.5t0.5 55q0 26 -0.5 50t-1.5 47q0 7 7 11t18 4q12 0 19.5 -8t12 -19.5t6.5 -24.5t2 -24q14 29 33 45.5t37 16.5q27 0 42.5 -16t23.5 -38.5t9.5 -47.5t-0.5 -43q47 -4 95 -23.5t99 -35.5q38 -12 77 -17.5t74.5 0t65.5 23.5t50 52q10 17 16 38.5t8 47.5z
M-76 -324q10 0 18.5 16t15.5 42t12 57.5t9 62t6 57t3 41.5q-15 -19 -30.5 -42.5t-28 -49.5t-20 -55t-7.5 -58q0 -40 8.5 -55.5t13.5 -15.5zM134 102q-8 -2 -22 -11t-20 -20q-8 -16 0 -18.5t20 7.5q7 6 13 18.5t9 23.5z" />
    <glyph glyph-name="q.002" unicode="&#xe02a;" horiz-adv-x="281" 
d="M780 172q1 6 6.5 10t11.5 4t11.5 -5.5t6.5 -17.5q-1 -38 -8.5 -67.5t-21.5 -51.5q-25 -41 -62 -60t-79 -23t-86.5 5.5t-85.5 26.5q-34 14 -68.5 30.5t-69.5 25t-69.5 4.5t-67.5 -31q1 -22 13 -58t25 -80.5t24 -95t11 -101.5q0 -37 -12.5 -64.5t-37.5 -27.5
q-17 0 -31.5 13.5t-25.5 33.5t-19 43t-12 42q-11 42 -14 86t-3 87q0 39 2 77l4 75q-11 -14 -26 -26.5t-34 -12.5q-21 0 -35 10t-22.5 25.5t-12.5 34.5t-4 37q0 30 6.5 56.5t18 46.5t26.5 32t33 12q19 0 37.5 -10.5t35.5 -27.5l2 12q3 17 7.5 30t21.5 13q13 0 26.5 -8
t13.5 -22q0 -4 -2 -8h1q-12 -44 -19.5 -93.5t-9.5 -90.5l-1 -9q33 28 69.5 32.5t75 -4t78.5 -24.5t81 -29q38 -12 77 -17.5t74.5 0t65.5 23.5t50 52q10 17 16 38.5t8 47.5zM67 40q7 0 15.5 7t17 17.5t16.5 23t13 22.5l-1 -1q2 22 5.5 44.5t5.5 43.5l1 -1q-13 20 -23.5 27.5
t-18.5 7.5q-17 0 -34.5 -33.5t-17.5 -94.5q0 -26 5 -44t16 -19zM198 -96l-6.5 19.5l-4.5 13.5t-3.5 12.5l-3.5 15.5q-3 -45 -3 -89q0 -24 2 -66.5t6.5 -84.5t12.5 -72.5t20 -30.5q8 0 14.5 18.5t6.5 48.5q0 25 -4.5 55t-10.5 59.5t-13 56t-13 44.5z" />
    <glyph glyph-name="r.002" unicode="&#xe02b;" horiz-adv-x="191" 
d="M736 198q1 6 6.5 10t11.5 4t11.5 -5.5t6.5 -17.5q-1 -38 -8.5 -67.5t-21.5 -51.5q-25 -41 -62 -60t-79 -23t-86.5 5.5t-85.5 26.5q-34 14 -69 30.5t-70 25t-69.5 4t-67.5 -31.5q-15 -19 -35.5 -35.5t-42.5 -16.5t-37 17t-15 64q0 21 3.5 39.5t3.5 34.5q0 3 -12 13.5
t-26.5 26.5t-26.5 37t-12 46q0 29 15 52t42 23q19 0 36 -13t17 -39t-8.5 -47t-21.5 -44q6 -7 16.5 -10.5t20 -7.5t17 -11.5t7.5 -21.5q0 -12 -3 -27t-7 -30t-7 -29.5t-3 -26.5q0 -14 6 -14q14 0 23.5 12t18.5 21q37 37 75.5 46t79 2t82.5 -23.5t86 -30.5q38 -12 77 -17.5
t74.5 0t65.5 23.5t50 52q10 17 16 38.5t8 47.5zM2 267q0 -11 2 -22t7 -19q7 12 13.5 32.5t6.5 36.5q0 23 -10 23q-8 0 -13.5 -13.5t-5.5 -37.5z" />
    <glyph glyph-name="s.002" unicode="&#xe02c;" horiz-adv-x="165" 
d="M105 25q0 -16 -3.5 -31.5t-12 -28t-22.5 -20.5t-35 -8q-23 0 -35.5 16.5t-12.5 39.5q0 29 15.5 51.5t39.5 36.5q-1 10 -9.5 28t-18 41t-17.5 49t-8 53q0 32 15 56t55 26q11 0 17 -10.5t-5 -18.5q-19 2 -26 -7t-6.5 -25t6.5 -37.5t14.5 -44.5t18 -46t15.5 -42q28 6 57.5 2
t60 -13.5t62 -22t63.5 -22.5q38 -12 77 -17.5t74.5 0t65.5 23.5t50 52q10 17 16 38.5t8 47.5q1 6 6.5 10t11.5 4t11.5 -5.5t6.5 -17.5q-1 -38 -8.5 -67.5t-21.5 -51.5q-25 -41 -62 -60t-79 -23t-86.5 5.5t-85.5 26.5q-27 11 -54 23.5t-54 22.5t-54.5 14t-54.5 -2
q5 -25 5 -45zM45 -19q6 16 6 33q0 8 -1 17t-3 17q-16 -12 -25 -29t-9 -31q0 -11 4.5 -17t9.5 -6q10 0 19 16h-1z" />
    <glyph glyph-name="t.002" unicode="&#xe02d;" horiz-adv-x="223" 
d="M787 241q1 6 6.5 10t11.5 4t11.5 -5.5t6.5 -17.5q-1 -38 -8.5 -67.5t-21.5 -51.5q-25 -41 -62 -60t-79 -23t-86.5 5.5t-85.5 26.5q-24 10 -48.5 21.5t-49.5 21t-50 15t-49 3.5q-26 -2 -43.5 -11t-32 -22t-27.5 -28.5t-29 -30.5q-37 -34 -69 -34q-26 0 -42.5 18
t-25.5 47.5t-12.5 66t-3.5 74.5q0 28 1 56.5t2.5 53t3 44.5t3.5 32q-36 3 -58.5 3.5t-30.5 -18.5q-8 -2 -18.5 -2t-10.5 10q-1 21 15.5 29t38 9.5t41.5 -0.5t28 -3q3 12 7.5 26.5t7.5 19.5q7 12 25 12q14 0 24.5 -8t10.5 -19q-3 -14 -6 -24.5t-3 -12.5q15 -1 33 -2t35 2
t31 10.5t23 22.5q2 4 12 4.5t16 -11.5q-3 -22 -22.5 -34t-44.5 -17.5t-49.5 -6t-39.5 2.5q-10 -45 -14 -100t-4 -106q0 -64 7.5 -105t24.5 -41q21 0 48 27q17 17 30.5 34t28.5 30.5t34 23t46 11.5q26 2 53 -3.5t55 -14.5t56.5 -20.5t57.5 -20.5q38 -12 77 -17.5t74.5 0
t65.5 23.5t50 52q10 17 16 38.5t8 47.5z" />
    <glyph glyph-name="u.002" unicode="&#xe02e;" horiz-adv-x="295" 
d="M858 216q1 6 6.5 10t11.5 4t11.5 -5.5t6.5 -17.5q-1 -38 -8.5 -67.5t-21.5 -51.5q-25 -41 -62 -60t-79 -23t-86.5 5.5t-85.5 26.5q-26 10 -52 22.5t-52.5 22.5t-53 14.5t-52.5 0.5q-35 -7 -55.5 -26.5l-41.5 -40.5t-40 -21q-20 0 -32.5 16t-19 39t-8.5 49.5t-2 46.5v9
l-3 -7q-7 -18 -17.5 -41.5t-23.5 -45t-27.5 -36t-29.5 -14.5q-14 0 -22.5 11.5t-13.5 31t-7 44t-2 51.5q0 66 4.5 93.5t29.5 27.5q15 0 25.5 -7.5t10.5 -22.5q-1 -8 -4.5 -27.5t-7 -44.5t-6.5 -51t-3 -45q0 -29 5 -29q6 0 14 11.5t17.5 29.5t19.5 40.5t19 45l16.5 42.5
t13.5 33q0 11 8 17t18 6q13 0 24 -8t11 -22v2q-4 -31 -7 -60q-2 -25 -4 -53t-2 -48q0 -23 2 -38.5t9 -15.5q5 0 9.5 4t9.5 10q23 31 48 52t65 26q26 3 53.5 -2.5t56 -14.5t57.5 -20.5t59 -21.5q38 -12 77 -17.5t74.5 0t65.5 23.5t50 52q10 17 16 38.5t8 47.5z" />
    <glyph glyph-name="v.002" unicode="&#xe02f;" horiz-adv-x="281" 
d="M887 310q1 6 6.5 10t11.5 4t11.5 -5.5t6.5 -17.5q-1 -38 -8.5 -67.5t-21.5 -51.5q-25 -41 -62 -60t-79 -23t-86.5 5.5t-85.5 26.5q-26 11 -52.5 23.5t-53.5 22t-54 14t-53 -0.5t-48 -22.5t-43 -31t-44 -14.5t-50 26q-7 -20 -16.5 -44.5t-22.5 -47t-29 -37.5t-36 -15
q-26 0 -42.5 28.5t-25.5 68.5t-12 84t-3 74q0 22 4 34t26 12q14 0 23.5 -8t9.5 -25q-2 -9 -2.5 -29t-0.5 -46q0 -25 1.5 -52.5t4.5 -50t8.5 -37.5t14.5 -15q14 0 34.5 40.5t37.5 102.5q-13 24 -20 51.5t-7 52.5q0 36 14 55.5t30 19.5t27.5 -15.5t11.5 -47.5q0 -23 -6 -53
t-13 -60q0 -1 -1 -3t-1 -4l-1 1q17 -28 39 -26t46 16.5t48 32t46 19.5q26 3 54 -2.5t56.5 -14.5t57.5 -20.5t59 -20.5q38 -12 77 -17.5t74.5 0t65.5 23.5t50 52q10 17 16 38.5t8 47.5zM159 286q0 -14 2.5 -28.5t7.5 -28.5q5 24 8.5 45.5t3.5 36.5q0 24 -5 24q-4 0 -10.5 -13
t-6.5 -36z" />
    <glyph glyph-name="w.002" unicode="&#xe030;" horiz-adv-x="435" 
d="M1041 308q1 6 6.5 10t11.5 4t11.5 -5.5t6.5 -17.5q-1 -38 -8.5 -67.5t-21.5 -51.5q-25 -41 -62 -60t-79 -23t-86.5 5.5t-85.5 26.5l-78.5 31.5t-65 17.5t-61 -3.5t-65.5 -30.5q-40 -27 -69.5 -27t-62.5 35l-3 -13q-5 -18 -12.5 -42t-18 -45.5t-24 -36.5t-30.5 -15
q-20 0 -35.5 14t-27 36t-19.5 49.5t-12 54.5q0 -2 -0.5 -2.5t-0.5 -2.5q-4 -21 -10 -47t-15 -48t-20.5 -37t-26.5 -15q-25 0 -40.5 22t-24 54.5t-11.5 70t-3 69.5q0 35 1.5 53t5.5 26t10 9t15 1q14 0 26 -8.5t12 -21.5q0 -6 -1.5 -22t-3 -36.5t-3 -44t-1.5 -45.5
q0 -16 1 -33t3.5 -31t6.5 -23t11 -9t13.5 17t12.5 42t11.5 55l10 55t8.5 42t6 17q5 5 9.5 5.5t12.5 0.5q14 0 25 -9t11 -28q-1 -4 -1 -17q0 -22 2.5 -53.5t7.5 -60t13.5 -48.5t19.5 -20q10 0 19 14.5t17 36t14.5 45.5l11.5 43l4 16l1 -1q-17 27 -26.5 59.5t-9.5 58.5
q0 31 14 47.5t28 16.5q16 0 29.5 -18t13.5 -53q0 -20 -5 -51.5t-13 -60.5q15 -20 27 -28.5t24 -8.5t26 6.5t32 18.5q40 27 77 34.5t73 2t72.5 -18.5t77.5 -26q38 -12 77 -17.5t74.5 0t65.5 23.5t50 52q10 17 16 38.5t8 47.5zM326 280q0 7 1 13.5t1 12.5q0 32 -8 32
q-4 0 -9 -12t-5 -32q0 -15 3.5 -31t8.5 -33z" />
    <glyph glyph-name="x.002" unicode="&#xe031;" horiz-adv-x="252" 
d="M797 207q1 6 6.5 10t11.5 4t11.5 -5.5t6.5 -17.5q-1 -38 -8.5 -67.5t-21.5 -51.5q-25 -41 -62 -60t-79 -23t-86.5 5.5t-85.5 26.5q-26 10 -52.5 22.5t-52.5 22t-52.5 14t-52.5 0.5q-27 -5 -46.5 -20t-36.5 -32t-34 -30t-39 -13q-30 0 -56 31.5t-43 82.5
q-18 -20 -31.5 -41.5t-27.5 -52.5q-5 -9 -15 -9q-7 0 -12 4t-5 9q0 3 2 7h-1q15 35 36 64.5t43 54.5q-10 33 -23.5 61.5t-42.5 49.5q-4 2 -7 6t-3 6q0 9 16.5 14.5t30.5 5.5q10 0 21 -10t21 -24.5t18.5 -31t13.5 -30.5q7 7 20 25l27 37t26.5 33t18.5 14t11.5 -5.5t5.5 -11.5
q0 -3 -4 -9q-23 -32 -47 -62t-46 -53l10 -32l10.5 -34t11.5 -31t13.5 -23t16.5 -9q14 0 30 13t33.5 29.5t36.5 31t40 16.5q25 3 53 -1.5t57.5 -13t60.5 -19.5l62 -21q38 -12 77 -17.5t74.5 0t65.5 23.5t50 52q10 17 16 38.5t8 47.5z" />
    <glyph glyph-name="y.002" unicode="&#xe032;" horiz-adv-x="288" 
d="M766 143q1 6 6.5 10t11.5 4t11.5 -5.5t6.5 -17.5q-1 -38 -8.5 -67.5t-21.5 -51.5q-25 -41 -62 -60t-79 -23t-86.5 5.5t-85.5 26.5q-33 13 -67.5 29.5t-69 25.5t-68 5.5t-66.5 -28.5q-1 -25 -4 -62t-9 -78.5t-15 -83t-22.5 -74.5t-32 -54t-41.5 -21q-15 0 -26.5 9.5
t-19 24.5t-11.5 34t-4 38q0 38 13 76t32 72t39.5 62t35.5 46q2 20 2.5 41t1.5 43l2 43q-22 -39 -42.5 -68.5t-43.5 -29.5q-26 0 -36.5 31t-10.5 79q0 22 1 45t2.5 44.5t3 40t1.5 32.5q0 7 10.5 11.5t21.5 4.5q10 0 19 -5t10 -16q0 -8 -2.5 -30.5l-5.5 -50.5t-5.5 -57.5
t-2.5 -50.5q0 -35 4 -35q6 0 16.5 16t22.5 37.5t23 44.5t17 37q0 26 1.5 49t1.5 43q0 7 9.5 11.5t21.5 4.5q10 0 20 -5.5t10 -16.5q0 -56 -2 -108.5t-5 -107.5l-1 -26q32 21 66.5 22t70.5 -8t74 -24t76 -27t77 -17.5t74.5 0t65.5 23.5t50 52q10 17 16 38.5t8 47.5zM55 -347
q9 0 17.5 15.5t15 40.5t12 56t9.5 61.5t6.5 58t3.5 44.5q-13 -17 -28 -40t-27.5 -49.5t-21 -56t-8.5 -59.5q0 -3 1 -14.5t3.5 -24t6.5 -22.5t10 -10z" />
    <glyph glyph-name="z.002" unicode="&#xe033;" horiz-adv-x="284" 
d="M804 162q1 6 6.5 10t11.5 4t11.5 -5.5t6.5 -17.5q-1 -38 -8.5 -67.5t-21.5 -51.5q-25 -41 -62 -60t-79 -23t-86.5 5.5t-85.5 26.5q-33 13 -66.5 29t-67.5 25t-67.5 6.5t-65.5 -25.5q10 -36 10 -77q0 -51 -15.5 -97.5t-41.5 -81.5t-60 -56t-71 -21q-32 0 -51.5 17
t-19.5 46q0 31 17.5 63.5t44.5 65.5t60.5 65.5l66.5 62.5q-10 48 -36.5 73t-68.5 25q-8 0 -12.5 1t-4.5 6q0 7 14.5 19.5l31.5 28t31.5 32.5t14.5 32t-11 23t-25 8q-20 0 -36 -14t-28.5 -31.5l-23 -31.5t-17.5 -14q-11 0 -10.5 9.5t8.5 23.5t21.5 31t29.5 31t33.5 23.5
t31.5 9.5q35 0 55.5 -17t20.5 -42q0 -13 -8 -28t-20.5 -30t-29.5 -28.5t-35 -23.5q12 -2 28.5 -7.5t33 -15.5t32 -22.5t25.5 -27.5q33 25 68.5 28t73 -5.5t77 -24t79.5 -28.5q38 -12 77 -17.5t74.5 0t65.5 23.5t50 52q10 17 16 38.5t8 47.5zM174 -29l-62 -59t-52.5 -57
t-36 -55t-13.5 -54q0 -17 7 -24.5t17 -7.5q21 0 45 16.5t44.5 49t35 80.5t15.5 111z" />
    <glyph glyph-name="t.003" unicode="&#xe034;" horiz-adv-x="209" 
d="M-55 384q-4 -10 -9.5 -13.5t-10 -1.5t-7 8.5t-0.5 16.5q6 16 16 24t23 10.5t27.5 1.5l29.5 -2q2 11 5.5 19t8.5 16q5 9 15 11.5t20 0t17.5 -9.5t7.5 -17l-8 -31l38.5 -3t56 -3t63 1t60 8t46.5 17.5t24 31.5q2 10 1 20.5t-7 19.5q-5 8 -16.5 13.5t-22.5 8.5
q-12 3 -10.5 13.5t9.5 11.5q17 2 39 -5t33 -24q9 -13 12 -29.5t0 -33.5q-5 -26 -25.5 -42.5t-50.5 -25.5t-65.5 -12.5t-70.5 -3t-67 2.5t-54 4q-10 -51 -14 -104t-4 -107q0 -32 1 -68t4 -66t8 -50t14 -20q11 0 26 18.5t31.5 49.5t34.5 70.5l35 80.5q5 9 17 4.5t13 -13.5
l-44 -93t-40.5 -74t-38.5 -48.5t-38 -17.5q-26 0 -41.5 25.5t-24 64t-11.5 82.5t-3 82v43t1 49.5t2.5 51t4.5 48.5q-13 3 -33 3t-28 -14z" />
    <glyph glyph-name="t" unicode="t" horiz-adv-x="223" 
d="M88 448q-3 -14 -6 -24.5t-3 -12.5q15 -1 33 -2t35 2t31 10.5t23 22.5q2 4 12 4.5t16 -11.5q-3 -22 -22.5 -34t-44.5 -17.5t-49.5 -6t-39.5 2.5q-10 -45 -14 -100t-4 -106q0 -64 7.5 -105t24.5 -41q23 0 56 39.5t82 118.5q2 5 13 5q7 0 13.5 -4t6.5 -10
q-56 -97 -97.5 -139.5t-78.5 -42.5q-26 0 -42.5 18t-25.5 47.5t-12.5 66t-3.5 74.5q0 28 1 56.5t2.5 53t3 44.5t3.5 32l-31 1.5t-15.5 -1.5t-7.5 -6.5t-6 -12.5q-3 -7 -15 -5.5t-12 11.5q-1 21 10.5 30t27 12t31 1.5t23.5 -2.5q3 12 7.5 26.5t7.5 19.5q7 12 25 12
q14 0 24.5 -8t10.5 -19z" />
    <glyph glyph-name="Ydieresis" unicode="&#x178;" horiz-adv-x="483" 
d="M151 -132q0 28 12.5 52t34 46t51 42t63.5 41q10 129 11.5 247t8.5 231q-10 -31 -22 -80l-26 -104.5t-30 -111.5t-34 -101.5t-38.5 -74t-42.5 -28.5q-21 0 -34 16t-20 39t-9.5 49t-2.5 46q0 35 2.5 75t6 80.5t6 80t2.5 75.5q0 24 -1.5 47.5t-5.5 42.5t-10.5 30.5
t-15.5 11.5q-13 0 -27.5 -18.5t-27.5 -43.5t-21.5 -49.5t-9.5 -36.5q-2 -10 -14 -10q-8 0 -13.5 5.5t-5.5 13.5q2 13 11.5 42t26 58t40 51t52.5 22q26 0 43 -21t26.5 -54t13.5 -73.5t4 -79.5q0 -47 -3 -95t-7 -90.5l-7 -76t-3 -52.5q0 -29 3.5 -41t8.5 -12t12 10
q15 21 29.5 56.5t27.5 79t25 91l22.5 93l20.5 85t18 67.5l17.5 57t14.5 39.5t14.5 22.5t17.5 7q14 0 25.5 -12t11.5 -29q-2 -29 -2 -87t-1.5 -132t-6 -157t-13.5 -162q32 20 59 45.5t44 55.5q4 5 10 5t11 -3t7.5 -8.5t0.5 -10.5q-18 -38 -55.5 -67.5t-81.5 -55.5
q-8 -55 -21 -104.5t-31 -87t-41 -60t-51 -22.5q-35 0 -57.5 28t-22.5 65zM235 -192q15 9 26.5 29.5t20.5 48t15 60t11 65.5q-56 -35 -90.5 -70.5t-34.5 -77.5q0 -23 10 -42t27 -19q6 0 15 6zM301 785q-14 0 -23.5 9t-9.5 23q0 13 9.5 22t23.5 9t23.5 -9t9.5 -22
q0 -14 -9.5 -23t-23.5 -9zM174 783q-14 0 -24 9t-10 22q0 14 10 23t24 9t23.5 -9t9.5 -23q0 -13 -9.5 -22t-23.5 -9z" />
    <glyph glyph-name="g" unicode="g" horiz-adv-x="308" 
d="M202 184q0 -19 -0.5 -36.5t-0.5 -34.5v-52q12 14 28.5 35.5l32 42t28.5 35.5t18 15q7 0 13.5 -4.5t6.5 -10.5q0 -3 -2 -5q-12 -21 -28.5 -43.5t-34 -44l-34.5 -40.5l-30 -34q-2 -24 -4.5 -62t-8 -81t-14 -87t-21 -79.5t-30 -58t-41.5 -22.5q-15 0 -27 10t-20.5 26
t-12.5 35.5t-4 38.5q0 38 12.5 76t30.5 72t38 61.5t35 45.5q0 10 1.5 33t2.5 47.5t1.5 45.5t-1.5 26q-13 -28 -28 -48t-29 -32.5t-26 -18t-19 -5.5q-14 0 -24 9t-16 22t-8.5 28.5t-2.5 28.5q0 28 8 54.5t22 47.5t33 33.5t40 12.5q23 0 41 -12t23 -35q23 23 37.5 11.5
t14.5 -46.5zM74 -351q8 0 15 15.5t13 40.5t10.5 55.5t8 61.5t5.5 58t3 44q-13 -18 -27.5 -43t-26.5 -53t-20 -57t-8 -55q0 -9 2 -21t5.5 -22t8.5 -17t11 -7zM122 176q3 10 3 18q0 17 -6.5 26t-15.5 9q-15 0 -26.5 -15t-19.5 -36t-12.5 -43.5t-4.5 -37.5q0 -28 7 -28
q5 0 14.5 11.5t20.5 28l22 34.5t18 32v1z" />
    <glyph glyph-name="e" unicode="e" horiz-adv-x="268" 
d="M194 238q0 -19 -13 -39.5t-34 -38.5t-47.5 -32t-53.5 -21q3 -25 13 -42.5t34 -17.5q23 0 49.5 15.5t51 38t44 46.5t30.5 41q3 7 14 7q6 0 12 -3.5t6 -8.5q0 -1 -1 -3l-2 -4q-15 -26 -38.5 -55.5t-52 -54t-61 -40.5t-65.5 -16q-24 0 -42 10t-30 26t-17.5 36t-5.5 41
q0 36 12 66.5t32 53t45 35.5t51 13q32 0 50.5 -14.5t18.5 -38.5zM132 262q-19 0 -34 -13t-26 -32t-17.5 -41t-8.5 -40q19 7 39.5 19t37 25.5t27 28t10.5 27.5t-9 19.5t-19 6.5z" />
    <glyph glyph-name="f" unicode="f" horiz-adv-x="249" 
d="M249 189q4 5 11.5 5.5t13.5 -2.5t9 -8t-1 -9q-17 -39 -43 -62t-56 -38t-61 -26t-58 -24l17 -68v1l23 -91t17 -99q5 -52 -8 -83.5t-33.5 -37.5t-41.5 16.5t-33 79.5q-5 25 -7 47t-4 33q-4 39 -6 80t-2 81q0 92 8.5 178.5t24.5 155.5q5 22 15 45t25 42.5t35.5 32t46.5 12.5
q32 0 45 -21.5t13 -47.5q0 -34 -12 -66t-32 -63t-46 -61.5l-54 -61.5q0 -17 -1 -38.5t-1 -38.5q29 9 59 21t56.5 28.5t47.5 38.5t33 49zM68 269l-5.5 -43t-4.5 -46l39.5 48t36.5 48.5t26.5 51t10.5 56.5q0 20 -5 29t-13 9q-21 0 -36 -18t-25 -42.5t-15.5 -50.5t-8.5 -42z
M91 -235q-5 57 -17.5 112t-23.5 96q0 -64 1 -117.5t4 -95.5q4 -53 12 -71t14.5 -12t10 31t-0.5 57z" />
    </font>
</defs>
</svg>
